<?xml version="1.0" encoding="UTF-8" standalone="no"?>
<svg
   fill="none"
   viewBox="0 0 315.75137 319.99319"
   class="a-icon--logo-text flex h-32"
   data-new=""
   aria-hidden="true"
   data-v-e1bdab2c=""
   version="1.1"
   id="svg7"
   sodipodi:docname="openai.svg"
   width="100"
   height="100"
   inkscape:version="1.3 (0e150ed6c4, 2023-07-21)"
   xmlns:inkscape="http://www.inkscape.org/namespaces/inkscape"
   xmlns:sodipodi="http://sodipodi.sourceforge.net/DTD/sodipodi-0.dtd"
   xmlns="http://www.w3.org/2000/svg"
   xmlns:svg="http://www.w3.org/2000/svg">
  <defs
     id="defs7" />
  <sodipodi:namedview
     id="namedview7"
     pagecolor="#ffffff"
     bordercolor="#666666"
     borderopacity="1.0"
     inkscape:showpageshadow="2"
     inkscape:pageopacity="0.0"
     inkscape:pagecheckerboard="0"
     inkscape:deskcolor="#d1d1d1"
     inkscape:zoom="0.83055085"
     inkscape:cx="641.74277"
     inkscape:cy="154.7166"
     inkscape:window-width="1536"
     inkscape:window-height="841"
     inkscape:window-x="-8"
     inkscape:window-y="-8"
     inkscape:window-maximized="1"
     inkscape:current-layer="svg7" />
  <path
     d="m 294.9302,130.97148 c 7.26,-21.79 4.76,-45.659996 -6.85,-65.479996 -17.46,-30.4 -52.56,-46.04 -86.84,-38.68 -15.25,-17.1799998 -37.16,-26.94999977 -60.13,-26.80999977 -35.04,-0.08 -66.129998,22.47999977 -76.909998,55.81999977 -22.51,4.61 -41.94,18.7 -53.31,38.67 -17.5899998,30.319996 -13.5799998,68.539996 9.92,94.539996 -7.26,21.79 -4.76,45.66 6.85,65.48 17.46,30.4 52.56,46.04 86.839998,38.68 15.24,17.18 37.16,26.95 60.13,26.8 35.06,0.09 66.16,-22.49 76.94,-55.86 22.51,-4.61 41.94,-18.7 53.31,-38.67 17.57,-30.32 13.55,-68.51 -9.94,-94.51 z m -120.28,168.11 c -14.03,0.02 -27.62,-4.89 -38.39,-13.88 0.49,-0.26 1.34,-0.73 1.89,-1.07 l 63.72,-36.8 c 3.26,-1.85 5.26,-5.32 5.24,-9.07 v -89.83 l 26.93,15.55 c 0.29,0.14 0.48,0.42 0.52,0.74 v 74.39 c -0.04,33.08 -26.83,59.9 -59.91,59.97 z m -128.839998,-55.03 c -7.03,-12.14 -9.56,-26.37 -7.15,-40.18 0.47,0.28 1.3,0.79 1.89,1.13 l 63.719998,36.8 c 3.23,1.89 7.23,1.89 10.47,0 l 77.79,-44.92 v 31.1 c 0.02,0.32 -0.13,0.63 -0.38,0.83 l -64.41,37.19 c -28.689998,16.52 -65.329998,6.7 -81.919998,-21.95 z m -16.77,-139.09 c 7,-12.159996 18.05,-21.459996 31.21,-26.289996 0,0.55 -0.03,1.52 -0.03,2.2 v 73.609996 c -0.02,3.74 1.98,7.21 5.23,9.06 l 77.789998,44.91 -26.93,15.55 c -0.27,0.18 -0.61,0.21 -0.91,0.08 l -64.419998,-37.22 c -28.63,-16.58 -38.45,-53.21 -21.95,-81.89 z m 221.259998,51.49 -77.79,-44.92 26.93,-15.539996 c 0.27,-0.18 0.61,-0.21 0.91,-0.08 l 64.42,37.189996 c 28.68,16.57 38.51,53.26 21.94,81.94 -7.01,12.14 -18.05,21.44 -31.2,26.28 v -75.81 c 0.03,-3.74 -1.96,-7.2 -5.2,-9.06 z m 26.8,-40.34 c -0.47,-0.29 -1.3,-0.79 -1.89,-1.13 l -63.72,-36.799996 c -3.23,-1.89 -7.23,-1.89 -10.47,0 l -77.79,44.919996 V 92.001484 c -0.02,-0.32 0.13,-0.63 0.38,-0.83 l 64.41,-37.16 c 28.69,-16.55 65.37,-6.7 81.91,22 6.99,12.12 9.52,26.309996 7.15,40.099996 z m -168.51,55.43 -26.939998,-15.55 c -0.29,-0.14 -0.48,-0.42 -0.52,-0.74 V 80.861484 c 0.02,-33.12 26.889998,-59.96 60.009998,-59.94 14.01,0 27.57,4.92 38.34,13.88 -0.49,0.26 -1.33,0.73 -1.89,1.07 l -63.72,36.8 c -3.26,1.85 -5.26,5.31 -5.24,9.06 l -0.04,89.789996 z m 14.63,-31.54 34.65,-20.01 34.65,20 v 40.01 l -34.65,20 -34.65,-20 z"
     id="path7"
     style="fill:#000000" />
</svg>
