<svg xmlns="http://www.w3.org/2000/svg" xmlns:xlink="http://www.w3.org/1999/xlink" width="2400" zoomAndPan="magnify" viewBox="0 0 1800 374.999991" height="500" preserveAspectRatio="xMidYMid meet" version="1.0"><defs><g/><clipPath id="99225bb37a"><path d="M 215 37.5 L 477.964844 37.5 L 477.964844 317 L 215 317 Z M 215 37.5 " clip-rule="nonzero"/></clipPath><clipPath id="ebace649e5"><path d="M 164 37.5 L 433 37.5 L 433 231 L 164 231 Z M 164 37.5 " clip-rule="nonzero"/></clipPath><clipPath id="84a56faedd"><path d="M 308 48 L 477.964844 48 L 477.964844 291 L 308 291 Z M 308 48 " clip-rule="nonzero"/></clipPath><clipPath id="9fcd6723d3"><path d="M 216 113 L 455 113 L 455 336 L 216 336 Z M 216 113 " clip-rule="nonzero"/></clipPath></defs><g clip-path="url(#99225bb37a)"><path stroke-linecap="butt" transform="matrix(1.207482, 0, 0, 1.206251, -306.325036, -271.604133)" fill="none" stroke-linejoin="miter" d="M 499.849676 304.299265 L 611.280569 368.21439 L 530.967509 419.933925 Z M 499.849676 304.299265 " stroke="#141414" stroke-width="12" stroke-opacity="1" stroke-miterlimit="4"/></g><path fill="#7950f2" d="M 350.039062 96.472656 C 350.039062 98.167969 349.957031 99.855469 349.792969 101.542969 C 349.625 103.230469 349.375 104.902344 349.046875 106.566406 C 348.714844 108.226562 348.304688 109.867188 347.808594 111.492188 C 347.316406 113.113281 346.746094 114.707031 346.097656 116.269531 C 345.449219 117.835938 344.726562 119.367188 343.925781 120.859375 C 343.125 122.355469 342.253906 123.804688 341.3125 125.214844 C 340.371094 126.625 339.359375 127.984375 338.285156 129.292969 C 337.207031 130.601562 336.070312 131.855469 334.871094 133.054688 C 333.671875 134.253906 332.417969 135.390625 331.105469 136.464844 C 329.792969 137.539062 328.433594 138.546875 327.023438 139.488281 C 325.613281 140.429688 324.160156 141.300781 322.664062 142.097656 C 321.167969 142.898438 319.636719 143.621094 318.070312 144.269531 C 316.503906 144.917969 314.90625 145.488281 313.285156 145.980469 C 311.660156 146.472656 310.019531 146.882812 308.355469 147.214844 C 306.691406 147.542969 305.015625 147.792969 303.328125 147.960938 C 301.640625 148.125 299.949219 148.207031 298.25 148.207031 C 296.554688 148.207031 294.863281 148.125 293.175781 147.960938 C 291.488281 147.792969 289.8125 147.542969 288.148438 147.214844 C 286.484375 146.882812 284.839844 146.472656 283.21875 145.980469 C 281.59375 145.488281 280 144.917969 278.433594 144.269531 C 276.867188 143.621094 275.335938 142.898438 273.839844 142.097656 C 272.34375 141.300781 270.890625 140.429688 269.480469 139.488281 C 268.070312 138.546875 266.707031 137.539062 265.398438 136.464844 C 264.085938 135.390625 262.832031 134.253906 261.632812 133.054688 C 260.433594 131.855469 259.292969 130.601562 258.21875 129.292969 C 257.140625 127.984375 256.132812 126.625 255.191406 125.214844 C 254.25 123.804688 253.378906 122.355469 252.578125 120.859375 C 251.777344 119.367188 251.054688 117.835938 250.40625 116.269531 C 249.753906 114.707031 249.183594 113.113281 248.691406 111.492188 C 248.199219 109.867188 247.789062 108.226562 247.457031 106.566406 C 247.125 104.902344 246.878906 103.230469 246.710938 101.542969 C 246.546875 99.855469 246.460938 98.167969 246.460938 96.472656 C 246.460938 94.777344 246.546875 93.085938 246.710938 91.402344 C 246.878906 89.714844 247.125 88.042969 247.457031 86.378906 C 247.789062 84.71875 248.199219 83.074219 248.691406 81.453125 C 249.183594 79.832031 249.753906 78.238281 250.40625 76.671875 C 251.054688 75.109375 251.777344 73.578125 252.578125 72.085938 C 253.378906 70.589844 254.25 69.136719 255.191406 67.730469 C 256.132812 66.320312 257.140625 64.960938 258.21875 63.652344 C 259.292969 62.339844 260.433594 61.085938 261.632812 59.890625 C 262.832031 58.691406 264.085938 57.554688 265.398438 56.480469 C 266.707031 55.40625 268.070312 54.398438 269.480469 53.457031 C 270.890625 52.515625 272.34375 51.644531 273.839844 50.84375 C 275.335938 50.046875 276.867188 49.324219 278.433594 48.675781 C 280 48.027344 281.59375 47.457031 283.21875 46.964844 C 284.839844 46.472656 286.484375 46.0625 288.148438 45.730469 C 289.8125 45.398438 291.488281 45.152344 293.175781 44.984375 C 294.863281 44.820312 296.554688 44.734375 298.25 44.734375 C 299.949219 44.734375 301.640625 44.820312 303.328125 44.984375 C 305.015625 45.152344 306.691406 45.398438 308.355469 45.730469 C 310.019531 46.0625 311.660156 46.472656 313.285156 46.964844 C 314.90625 47.457031 316.503906 48.027344 318.070312 48.675781 C 319.636719 49.324219 321.167969 50.046875 322.664062 50.84375 C 324.160156 51.644531 325.613281 52.515625 327.023438 53.457031 C 328.433594 54.398438 329.796875 55.40625 331.105469 56.480469 C 332.417969 57.554688 333.671875 58.691406 334.871094 59.890625 C 336.070312 61.085938 337.207031 62.339844 338.285156 63.652344 C 339.359375 64.960938 340.371094 66.320312 341.3125 67.730469 C 342.253906 69.136719 343.125 70.589844 343.925781 72.085938 C 344.726562 73.578125 345.449219 75.109375 346.097656 76.671875 C 346.746094 78.238281 347.316406 79.832031 347.808594 81.453125 C 348.304688 83.074219 348.714844 84.71875 349.046875 86.378906 C 349.375 88.042969 349.625 89.714844 349.792969 91.402344 C 349.957031 93.085938 350.039062 94.777344 350.039062 96.472656 Z M 350.039062 96.472656 " fill-opacity="1" fill-rule="nonzero"/><g clip-path="url(#ebace649e5)"><path stroke-linecap="butt" transform="matrix(1.207482, 0, 0, 1.206251, -306.325036, -271.604133)" fill="none" stroke-linejoin="miter" d="M 543.580923 305.141233 C 543.580923 306.546673 543.512988 307.945636 543.377116 309.344599 C 543.238009 310.743562 543.030967 312.129572 542.759224 313.509105 C 542.484245 314.8854 542.144566 316.245503 541.733717 317.592652 C 541.326102 318.936564 540.853786 320.257807 540.31677 321.553143 C 539.779753 322.851717 539.181271 324.121147 538.518089 325.358193 C 537.854906 326.598477 537.133492 327.799901 536.353848 328.968942 C 535.574204 330.137983 534.736329 331.264926 533.846693 332.34977 C 532.953823 333.434614 532.012427 334.474121 531.01927 335.468291 C 530.026113 336.462462 528.987666 337.404819 527.900693 338.295363 C 526.81372 339.185906 525.687927 340.021398 524.520078 340.801838 C 523.352229 341.582278 522.148795 342.304428 520.909775 342.96505 C 519.670756 343.628909 518.402621 344.228002 517.10537 344.765567 C 515.80812 345.303131 514.484989 345.775929 513.142448 346.18396 C 511.796672 346.591991 510.437956 346.932017 509.05983 347.207275 C 507.681704 347.479296 506.293872 347.68655 504.896336 347.825799 C 503.498799 347.961809 502.098028 348.029814 500.690786 348.029814 C 499.286779 348.029814 497.886008 347.961809 496.488471 347.825799 C 495.090935 347.68655 493.703103 347.479296 492.324977 347.207275 C 490.946851 346.932017 489.5849 346.591991 488.242359 346.18396 C 486.896583 345.775929 485.576687 345.303131 484.279437 344.765567 C 482.982186 344.228002 481.714051 343.628909 480.475032 342.96505 C 479.236012 342.304428 478.032578 341.582278 476.864729 340.801838 C 475.69688 340.021398 474.567852 339.185906 473.484114 338.295363 C 472.397141 337.404819 471.358694 336.462462 470.365537 335.468291 C 469.37238 334.474121 468.427749 333.434614 467.538114 332.34977 C 466.645243 331.264926 465.810603 330.137983 465.030959 328.968942 C 464.251315 327.799901 463.529901 326.598477 462.866718 325.358193 C 462.203536 324.121147 461.605054 322.851717 461.068037 321.553143 C 460.527786 320.257807 460.05547 318.936564 459.647855 317.592652 C 459.240241 316.245503 458.900562 314.8854 458.625583 313.509105 C 458.350605 312.129572 458.146798 310.743562 458.007691 309.344599 C 457.871819 307.945636 457.800648 306.546673 457.800648 305.141233 C 457.800648 303.735794 457.871819 302.333592 458.007691 300.937868 C 458.146798 299.538904 458.350605 298.152895 458.625583 296.773362 C 458.900562 295.397067 459.240241 294.033726 459.647855 292.689815 C 460.05547 291.345903 460.527786 290.02466 461.068037 288.726086 C 461.605054 287.43075 462.203536 286.16132 462.866718 284.924274 C 463.529901 283.68399 464.251315 282.479327 465.030959 281.313525 C 465.810603 280.144484 466.645243 279.017541 467.538114 277.932697 C 468.427749 276.844615 469.37238 275.805108 470.365537 274.814175 C 471.358694 273.820005 472.397141 272.877648 473.484114 271.987104 C 474.567852 271.096561 475.69688 270.261069 476.864729 269.480629 C 478.032578 268.700189 479.236012 267.978039 480.475032 267.314179 C 481.714051 266.653558 482.982186 266.054465 484.279437 265.5169 C 485.576687 264.979336 486.896583 264.506538 488.242359 264.098507 C 489.5849 263.690476 490.946851 263.35045 492.324977 263.075191 C 493.703103 262.799932 495.090935 262.595917 496.488471 262.456668 C 497.886008 262.320658 499.286779 262.249415 500.690786 262.249415 C 502.098028 262.249415 503.498799 262.320658 504.896336 262.456668 C 506.293872 262.595917 507.681704 262.799932 509.05983 263.075191 C 510.437956 263.35045 511.796672 263.690476 513.142448 264.098507 C 514.484989 264.506538 515.80812 264.979336 517.10537 265.5169 C 518.402621 266.054465 519.670756 266.653558 520.909775 267.314179 C 522.148795 267.978039 523.352229 268.700189 524.520078 269.480629 C 525.687927 270.261069 526.816955 271.096561 527.900693 271.987104 C 528.987666 272.877648 530.026113 273.820005 531.01927 274.814175 C 532.012427 275.805108 532.953823 276.844615 533.846693 277.932697 C 534.736329 279.017541 535.574204 280.144484 536.353848 281.313525 C 537.133492 282.479327 537.854906 283.68399 538.518089 284.924274 C 539.181271 286.16132 539.779753 287.43075 540.31677 288.726086 C 540.853786 290.02466 541.326102 291.345903 541.733717 292.689815 C 542.144566 294.033726 542.484245 295.397067 542.759224 296.773362 C 543.030967 298.152895 543.238009 299.538904 543.377116 300.937868 C 543.512988 302.333592 543.580923 303.735794 543.580923 305.141233 Z M 543.580923 305.141233 " stroke="#141414" stroke-width="12" stroke-opacity="1" stroke-miterlimit="4"/></g><path fill="#fcc419" d="M 469.863281 169.511719 C 469.863281 170.804688 469.800781 172.097656 469.671875 173.390625 C 469.546875 174.679688 469.355469 175.957031 469.101562 177.230469 C 468.851562 178.5 468.535156 179.753906 468.160156 180.996094 C 467.78125 182.234375 467.34375 183.453125 466.847656 184.652344 C 466.351562 185.847656 465.796875 187.019531 465.1875 188.160156 C 464.574219 189.304688 463.910156 190.414062 463.1875 191.492188 C 462.46875 192.566406 461.695312 193.609375 460.875 194.609375 C 460.050781 195.609375 459.179688 196.570312 458.265625 197.484375 C 457.347656 198.402344 456.386719 199.269531 455.382812 200.09375 C 454.382812 200.914062 453.339844 201.6875 452.261719 202.40625 C 451.183594 203.125 450.074219 203.792969 448.929688 204.402344 C 447.785156 205.011719 446.613281 205.566406 445.414062 206.0625 C 444.21875 206.558594 442.996094 206.992188 441.757812 207.371094 C 440.515625 207.746094 439.257812 208.058594 437.988281 208.3125 C 436.714844 208.566406 435.433594 208.757812 434.140625 208.882812 C 432.851562 209.011719 431.558594 209.074219 430.261719 209.074219 C 428.964844 209.074219 427.667969 209.011719 426.378906 208.882812 C 425.089844 208.757812 423.808594 208.566406 422.535156 208.3125 C 421.261719 208.058594 420.003906 207.746094 418.765625 207.371094 C 417.523438 206.992188 416.304688 206.558594 415.105469 206.0625 C 413.90625 205.566406 412.734375 205.011719 411.59375 204.402344 C 410.449219 203.792969 409.335938 203.125 408.257812 202.40625 C 407.179688 201.6875 406.140625 200.914062 405.136719 200.09375 C 404.132812 199.269531 403.175781 198.402344 402.257812 197.484375 C 401.339844 196.570312 400.46875 195.609375 399.648438 194.609375 C 398.824219 193.609375 398.050781 192.566406 397.332031 191.492188 C 396.613281 190.414062 395.945312 189.304688 395.332031 188.160156 C 394.722656 187.019531 394.167969 185.847656 393.671875 184.652344 C 393.175781 183.453125 392.738281 182.234375 392.363281 180.996094 C 391.988281 179.753906 391.671875 178.5 391.417969 177.230469 C 391.164062 175.957031 390.976562 174.679688 390.847656 173.390625 C 390.722656 172.097656 390.65625 170.804688 390.65625 169.511719 C 390.65625 168.214844 390.722656 166.921875 390.847656 165.632812 C 390.976562 164.34375 391.164062 163.0625 391.417969 161.792969 C 391.671875 160.523438 391.988281 159.265625 392.363281 158.027344 C 392.738281 156.785156 393.175781 155.566406 393.671875 154.371094 C 394.167969 153.171875 394.722656 152.003906 395.332031 150.859375 C 395.945312 149.71875 396.613281 148.609375 397.332031 147.53125 C 398.050781 146.453125 398.824219 145.414062 399.648438 144.414062 C 400.46875 143.410156 401.339844 142.453125 402.257812 141.535156 C 403.175781 140.621094 404.132812 139.75 405.136719 138.929688 C 406.140625 138.105469 407.179688 137.335938 408.257812 136.617188 C 409.335938 135.894531 410.449219 135.230469 411.59375 134.621094 C 412.734375 134.007812 413.90625 133.457031 415.105469 132.960938 C 416.304688 132.464844 417.523438 132.027344 418.765625 131.652344 C 420.003906 131.277344 421.261719 130.960938 422.535156 130.707031 C 423.808594 130.457031 425.089844 130.265625 426.378906 130.140625 C 427.667969 130.011719 428.964844 129.949219 430.261719 129.949219 C 431.558594 129.949219 432.851562 130.011719 434.140625 130.140625 C 435.433594 130.265625 436.714844 130.457031 437.988281 130.707031 C 439.257812 130.960938 440.515625 131.277344 441.757812 131.652344 C 442.996094 132.027344 444.21875 132.464844 445.414062 132.960938 C 446.613281 133.457031 447.785156 134.007812 448.929688 134.621094 C 450.074219 135.230469 451.183594 135.894531 452.261719 136.617188 C 453.339844 137.335938 454.382812 138.105469 455.382812 138.929688 C 456.386719 139.75 457.347656 140.621094 458.265625 141.535156 C 459.179688 142.453125 460.050781 143.410156 460.875 144.414062 C 461.695312 145.414062 462.46875 146.453125 463.1875 147.53125 C 463.910156 148.609375 464.574219 149.71875 465.1875 150.859375 C 465.796875 152.003906 466.351562 153.175781 466.847656 154.371094 C 467.34375 155.566406 467.78125 156.785156 468.160156 158.027344 C 468.535156 159.265625 468.851562 160.523438 469.101562 161.792969 C 469.355469 163.0625 469.546875 164.34375 469.671875 165.632812 C 469.800781 166.921875 469.863281 168.214844 469.863281 169.511719 Z M 469.863281 169.511719 " fill-opacity="1" fill-rule="nonzero"/><g clip-path="url(#84a56faedd)"><path stroke-linecap="butt" transform="matrix(1.207482, 0, 0, 1.206251, -306.325036, -271.604133)" fill="none" stroke-linejoin="miter" d="M 642.815723 365.691723 C 642.815723 366.763613 642.763962 367.835504 642.657206 368.907395 C 642.553685 369.976047 642.395168 371.034984 642.18489 372.090683 C 641.977848 373.143144 641.71581 374.182651 641.405246 375.212443 C 641.091447 376.238997 640.729123 377.24936 640.318273 378.24353 C 639.907423 379.234462 639.448048 380.205964 638.943382 381.15156 C 638.435481 382.100394 637.885524 383.020082 637.287042 383.913864 C 636.691795 384.804408 636.051258 385.669045 635.3719 386.49806 C 634.689306 387.327075 633.967893 388.123707 633.210894 388.881478 C 632.45066 389.642488 631.654841 390.3614 630.823436 391.04469 C 629.995266 391.724741 629.131511 392.365933 628.23864 392.961787 C 627.34577 393.557642 626.427019 394.111398 625.479152 394.616579 C 624.531286 395.12176 623.560775 395.581605 622.567618 395.992874 C 621.577696 396.404143 620.565129 396.763599 619.539622 397.077718 C 618.51088 397.388599 617.469198 397.647666 616.41781 397.858158 C 615.363188 398.06865 614.302095 398.227329 613.231298 398.330956 C 612.163735 398.437821 611.092937 398.489634 610.018905 398.489634 C 608.944872 398.489634 607.870839 398.437821 606.803277 398.330956 C 605.735714 398.227329 604.674621 398.06865 603.619999 397.858158 C 602.565376 397.647666 601.523694 397.388599 600.498187 397.077718 C 599.469445 396.763599 598.460113 396.404143 597.466956 395.992874 C 596.473799 395.581605 595.503288 395.12176 594.558657 394.616579 C 593.61079 394.111398 592.688805 393.557642 591.795934 392.961787 C 590.903063 392.365933 590.042543 391.724741 589.211138 391.04469 C 588.379734 390.3614 587.587149 389.642488 586.826915 388.881478 C 586.066681 388.123707 585.345268 387.327075 584.66591 386.49806 C 583.983317 385.669045 583.342779 384.804408 582.747532 383.913864 C 582.152285 383.020082 581.599093 382.100394 581.091192 381.15156 C 580.586526 380.205964 580.127151 379.234462 579.716301 378.24353 C 579.305451 377.24936 578.943127 376.238997 578.632563 375.212443 C 578.322 374.182651 578.059961 373.143144 577.849684 372.090683 C 577.639406 371.034984 577.484125 369.976047 577.377368 368.907395 C 577.273847 367.835504 577.218851 366.763613 577.218851 365.691723 C 577.218851 364.616594 577.273847 363.544703 577.377368 362.476051 C 577.484125 361.407398 577.639406 360.345223 577.849684 359.292762 C 578.059961 358.240301 578.322 357.197556 578.632563 356.171002 C 578.943127 355.14121 579.305451 354.130847 579.716301 353.139915 C 580.127151 352.145745 580.586526 351.177481 581.091192 350.228647 C 581.599093 349.283052 582.152285 348.363363 582.747532 347.469581 C 583.342779 346.575799 583.983317 345.714401 584.66591 344.885385 C 585.345268 344.053132 586.066681 343.259739 586.826915 342.498729 C 587.587149 341.740957 588.379734 341.018807 589.211138 340.338755 C 590.042543 339.655466 590.903063 339.017513 591.795934 338.421658 C 592.688805 337.822565 593.61079 337.272047 594.558657 336.766866 C 595.503288 336.258447 596.473799 335.801841 597.466956 335.390571 C 598.460113 334.979302 599.469445 334.616608 600.498187 334.305727 C 601.523694 333.994847 602.565376 333.732541 603.619999 333.522049 C 604.674621 333.314795 605.735714 333.156116 606.803277 333.05249 C 607.870839 332.945624 608.944872 332.893811 610.018905 332.893811 C 611.092937 332.893811 612.163735 332.945624 613.231298 333.05249 C 614.302095 333.156116 615.363188 333.314795 616.41781 333.522049 C 617.469198 333.732541 618.51088 333.994847 619.539622 334.305727 C 620.565129 334.616608 621.577696 334.979302 622.567618 335.390571 C 623.560775 335.801841 624.531286 336.258447 625.479152 336.766866 C 626.427019 337.272047 627.34577 337.822565 628.23864 338.421658 C 629.131511 339.017513 629.995266 339.655466 630.823436 340.338755 C 631.654841 341.018807 632.45066 341.740957 633.210894 342.498729 C 633.967893 343.259739 634.689306 344.053132 635.3719 344.885385 C 636.051258 345.714401 636.691795 346.575799 637.287042 347.469581 C 637.885524 348.363363 638.435481 349.283052 638.943382 350.228647 C 639.448048 351.177481 639.907423 352.148983 640.318273 353.139915 C 640.729123 354.130847 641.091447 355.14121 641.405246 356.171002 C 641.71581 357.197556 641.977848 358.240301 642.18489 359.292762 C 642.395168 360.345223 642.553685 361.407398 642.657206 362.476051 C 642.763962 363.544703 642.815723 364.616594 642.815723 365.691723 Z M 642.815723 365.691723 " stroke="#141414" stroke-width="12" stroke-opacity="1" stroke-miterlimit="4"/></g><path fill="#f06595" d="M 372.886719 232.40625 C 372.886719 233.617188 372.828125 234.828125 372.707031 236.035156 C 372.589844 237.242188 372.410156 238.4375 372.175781 239.628906 C 371.9375 240.816406 371.644531 241.992188 371.292969 243.152344 C 370.9375 244.3125 370.53125 245.453125 370.066406 246.574219 C 369.601562 247.695312 369.082031 248.789062 368.511719 249.859375 C 367.9375 250.929688 367.316406 251.96875 366.640625 252.976562 C 365.964844 253.984375 365.242188 254.957031 364.472656 255.894531 C 363.703125 256.832031 362.890625 257.726562 362.03125 258.585938 C 361.171875 259.445312 360.273438 260.257812 359.335938 261.027344 C 358.398438 261.796875 357.425781 262.515625 356.414062 263.191406 C 355.40625 263.863281 354.367188 264.488281 353.296875 265.058594 C 352.222656 265.628906 351.128906 266.148438 350.007812 266.613281 C 348.886719 267.078125 347.742188 267.484375 346.582031 267.835938 C 345.421875 268.1875 344.246094 268.484375 343.054688 268.71875 C 341.863281 268.957031 340.664062 269.132812 339.457031 269.253906 C 338.25 269.371094 337.039062 269.429688 335.824219 269.429688 C 334.609375 269.429688 333.398438 269.371094 332.191406 269.253906 C 330.984375 269.132812 329.785156 268.957031 328.59375 268.71875 C 327.402344 268.484375 326.226562 268.1875 325.066406 267.835938 C 323.902344 267.484375 322.761719 267.078125 321.640625 266.613281 C 320.519531 266.148438 319.421875 265.628906 318.351562 265.058594 C 317.28125 264.488281 316.242188 263.863281 315.230469 263.191406 C 314.222656 262.515625 313.25 261.796875 312.308594 261.027344 C 311.371094 260.257812 310.472656 259.445312 309.617188 258.585938 C 308.757812 257.726562 307.941406 256.832031 307.171875 255.894531 C 306.402344 254.957031 305.679688 253.984375 305.007812 252.976562 C 304.332031 251.96875 303.707031 250.929688 303.136719 249.859375 C 302.5625 248.789062 302.046875 247.695312 301.582031 246.574219 C 301.117188 245.453125 300.707031 244.3125 300.355469 243.152344 C 300.003906 241.992188 299.707031 240.816406 299.472656 239.628906 C 299.234375 238.4375 299.058594 237.242188 298.9375 236.035156 C 298.820312 234.828125 298.761719 233.617188 298.761719 232.40625 C 298.761719 231.191406 298.820312 229.980469 298.9375 228.777344 C 299.058594 227.570312 299.234375 226.371094 299.472656 225.179688 C 299.707031 223.992188 300.003906 222.816406 300.355469 221.65625 C 300.707031 220.496094 301.117188 219.355469 301.582031 218.234375 C 302.046875 217.113281 302.5625 216.019531 303.136719 214.949219 C 303.707031 213.882812 304.332031 212.84375 305.007812 211.835938 C 305.679688 210.824219 306.402344 209.851562 307.171875 208.914062 C 307.941406 207.976562 308.757812 207.082031 309.617188 206.222656 C 310.472656 205.367188 311.371094 204.550781 312.308594 203.785156 C 313.25 203.015625 314.222656 202.292969 315.230469 201.617188 C 316.242188 200.945312 317.28125 200.324219 318.351562 199.75 C 319.421875 199.179688 320.519531 198.660156 321.640625 198.195312 C 322.761719 197.734375 323.902344 197.324219 325.0625 196.972656 C 326.226562 196.621094 327.402344 196.328125 328.59375 196.089844 C 329.785156 195.855469 330.984375 195.675781 332.191406 195.558594 C 333.398438 195.4375 334.609375 195.378906 335.824219 195.378906 C 337.039062 195.378906 338.25 195.4375 339.457031 195.558594 C 340.664062 195.675781 341.863281 195.855469 343.054688 196.089844 C 344.246094 196.328125 345.421875 196.621094 346.582031 196.972656 C 347.742188 197.324219 348.886719 197.734375 350.007812 198.195312 C 351.128906 198.660156 352.222656 199.179688 353.296875 199.75 C 354.367188 200.324219 355.40625 200.945312 356.414062 201.617188 C 357.425781 202.292969 358.398438 203.015625 359.335938 203.785156 C 360.273438 204.550781 361.171875 205.367188 362.03125 206.222656 C 362.890625 207.082031 363.703125 207.976562 364.472656 208.914062 C 365.242188 209.851562 365.964844 210.824219 366.640625 211.835938 C 367.316406 212.84375 367.9375 213.882812 368.511719 214.949219 C 369.082031 216.019531 369.601562 217.113281 370.066406 218.234375 C 370.53125 219.355469 370.9375 220.496094 371.292969 221.65625 C 371.644531 222.816406 371.9375 223.992188 372.175781 225.179688 C 372.410156 226.371094 372.589844 227.570312 372.707031 228.777344 C 372.828125 229.980469 372.886719 231.191406 372.886719 232.40625 Z M 372.886719 232.40625 " fill-opacity="1" fill-rule="nonzero"/><g clip-path="url(#9fcd6723d3)"><path stroke-linecap="butt" transform="matrix(1.207482, 0, 0, 1.206251, -306.325036, -271.604133)" fill="none" stroke-linejoin="miter" d="M 562.502662 417.832242 C 562.502662 418.836127 562.454137 419.840013 562.353851 420.84066 C 562.256799 421.841307 562.107988 422.832239 561.913885 423.819933 C 561.716548 424.804389 561.47392 425.779129 561.182767 426.740916 C 560.888378 427.702703 560.551934 428.648299 560.166965 429.577702 C 559.781995 430.507106 559.351735 431.413841 558.879419 432.301147 C 558.403869 433.188452 557.889498 434.049851 557.329836 434.885342 C 556.770175 435.720834 556.171692 436.527181 555.53439 437.304383 C 554.897087 438.081584 554.224199 438.823164 553.512491 439.535599 C 552.800783 440.248034 552.056724 440.921609 551.280315 441.559562 C 550.503905 442.197515 549.698381 442.79337 548.860506 443.353603 C 548.025866 443.910597 547.165346 444.428732 546.278945 444.901529 C 545.38931 445.374327 544.483499 445.805026 543.555043 446.190389 C 542.626587 446.575751 541.678721 446.912539 540.717915 447.203989 C 539.757108 447.49544 538.783362 447.741554 537.796675 447.935854 C 536.809988 448.133393 535.816832 448.279118 534.817205 448.379507 C 533.817578 448.476657 532.814716 448.525232 531.808619 448.525232 C 530.802522 448.525232 529.79966 448.476657 528.800034 448.379507 C 527.800407 448.279118 526.80725 448.133393 525.820563 447.935854 C 524.833877 447.741554 523.86013 447.49544 522.899324 447.203989 C 521.935282 446.912539 520.990651 446.575751 520.062195 446.190389 C 519.133739 445.805026 518.224693 445.374327 517.338293 444.901529 C 516.451892 444.428732 515.591372 443.910597 514.753497 443.353603 C 513.918857 442.79337 513.113333 442.197515 512.333689 441.559562 C 511.55728 440.921609 510.813221 440.248034 510.104747 439.535599 C 509.393039 438.823164 508.716916 438.081584 508.079613 437.304383 C 507.442311 436.527181 506.843829 435.720834 506.287402 434.885342 C 505.727741 434.049851 505.210134 433.188452 504.737819 432.301147 C 504.262268 431.413841 503.835243 430.507106 503.450274 429.577702 C 503.065304 428.648299 502.725625 427.702703 502.434472 426.740916 C 502.143318 425.779129 501.897455 424.804389 501.703353 423.819933 C 501.506016 422.832239 501.360439 421.841307 501.260153 420.84066 C 501.163102 419.840013 501.114576 418.836127 501.114576 417.832242 C 501.114576 416.825118 501.163102 415.821232 501.260153 414.823823 C 501.360439 413.823176 501.506016 412.829006 501.703353 411.841312 C 501.897455 410.856856 502.143318 409.882116 502.434472 408.920329 C 502.725625 407.958542 503.065304 407.012946 503.450274 406.083543 C 503.835243 405.154139 504.262268 404.247404 504.737819 403.360098 C 505.210134 402.476031 505.727741 401.614633 506.287402 400.779141 C 506.843829 399.940411 507.442311 399.134064 508.079613 398.356862 C 508.716916 397.579661 509.393039 396.838081 510.104747 396.125646 C 510.813221 395.416449 511.55728 394.739636 512.333689 394.104921 C 513.113333 393.466968 513.918857 392.867875 514.753497 392.307643 C 515.591372 391.750648 516.451892 391.235752 517.338293 390.759716 C 518.224693 390.286918 519.133739 389.856219 520.062195 389.470856 C 520.990651 389.088732 521.935282 388.748706 522.896089 388.457256 C 523.86013 388.165805 524.833877 387.92293 525.820563 387.725391 C 526.80725 387.53109 527.800407 387.382127 528.800034 387.284977 C 529.79966 387.184588 530.802522 387.136013 531.808619 387.136013 C 532.814716 387.136013 533.817578 387.184588 534.817205 387.284977 C 535.816832 387.382127 536.809988 387.53109 537.796675 387.725391 C 538.783362 387.92293 539.757108 388.165805 540.717915 388.457256 C 541.678721 388.748706 542.626587 389.088732 543.555043 389.470856 C 544.483499 389.856219 545.38931 390.286918 546.278945 390.759716 C 547.165346 391.235752 548.025866 391.750648 548.860506 392.307643 C 549.698381 392.867875 550.503905 393.466968 551.280315 394.104921 C 552.056724 394.739636 552.800783 395.416449 553.512491 396.125646 C 554.224199 396.838081 554.897087 397.579661 555.53439 398.356862 C 556.171692 399.134064 556.770175 399.940411 557.329836 400.779141 C 557.889498 401.614633 558.403869 402.476031 558.879419 403.360098 C 559.351735 404.247404 559.781995 405.154139 560.166965 406.083543 C 560.551934 407.012946 560.888378 407.958542 561.182767 408.920329 C 561.47392 409.882116 561.716548 410.856856 561.913885 411.841312 C 562.107988 412.829006 562.256799 413.823176 562.353851 414.823823 C 562.454137 415.821232 562.502662 416.825118 562.502662 417.832242 Z M 562.502662 417.832242 " stroke="#141414" stroke-width="12" stroke-opacity="1" stroke-miterlimit="4"/></g><path fill="#ffffff" d="M 255.308594 90.457031 C 251.078125 90.574219 246.695312 91.261719 242.683594 92.121094 C 233.867188 94.085938 225.242188 96.972656 217.058594 100.792969 C 211.089844 103.617188 205.910156 107.800781 200.777344 111.894531 C 198.828125 113.304688 197.527344 115.363281 195.945312 117.140625 C 192.441406 121.355469 188.9375 125.566406 185.433594 129.777344 C 169.300781 130.296875 153.019531 131.71875 137.523438 136.476562 C 128.214844 139.335938 119.273438 143.578125 111.144531 149.121094 C 103.832031 154.519531 96.933594 160.554688 91.042969 167.492188 C 85.242188 174.449219 80.328125 182.128906 75.390625 189.644531 C 66.660156 203.1875 57.988281 216.867188 49.449219 230.566406 C 44.171875 239.171875 38.757812 247.730469 34.351562 256.828125 C 32.105469 261.503906 30.394531 266.53125 30.234375 271.761719 C 30.144531 275.972656 29.957031 280.257812 30.917969 284.390625 C 31.992188 288.378906 33.898438 292.082031 35.753906 295.75 C 42.332031 308.050781 53.0625 318.367188 66.210938 323.339844 C 75.339844 326.8125 85.796875 327.449219 94.980469 323.824219 C 99.378906 322.167969 103.273438 319.453125 106.753906 316.335938 C 108.492188 314.894531 110.5625 313.132812 112.996094 313.695312 C 115.203125 314.269531 116.890625 315.953125 118.792969 317.121094 C 122.101562 319.53125 125.78125 321.351562 129.289062 323.445312 C 131.304688 324.527344 133.167969 325.945312 135.40625 326.542969 C 147.480469 330.492188 160.089844 332.808594 172.773438 333.472656 C 186.832031 334.171875 201.128906 332.617188 214.394531 327.769531 C 214.835938 327.59375 215.722656 327.269531 216.335938 327.03125 C 223.582031 324.105469 230.460938 320.34375 237.160156 316.335938 C 244.101562 312.105469 250.867188 307.261719 256.902344 301.960938 C 267.605469 292.570312 276.78125 281.046875 281.78125 267.605469 C 284.109375 261.496094 285.347656 255.03125 285.976562 248.539062 C 287.078125 237.90625 287.074219 226.875 283.558594 216.660156 C 281.507812 210.542969 277.964844 205.101562 274.988281 199.421875 C 272.347656 194.632812 269.574219 189.882812 266.730469 185.296875 C 264.722656 182.027344 262.671875 178.832031 260.570312 175.695312 C 260.050781 175.070312 259.636719 174.449219 260.414062 173.839844 C 263.664062 169.113281 267.023438 164.460938 270.203125 159.691406 C 273.09375 154.566406 274.402344 148.726562 275.324219 142.964844 C 277.199219 130.085938 276.257812 116.863281 273.113281 104.253906 C 272.769531 102.898438 272.300781 101.175781 271.890625 99.828125 C 271.265625 97.578125 270.527344 95.1875 268.609375 93.675781 C 265.335938 91.003906 260.902344 90.527344 256.820312 90.441406 C 256.316406 90.445312 255.8125 90.453125 255.308594 90.457031 Z M 255.308594 90.457031 " fill-opacity="1" fill-rule="nonzero"/><path fill="#141414" d="M 254.832031 87.996094 C 240.136719 88.378906 220.992188 95.585938 213.207031 99.765625 C 206.542969 103.34375 197.121094 111.394531 197.121094 111.394531 L 183.835938 127.359375 C 146.660156 128.519531 127.335938 135.5 110.960938 145.988281 C 107.621094 148.125 100.320312 153.949219 94.941406 159.253906 C 86.644531 167.441406 81.851562 174.117188 63.328125 203.285156 C 29.4375 256.640625 27.269531 260.996094 27.316406 275.671875 C 27.34375 283.535156 27.921875 285.933594 31.683594 293.847656 C 47.039062 326.148438 83.703125 338.796875 106.203125 319.558594 C 111.179688 315.300781 111.371094 315.191406 114.410156 317.28125 L 119.613281 320.863281 L 132.050781 328.015625 C 132.050781 328.015625 180.800781 346.855469 222.695312 326.652344 C 248.710938 314.101562 282.054688 290.617188 287.300781 253.980469 C 291.882812 221.988281 283.386719 210.714844 278.628906 201.800781 C 270.4375 186.457031 262.355469 174.617188 262.355469 174.617188 L 271.136719 162.003906 C 277.332031 153.109375 282.566406 126.171875 273.070312 96.804688 C 270.867188 89.992188 263.648438 87.765625 254.832031 87.996094 Z M 251.933594 104.25 C 254.582031 104.242188 256.570312 104.550781 257.617188 105.035156 C 260.238281 106.253906 261.210938 116.269531 261.953125 126.027344 C 262.191406 138.054688 258.746094 151.558594 251.4375 161.230469 L 246.460938 157.925781 C 242.09375 155.027344 226.898438 144.230469 222.964844 141.308594 C 222.054688 140.632812 220.429688 141.285156 218.433594 143.132812 L 215.324219 146.011719 L 228.5625 161.078125 C 270.511719 208.8125 276.628906 222.5625 274.996094 245.710938 C 272.707031 278.128906 249.410156 303.96875 209.34375 317.414062 C 197.515625 321.386719 173.351562 322.523438 160.714844 319.703125 C 150.855469 317.503906 131.613281 309.398438 123.898438 304.191406 L 118.03125 300.230469 L 117.875 290.660156 C 117.75 283.097656 116.804688 278.425781 113.371094 268.421875 C 107.902344 252.476562 101.070312 234.730469 98.472656 229.714844 L 96.480469 225.867188 L 92.296875 233.285156 L 88.109375 240.707031 L 90.476562 249.4375 C 91.773438 254.238281 94.519531 263.597656 96.574219 270.230469 C 101.515625 286.164062 101.71875 296.554688 97.222656 303.339844 C 88.707031 316.191406 70.875 314.21875 56.160156 298.796875 C 42.601562 284.589844 40.957031 274.449219 49.488281 257.714844 C 55.714844 245.492188 73.03125 217 76.515625 213.234375 C 77.898438 211.742188 80.019531 210.519531 81.234375 210.519531 C 82.445312 210.519531 83.4375 209.734375 83.4375 208.769531 C 83.4375 207.808594 86.222656 201.554688 89.632812 194.871094 C 100.089844 174.382812 116.234375 159.359375 137.757812 150.089844 C 155.625 142.394531 170.675781 140.476562 191.101562 143.296875 C 192.394531 143.472656 195.628906 140.078125 200.15625 133.789062 C 213.609375 115.109375 225.398438 110.792969 234.539062 107.550781 C 241.28125 105.15625 247.519531 104.265625 251.933594 104.25 Z M 209.84375 178.167969 C 207.828125 178.203125 205.710938 178.90625 203.746094 180.453125 C 199.6875 183.640625 199.285156 191.152344 202.976562 194.839844 C 207.421875 199.28125 216.445312 197.085938 218.550781 191.054688 C 221.027344 183.960938 215.890625 178.0625 209.84375 178.167969 Z M 225.707031 206.609375 C 216.117188 206.464844 204.1875 214.332031 202.238281 222.082031 C 201.066406 226.75 202.757812 232.8125 206.109375 235.960938 C 208.46875 238.175781 210.980469 239.011719 216.65625 239.472656 C 223.941406 240.0625 224.117188 240.15625 224.46875 243.785156 C 225.054688 249.777344 221.511719 253.007812 213.636719 253.660156 C 208.988281 254.046875 205.867188 253.628906 203.234375 252.269531 C 198.003906 249.566406 196.941406 249.816406 196.941406 253.738281 C 196.941406 257.679688 200.800781 261.703125 205.695312 262.859375 C 207.519531 263.289062 209.015625 264.226562 209.015625 264.945312 C 209.015625 271.125 217.792969 279.453125 226.527344 281.5625 C 232.699219 283.050781 238.558594 282.179688 244.589844 278.878906 C 254.78125 273.300781 257.554688 263.214844 251.941406 252.140625 L 248.984375 246.304688 L 251.894531 242.851562 C 258.085938 235.503906 258.203125 224.730469 252.101562 224.011719 C 249.066406 223.652344 248.863281 223.929688 248.863281 228.425781 C 248.863281 232.304688 248.148438 233.824219 245.144531 236.347656 C 241.398438 239.5 234.046875 240.667969 232.609375 238.34375 C 232.226562 237.722656 233.546875 234.640625 235.542969 231.496094 C 240.300781 224.003906 241.160156 219.105469 238.65625 213.828125 C 236.207031 208.671875 232.695312 206.714844 225.707031 206.609375 Z M 148.496094 217.761719 C 135.261719 217.773438 126.851562 230.761719 132.453125 242.550781 C 134.808594 247.511719 136.464844 248.9375 142.289062 251.015625 C 148.300781 253.15625 149.546875 253.097656 155.558594 250.371094 C 161.910156 247.492188 165.535156 241.867188 165.542969 234.886719 C 165.550781 224.742188 158.597656 217.753906 148.496094 217.761719 Z M 235.273438 249.789062 C 235.628906 249.71875 236.007812 249.773438 236.433594 249.921875 C 242.320312 252.003906 247.304688 260.019531 245.980469 265.28125 C 245.574219 266.898438 243.414062 269.351562 241.175781 270.734375 C 233.816406 275.277344 224.113281 273.269531 219.136719 266.171875 C 217.683594 264.097656 217.636719 263.476562 218.902344 263.074219 C 219.773438 262.800781 222.566406 261.933594 225.113281 261.152344 C 228.890625 259.988281 230.148438 258.761719 232.003906 254.441406 C 233.339844 251.328125 234.207031 250.003906 235.273438 249.789062 Z M 235.273438 249.789062 " fill-opacity="1" fill-rule="nonzero"/><g fill="#000000" fill-opacity="1"><g transform="translate(585.738391, 300.813315)"><g><path d="M 38.90625 0 L 4.625 -129.65625 L 30.015625 -129.65625 L 53.34375 -26.484375 L 80.765625 -129.65625 L 106.875 -129.65625 L 133.546875 -26.484375 L 156.890625 -129.65625 L 182.453125 -129.65625 L 147.265625 0 L 119.109375 0 L 93.359375 -96.140625 L 66.875 0 Z M 38.90625 0 "/></g></g></g><g fill="#000000" fill-opacity="1"><g transform="translate(772.817592, 300.813315)"><g><path d="M 56.125 2.21875 C 47.238281 2.21875 39.242188 0.179688 32.140625 -3.890625 C 25.035156 -7.960938 19.414062 -13.609375 15.28125 -20.828125 C 11.144531 -28.054688 9.078125 -36.425781 9.078125 -45.9375 C 9.078125 -55.445312 11.175781 -63.8125 15.375 -71.03125 C 19.570312 -78.257812 25.21875 -83.910156 32.3125 -87.984375 C 39.414062 -92.054688 47.414062 -94.09375 56.3125 -94.09375 C 65.082031 -94.09375 73.015625 -92.054688 80.109375 -87.984375 C 87.210938 -83.910156 92.832031 -78.257812 96.96875 -71.03125 C 101.101562 -63.8125 103.171875 -55.445312 103.171875 -45.9375 C 103.171875 -36.425781 101.101562 -28.054688 96.96875 -20.828125 C 92.832031 -13.609375 87.179688 -7.960938 80.015625 -3.890625 C 72.859375 0.179688 64.894531 2.21875 56.125 2.21875 Z M 56.125 -18.34375 C 62.300781 -18.34375 67.671875 -20.65625 72.234375 -25.28125 C 76.804688 -29.914062 79.09375 -36.800781 79.09375 -45.9375 C 79.09375 -55.070312 76.804688 -61.953125 72.234375 -66.578125 C 67.671875 -71.210938 62.363281 -73.53125 56.3125 -73.53125 C 50.007812 -73.53125 44.601562 -71.210938 40.09375 -66.578125 C 35.59375 -61.953125 33.34375 -55.070312 33.34375 -45.9375 C 33.34375 -36.800781 35.59375 -29.914062 40.09375 -25.28125 C 44.601562 -20.65625 49.945312 -18.34375 56.125 -18.34375 Z M 56.125 -18.34375 "/></g></g></g><g fill="#000000" fill-opacity="1"><g transform="translate(885.065095, 300.813315)"><g><path d="M 12.046875 0 L 12.046875 -91.875 L 33.15625 -91.875 L 35.375 -74.65625 C 38.707031 -80.582031 43.242188 -85.300781 48.984375 -88.8125 C 54.734375 -92.332031 61.5 -94.09375 69.28125 -94.09375 L 69.28125 -69.09375 L 62.609375 -69.09375 C 57.421875 -69.09375 52.789062 -68.289062 48.71875 -66.6875 C 44.644531 -65.082031 41.460938 -62.300781 39.171875 -58.34375 C 36.890625 -54.394531 35.75 -48.898438 35.75 -41.859375 L 35.75 0 Z M 12.046875 0 "/></g></g></g><g fill="#000000" fill-opacity="1"><g transform="translate(958.414958, 300.813315)"><g><path d="M 12.046875 0 L 12.046875 -133.375 L 35.75 -133.375 L 35.75 -54.640625 L 68.34375 -91.875 L 96.5 -91.875 L 58.90625 -50.015625 L 102.625 0 L 72.984375 0 L 35.75 -46.125 L 35.75 0 Z M 12.046875 0 "/></g></g></g><g fill="#000000" fill-opacity="1"><g transform="translate(1063.62387, 300.813315)"><g><path d="M 16.296875 0 L 16.296875 -72.0625 L 3.703125 -72.0625 L 3.703125 -91.875 L 16.296875 -91.875 L 16.296875 -102.625 C 16.296875 -113.738281 19.101562 -121.640625 24.71875 -126.328125 C 30.34375 -131.023438 37.972656 -133.375 47.609375 -133.375 L 57.796875 -133.375 L 57.796875 -113.171875 L 51.3125 -113.171875 C 47.238281 -113.171875 44.335938 -112.367188 42.609375 -110.765625 C 40.878906 -109.160156 40.015625 -106.445312 40.015625 -102.625 L 40.015625 -91.875 L 59.828125 -91.875 L 59.828125 -72.0625 L 40.015625 -72.0625 L 40.015625 0 Z M 16.296875 0 "/></g></g></g><g fill="#000000" fill-opacity="1"><g transform="translate(1130.120343, 300.813315)"><g><path d="M 12.046875 0 L 12.046875 -133.375 L 35.75 -133.375 L 35.75 0 Z M 12.046875 0 "/></g></g></g><g fill="#000000" fill-opacity="1"><g transform="translate(1178.094143, 300.813315)"><g><path d="M 56.125 2.21875 C 47.238281 2.21875 39.242188 0.179688 32.140625 -3.890625 C 25.035156 -7.960938 19.414062 -13.609375 15.28125 -20.828125 C 11.144531 -28.054688 9.078125 -36.425781 9.078125 -45.9375 C 9.078125 -55.445312 11.175781 -63.8125 15.375 -71.03125 C 19.570312 -78.257812 25.21875 -83.910156 32.3125 -87.984375 C 39.414062 -92.054688 47.414062 -94.09375 56.3125 -94.09375 C 65.082031 -94.09375 73.015625 -92.054688 80.109375 -87.984375 C 87.210938 -83.910156 92.832031 -78.257812 96.96875 -71.03125 C 101.101562 -63.8125 103.171875 -55.445312 103.171875 -45.9375 C 103.171875 -36.425781 101.101562 -28.054688 96.96875 -20.828125 C 92.832031 -13.609375 87.179688 -7.960938 80.015625 -3.890625 C 72.859375 0.179688 64.894531 2.21875 56.125 2.21875 Z M 56.125 -18.34375 C 62.300781 -18.34375 67.671875 -20.65625 72.234375 -25.28125 C 76.804688 -29.914062 79.09375 -36.800781 79.09375 -45.9375 C 79.09375 -55.070312 76.804688 -61.953125 72.234375 -66.578125 C 67.671875 -71.210938 62.363281 -73.53125 56.3125 -73.53125 C 50.007812 -73.53125 44.601562 -71.210938 40.09375 -66.578125 C 35.59375 -61.953125 33.34375 -55.070312 33.34375 -45.9375 C 33.34375 -36.800781 35.59375 -29.914062 40.09375 -25.28125 C 44.601562 -20.65625 49.945312 -18.34375 56.125 -18.34375 Z M 56.125 -18.34375 "/></g></g></g><g fill="#000000" fill-opacity="1"><g transform="translate(1290.341646, 300.813315)"><g><path d="M 30.015625 0 L 3.15625 -91.875 L 26.671875 -91.875 L 42.609375 -25.75 L 61.125 -91.875 L 87.4375 -91.875 L 105.953125 -25.75 L 122.0625 -91.875 L 145.59375 -91.875 L 118.546875 0 L 93.90625 0 L 74.28125 -68.71875 L 54.640625 0 Z M 30.015625 0 "/></g></g></g><g fill="#000000" fill-opacity="1"><g transform="translate(1438.893685, 300.813315)"><g><path d="M 12.59375 0 L 12.59375 -129.65625 L 56.859375 -129.65625 C 72.054688 -129.65625 84.5625 -126.96875 94.375 -121.59375 C 104.195312 -116.226562 111.484375 -108.695312 116.234375 -99 C 120.984375 -89.3125 123.359375 -77.921875 123.359375 -64.828125 C 123.359375 -51.742188 120.984375 -40.351562 116.234375 -30.65625 C 111.484375 -20.957031 104.195312 -13.421875 94.375 -8.046875 C 84.5625 -2.679688 72.054688 0 56.859375 0 Z M 36.3125 -20.375 L 55.75 -20.375 C 66.625 -20.375 75.207031 -22.132812 81.5 -25.65625 C 87.800781 -29.175781 92.304688 -34.238281 95.015625 -40.84375 C 97.734375 -47.445312 99.09375 -55.441406 99.09375 -64.828125 C 99.09375 -74.085938 97.734375 -82.050781 95.015625 -88.71875 C 92.304688 -95.394531 87.800781 -100.519531 81.5 -104.09375 C 75.207031 -107.675781 66.625 -109.46875 55.75 -109.46875 L 36.3125 -109.46875 Z M 36.3125 -20.375 "/></g></g></g><g fill="#000000" fill-opacity="1"><g transform="translate(1570.590069, 300.813315)"><g><path d="M 56.125 2.21875 C 47.238281 2.21875 39.242188 0.179688 32.140625 -3.890625 C 25.035156 -7.960938 19.414062 -13.609375 15.28125 -20.828125 C 11.144531 -28.054688 9.078125 -36.425781 9.078125 -45.9375 C 9.078125 -55.445312 11.175781 -63.8125 15.375 -71.03125 C 19.570312 -78.257812 25.21875 -83.910156 32.3125 -87.984375 C 39.414062 -92.054688 47.414062 -94.09375 56.3125 -94.09375 C 65.082031 -94.09375 73.015625 -92.054688 80.109375 -87.984375 C 87.210938 -83.910156 92.832031 -78.257812 96.96875 -71.03125 C 101.101562 -63.8125 103.171875 -55.445312 103.171875 -45.9375 C 103.171875 -36.425781 101.101562 -28.054688 96.96875 -20.828125 C 92.832031 -13.609375 87.179688 -7.960938 80.015625 -3.890625 C 72.859375 0.179688 64.894531 2.21875 56.125 2.21875 Z M 56.125 -18.34375 C 62.300781 -18.34375 67.671875 -20.65625 72.234375 -25.28125 C 76.804688 -29.914062 79.09375 -36.800781 79.09375 -45.9375 C 79.09375 -55.070312 76.804688 -61.953125 72.234375 -66.578125 C 67.671875 -71.210938 62.363281 -73.53125 56.3125 -73.53125 C 50.007812 -73.53125 44.601562 -71.210938 40.09375 -66.578125 C 35.59375 -61.953125 33.34375 -55.070312 33.34375 -45.9375 C 33.34375 -36.800781 35.59375 -29.914062 40.09375 -25.28125 C 44.601562 -20.65625 49.945312 -18.34375 56.125 -18.34375 Z M 56.125 -18.34375 "/></g></g></g><g fill="#000000" fill-opacity="1"><g transform="translate(1682.837621, 300.813315)"><g><path d="M 50.9375 -27.421875 C 46.488281 -27.421875 42.351562 -27.910156 38.53125 -28.890625 L 31.671875 -22.046875 C 33.773438 -20.929688 36.613281 -20.003906 40.1875 -19.265625 C 43.769531 -18.523438 49.578125 -17.785156 57.609375 -17.046875 C 69.835938 -15.929688 78.726562 -13.023438 84.28125 -8.328125 C 89.832031 -3.640625 92.609375 2.835938 92.609375 11.109375 C 92.609375 16.546875 91.125 21.703125 88.15625 26.578125 C 85.195312 31.453125 80.628906 35.398438 74.453125 38.421875 C 68.285156 41.453125 60.382812 42.96875 50.75 42.96875 C 37.664062 42.96875 27.109375 40.53125 19.078125 35.65625 C 11.046875 30.78125 7.03125 23.460938 7.03125 13.703125 C 7.03125 5.429688 11.046875 -1.726562 19.078125 -7.78125 C 16.609375 -8.894531 14.476562 -10.066406 12.6875 -11.296875 C 10.894531 -12.535156 9.320312 -13.832031 7.96875 -15.1875 L 7.96875 -19.453125 L 24.078125 -36.484375 C 16.921875 -42.785156 13.34375 -50.875 13.34375 -60.75 C 13.34375 -66.925781 14.851562 -72.546875 17.875 -77.609375 C 20.894531 -82.671875 25.179688 -86.679688 30.734375 -89.640625 C 36.296875 -92.609375 43.03125 -94.09375 50.9375 -94.09375 C 56.125 -94.09375 60.941406 -93.351562 65.390625 -91.875 L 100.21875 -91.875 L 100.21875 -77.421875 L 84.46875 -76.3125 C 86.9375 -71.625 88.171875 -66.4375 88.171875 -60.75 C 88.171875 -54.582031 86.6875 -48.96875 83.71875 -43.90625 C 80.757812 -38.84375 76.46875 -34.828125 70.84375 -31.859375 C 65.226562 -28.898438 58.59375 -27.421875 50.9375 -27.421875 Z M 50.9375 -45.5625 C 55.75 -45.5625 59.726562 -46.859375 62.875 -49.453125 C 66.03125 -52.046875 67.609375 -55.753906 67.609375 -60.578125 C 67.609375 -65.390625 66.03125 -69.09375 62.875 -71.6875 C 59.726562 -74.28125 55.75 -75.578125 50.9375 -75.578125 C 45.875 -75.578125 41.796875 -74.28125 38.703125 -71.6875 C 35.617188 -69.09375 34.078125 -65.390625 34.078125 -60.578125 C 34.078125 -55.753906 35.617188 -52.046875 38.703125 -49.453125 C 41.796875 -46.859375 45.875 -45.5625 50.9375 -45.5625 Z M 28.71875 11.296875 C 28.71875 15.867188 30.847656 19.296875 35.109375 21.578125 C 39.367188 23.859375 44.582031 25 50.75 25 C 56.675781 25 61.492188 23.796875 65.203125 21.390625 C 68.910156 18.984375 70.765625 15.742188 70.765625 11.671875 C 70.765625 8.335938 69.554688 5.554688 67.140625 3.328125 C 64.734375 1.109375 59.953125 -0.242188 52.796875 -0.734375 C 47.734375 -1.109375 43.039062 -1.664062 38.71875 -2.40625 C 35.132812 -0.425781 32.570312 1.734375 31.03125 4.078125 C 29.488281 6.421875 28.71875 8.828125 28.71875 11.296875 Z M 28.71875 11.296875 "/></g></g></g><g fill="#6d28d9" fill-opacity="1"><g transform="translate(585.738391, 104.689644)"><g><path d="M 5.84375 0 L 5.84375 -60.171875 L 16.84375 -60.171875 L 16.84375 -8.59375 L 43.5 -8.59375 L 43.5 0 Z M 5.84375 0 "/></g></g></g><g fill="#6d28d9" fill-opacity="1"><g transform="translate(649.435084, 104.689644)"><g><path d="M 5.84375 0 L 5.84375 -60.171875 L 45.140625 -60.171875 L 45.140625 -51.328125 L 16.84375 -51.328125 L 16.84375 -34.8125 L 42.546875 -34.8125 L 42.546875 -26.21875 L 16.84375 -26.21875 L 16.84375 -8.859375 L 45.140625 -8.859375 L 45.140625 0 Z M 5.84375 0 "/></g></g></g><g fill="#6d28d9" fill-opacity="1"><g transform="translate(715.452657, 104.689644)"><g><path d="M 1.984375 0 L 23.984375 -60.171875 L 36.359375 -60.171875 L 58.375 0 L 46.6875 0 L 41.859375 -13.921875 L 18.390625 -13.921875 L 13.5 0 Z M 21.40625 -22.53125 L 38.859375 -22.53125 L 30.09375 -47.546875 Z M 21.40625 -22.53125 "/></g></g></g><g fill="#6d28d9" fill-opacity="1"><g transform="translate(792.043103, 104.689644)"><g><path d="M 5.84375 0 L 5.84375 -60.171875 L 27.9375 -60.171875 C 32.75 -60.171875 36.71875 -59.351562 39.84375 -57.71875 C 42.96875 -56.09375 45.300781 -53.890625 46.84375 -51.109375 C 48.394531 -48.328125 49.171875 -45.242188 49.171875 -41.859375 C 49.171875 -38.191406 48.210938 -34.835938 46.296875 -31.796875 C 44.378906 -28.765625 41.382812 -26.5625 37.3125 -25.1875 L 49.78125 0 L 37.140625 0 L 25.96875 -23.734375 L 16.84375 -23.734375 L 16.84375 0 Z M 16.84375 -31.8125 L 27.25 -31.8125 C 30.914062 -31.8125 33.609375 -32.695312 35.328125 -34.46875 C 37.046875 -36.25 37.90625 -38.597656 37.90625 -41.515625 C 37.90625 -44.390625 37.0625 -46.6875 35.375 -48.40625 C 33.6875 -50.125 30.953125 -50.984375 27.171875 -50.984375 L 16.84375 -50.984375 Z M 16.84375 -31.8125 "/></g></g></g><g fill="#6d28d9" fill-opacity="1"><g transform="translate(861.9288, 104.689644)"><g><path d="M 5.84375 0 L 5.84375 -60.171875 L 16.84375 -60.171875 L 45.140625 -17.796875 L 45.140625 -60.171875 L 56.140625 -60.171875 L 56.140625 0 L 45.140625 0 L 16.84375 -42.296875 L 16.84375 0 Z M 5.84375 0 "/></g></g></g></svg>