<svg xmlns="http://www.w3.org/2000/svg" xmlns:xlink="http://www.w3.org/1999/xlink" width="3000" zoomAndPan="magnify" viewBox="0 0 2250 374.999991" height="500" preserveAspectRatio="xMidYMid meet" version="1.0"><defs><g/><clipPath id="5437290e2b"><path d="M 236 0 L 566.25 0 L 566.25 351 L 236 351 Z M 236 0 " clip-rule="nonzero"/></clipPath><clipPath id="c250849dde"><path d="M 354 13 L 566.25 13 L 566.25 319 L 354 319 Z M 354 13 " clip-rule="nonzero"/></clipPath></defs><g clip-path="url(#5437290e2b)"><path stroke-linecap="butt" transform="matrix(1.515296, 0, 0, 1.51539, -417.797154, -388.32182)" fill="none" stroke-linejoin="miter" d="M 499.850896 304.300702 L 611.27971 368.21524 L 530.965894 419.934591 Z M 499.850896 304.300702 " stroke="#ffffff" stroke-width="12" stroke-opacity="1" stroke-miterlimit="4"/></g><path stroke-linecap="butt" transform="matrix(1.515296, 0, 0, 1.51539, -417.797154, -388.32182)" fill-opacity="1" fill="#7950f2" fill-rule="nonzero" stroke-linejoin="miter" d="M 543.582033 305.141038 C 543.582033 305.842178 543.563988 306.543317 543.530476 307.244457 C 543.496963 307.945596 543.445406 308.646736 543.375803 309.345298 C 543.3062 310.04386 543.22113 310.739844 543.118015 311.43325 C 543.0149 312.129234 542.893739 312.820063 542.757112 313.508314 C 542.620484 314.196565 542.468389 314.882238 542.295672 315.562756 C 542.125532 316.243273 541.939924 316.918636 541.736272 317.59142 C 541.532619 318.264205 541.310922 318.929256 541.073757 319.589152 C 540.83917 320.251626 540.586538 320.906367 540.318438 321.553374 C 540.047761 322.202959 539.764195 322.844811 539.465161 323.47893 C 539.163549 324.113049 538.849048 324.739435 538.516501 325.358087 C 538.186533 325.979317 537.841097 326.587659 537.480194 327.190845 C 537.119291 327.794031 536.74292 328.386907 536.353661 328.969471 C 535.964401 329.552036 535.559674 330.126867 535.142058 330.691387 C 534.724441 331.25333 534.291358 331.80754 533.845385 332.348861 C 533.401989 332.892759 532.943127 333.423769 532.471375 333.944468 C 531.999623 334.465168 531.514982 334.972978 531.020029 335.4679 C 530.522499 335.9654 530.014657 336.450011 529.496503 336.919156 C 528.975771 337.390879 528.444728 337.849713 527.900796 338.295658 C 527.359441 338.741603 526.805197 339.172082 526.240642 339.589673 C 525.678664 340.009841 525.103797 340.411965 524.521197 340.803778 C 523.936018 341.193014 523.343106 341.566783 522.74246 341.927664 C 522.139237 342.288544 521.528279 342.636536 520.909588 342.966484 C 520.290898 343.296432 519.664473 343.613492 519.030315 343.912507 C 518.396157 344.2141 517.754265 344.497649 517.104639 344.765732 C 516.457592 345.033815 515.80281 345.286431 515.140296 345.523581 C 514.480359 345.760732 513.815266 345.979838 513.142439 346.183477 C 512.469613 346.387117 511.794209 346.575291 511.113649 346.74542 C 510.433089 346.91555 509.747373 347.070213 509.059079 347.206832 C 508.370786 347.343451 507.679914 347.464604 506.986465 347.567712 C 506.290437 347.670821 505.59441 347.755886 504.895805 347.825484 C 504.1972 347.892505 503.498595 347.944059 502.797412 347.980147 C 502.096229 348.013658 501.395045 348.031702 500.691285 348.031702 C 499.990101 348.031702 499.288918 348.013658 498.587735 347.980147 C 497.886552 347.944059 497.185369 347.892505 496.489342 347.825484 C 495.790737 347.755886 495.092132 347.670821 494.398682 347.567712 C 493.705233 347.464604 493.011783 347.343451 492.32349 347.206832 C 491.635196 347.070213 490.952058 346.91555 490.271498 346.74542 C 489.590938 346.575291 488.912956 346.387117 488.242707 346.183477 C 487.569881 345.979838 486.904788 345.760732 486.242273 345.523581 C 485.582337 345.286431 484.927555 345.033815 484.27793 344.765732 C 483.630882 344.497649 482.98899 344.2141 482.354832 343.912507 C 481.720674 343.613492 481.091672 343.296432 480.472981 342.966484 C 479.85429 342.636536 479.243332 342.288544 478.642687 341.927664 C 478.039463 341.566783 477.446551 341.193014 476.86395 340.803778 C 476.278772 340.411965 475.706483 340.009841 475.141927 339.589673 C 474.577372 339.172082 474.025706 338.741603 473.481773 338.295658 C 472.940419 337.849713 472.409375 337.390879 471.888644 336.919156 C 471.367912 336.450011 470.86007 335.9654 470.365118 335.4679 C 469.867587 334.972978 469.382946 334.465168 468.913772 333.944468 C 468.44202 333.423769 467.983157 332.892759 467.537184 332.348861 C 467.091211 331.80754 466.660706 331.25333 466.243089 330.691387 C 465.825473 330.126867 465.420746 329.552036 465.031486 328.969471 C 464.639649 328.386907 464.265856 327.794031 463.904953 327.190845 C 463.54405 326.587659 463.196036 325.979317 462.866068 325.358087 C 462.536099 324.739435 462.21902 324.113049 461.919986 323.47893 C 461.620952 322.844811 461.334808 322.202959 461.066708 321.553374 C 460.798609 320.906367 460.545977 320.251626 460.308812 319.589152 C 460.071647 318.929256 459.852528 318.264205 459.648875 317.59142 C 459.445223 316.918636 459.257038 316.243273 459.086898 315.562756 C 458.916758 314.882238 458.762085 314.196565 458.625457 313.508314 C 458.48883 312.820063 458.370247 312.129234 458.267132 311.43325 C 458.164017 310.739844 458.076369 310.04386 458.009344 309.345298 C 457.939741 308.646736 457.888184 307.945596 457.854671 307.244457 C 457.818581 306.543317 457.803114 305.842178 457.803114 305.141038 C 457.803114 304.439899 457.818581 303.738759 457.854671 303.03762 C 457.888184 302.33648 457.939741 301.635341 458.009344 300.936779 C 458.076369 300.238217 458.164017 299.542233 458.267132 298.848827 C 458.370247 298.152843 458.48883 297.462014 458.625457 296.773763 C 458.762085 296.085512 458.916758 295.399839 459.086898 294.719321 C 459.257038 294.038803 459.445223 293.363441 459.648875 292.690656 C 459.852528 292.017872 460.071647 291.35282 460.308812 290.692924 C 460.545977 290.030451 460.798609 289.37571 461.066708 288.728703 C 461.334808 288.079117 461.620952 287.437265 461.919986 286.803147 C 462.21902 286.169028 462.536099 285.542642 462.866068 284.92399 C 463.196036 284.302759 463.54405 283.694418 463.904953 283.091232 C 464.265856 282.488045 464.639649 281.89517 465.031486 281.312606 C 465.420746 280.730041 465.825473 280.15521 466.243089 279.590689 C 466.660706 279.028747 467.091211 278.474537 467.537184 277.930638 C 467.983157 277.389317 468.44202 276.858307 468.913772 276.337608 C 469.382946 275.816909 469.867587 275.309098 470.365118 274.814176 C 470.86007 274.316677 471.367912 273.832066 471.888644 273.360343 C 472.409375 272.891198 472.940419 272.432364 473.481773 271.986419 C 474.025706 271.540473 474.577372 271.109994 475.141927 270.692404 C 475.706483 270.272236 476.278772 269.870112 476.86395 269.478298 C 477.446551 269.089063 478.039463 268.712716 478.642687 268.351835 C 479.243332 267.990955 479.85429 267.64554 480.472981 267.315592 C 481.091672 266.985644 481.720674 266.668585 482.354832 266.36957 C 482.98899 266.067976 483.630882 265.784427 484.27793 265.516345 C 484.927555 265.248262 485.582337 264.995645 486.242273 264.758495 C 486.904788 264.521345 487.569881 264.302239 488.242707 264.098599 C 488.912956 263.894959 489.590938 263.706786 490.271498 263.536657 C 490.952058 263.366527 491.635196 263.211864 492.32349 263.075245 C 493.011783 262.938626 493.705233 262.817473 494.398682 262.714364 C 495.092132 262.611255 495.790737 262.526191 496.489342 262.456592 C 497.185369 262.389572 497.886552 262.338017 498.587735 262.301929 C 499.288918 262.268419 499.990101 262.250375 500.691285 262.250375 C 501.395045 262.250375 502.096229 262.268419 502.797412 262.301929 C 503.498595 262.338017 504.1972 262.389572 504.895805 262.456592 C 505.59441 262.526191 506.290437 262.611255 506.986465 262.714364 C 507.679914 262.817473 508.370786 262.938626 509.059079 263.075245 C 509.747373 263.211864 510.433089 263.366527 511.113649 263.536657 C 511.794209 263.706786 512.469613 263.894959 513.142439 264.098599 C 513.815266 264.302239 514.480359 264.521345 515.140296 264.758495 C 515.80281 264.995645 516.457592 265.248262 517.104639 265.516345 C 517.754265 265.784427 518.396157 266.067976 519.030315 266.36957 C 519.664473 266.668585 520.290898 266.985644 520.909588 267.315592 C 521.528279 267.64554 522.139237 267.990955 522.74246 268.351835 C 523.343106 268.712716 523.936018 269.089063 524.521197 269.478298 C 525.103797 269.870112 525.678664 270.272236 526.240642 270.692404 C 526.805197 271.109994 527.359441 271.540473 527.900796 271.986419 C 528.444728 272.432364 528.975771 272.891198 529.496503 273.360343 C 530.014657 273.832066 530.522499 274.316677 531.020029 274.814176 C 531.514982 275.309098 531.999623 275.816909 532.471375 276.337608 C 532.943127 276.858307 533.401989 277.389317 533.845385 277.930638 C 534.291358 278.474537 534.724441 279.028747 535.142058 279.590689 C 535.559674 280.15521 535.964401 280.730041 536.353661 281.312606 C 536.74292 281.89517 537.119291 282.488045 537.480194 283.091232 C 537.841097 283.694418 538.186533 284.302759 538.516501 284.92399 C 538.849048 285.542642 539.163549 286.169028 539.465161 286.803147 C 539.764195 287.437265 540.047761 288.079117 540.318438 288.728703 C 540.586538 289.37571 540.83917 290.030451 541.073757 290.692924 C 541.310922 291.35282 541.532619 292.017872 541.736272 292.690656 C 541.939924 293.363441 542.125532 294.038803 542.295672 294.719321 C 542.468389 295.399839 542.620484 296.085512 542.757112 296.773763 C 542.893739 297.462014 543.0149 298.152843 543.118015 298.848827 C 543.22113 299.542233 543.3062 300.238217 543.375803 300.936779 C 543.445406 301.635341 543.496963 302.33648 543.530476 303.03762 C 543.563988 303.738759 543.582033 304.439899 543.582033 305.141038 Z M 543.582033 305.141038 " stroke="#ffffff" stroke-width="12" stroke-opacity="1" stroke-miterlimit="4"/><path fill="#fcc419" d="M 556.257812 165.84375 C 556.257812 167.46875 556.179688 169.09375 556.019531 170.714844 C 555.859375 172.335938 555.621094 173.941406 555.304688 175.539062 C 554.988281 177.136719 554.59375 178.710938 554.121094 180.269531 C 553.648438 181.828125 553.097656 183.359375 552.476562 184.863281 C 551.851562 186.367188 551.160156 187.835938 550.390625 189.273438 C 549.625 190.707031 548.789062 192.101562 547.882812 193.457031 C 546.980469 194.808594 546.011719 196.113281 544.976562 197.375 C 543.945312 198.632812 542.855469 199.835938 541.703125 200.988281 C 540.550781 202.136719 539.347656 203.230469 538.089844 204.261719 C 536.832031 205.296875 535.523438 206.265625 534.171875 207.167969 C 532.820312 208.074219 531.425781 208.910156 529.988281 209.675781 C 528.554688 210.441406 527.082031 211.136719 525.578125 211.761719 C 524.074219 212.382812 522.546875 212.933594 520.988281 213.40625 C 519.429688 213.875 517.851562 214.273438 516.257812 214.589844 C 514.660156 214.90625 513.050781 215.144531 511.433594 215.304688 C 509.8125 215.464844 508.1875 215.542969 506.5625 215.542969 C 504.933594 215.542969 503.308594 215.464844 501.691406 215.304688 C 500.070312 215.144531 498.460938 214.90625 496.863281 214.589844 C 495.269531 214.273438 493.691406 213.875 492.132812 213.40625 C 490.578125 212.933594 489.046875 212.382812 487.542969 211.761719 C 486.039062 211.136719 484.570312 210.441406 483.132812 209.675781 C 481.699219 208.910156 480.304688 208.074219 478.949219 207.167969 C 477.597656 206.265625 476.289062 205.296875 475.03125 204.261719 C 473.773438 203.230469 472.570312 202.136719 471.417969 200.988281 C 470.269531 199.835938 469.175781 198.632812 468.144531 197.375 C 467.109375 196.113281 466.140625 194.808594 465.238281 193.457031 C 464.332031 192.101562 463.496094 190.707031 462.730469 189.273438 C 461.964844 187.835938 461.269531 186.367188 460.644531 184.863281 C 460.023438 183.359375 459.476562 181.828125 459.003906 180.269531 C 458.53125 178.710938 458.132812 177.136719 457.816406 175.539062 C 457.5 173.941406 457.261719 172.335938 457.101562 170.714844 C 456.941406 169.09375 456.863281 167.46875 456.863281 165.84375 C 456.863281 164.214844 456.941406 162.589844 457.101562 160.972656 C 457.261719 159.351562 457.5 157.742188 457.816406 156.144531 C 458.132812 154.550781 458.53125 152.972656 459.003906 151.414062 C 459.476562 149.855469 460.023438 148.328125 460.644531 146.824219 C 461.269531 145.320312 461.964844 143.847656 462.730469 142.414062 C 463.496094 140.976562 464.332031 139.582031 465.238281 138.230469 C 466.140625 136.875 467.109375 135.570312 468.144531 134.3125 C 469.175781 133.054688 470.269531 131.847656 471.417969 130.699219 C 472.570312 129.546875 473.773438 128.457031 475.03125 127.421875 C 476.289062 126.390625 477.597656 125.421875 478.949219 124.515625 C 480.304688 123.613281 481.699219 122.777344 483.132812 122.007812 C 484.570312 121.242188 486.039062 120.546875 487.542969 119.925781 C 489.046875 119.300781 490.578125 118.753906 492.132812 118.28125 C 493.691406 117.808594 495.269531 117.414062 496.863281 117.097656 C 498.460938 116.777344 500.070312 116.539062 501.691406 116.378906 C 503.308594 116.222656 504.933594 116.140625 506.5625 116.140625 C 508.1875 116.140625 509.8125 116.222656 511.433594 116.378906 C 513.050781 116.539062 514.660156 116.777344 516.257812 117.097656 C 517.851562 117.414062 519.429688 117.808594 520.988281 118.28125 C 522.546875 118.753906 524.074219 119.300781 525.578125 119.925781 C 527.082031 120.546875 528.554688 121.242188 529.988281 122.007812 C 531.425781 122.777344 532.820312 123.613281 534.171875 124.515625 C 535.523438 125.421875 536.832031 126.390625 538.089844 127.421875 C 539.347656 128.457031 540.550781 129.546875 541.703125 130.699219 C 542.855469 131.847656 543.945312 133.054688 544.976562 134.3125 C 546.011719 135.570312 546.980469 136.875 547.882812 138.230469 C 548.789062 139.582031 549.625 140.976562 550.390625 142.414062 C 551.160156 143.847656 551.851562 145.320312 552.476562 146.824219 C 553.097656 148.328125 553.648438 149.855469 554.121094 151.414062 C 554.59375 152.972656 554.988281 154.550781 555.304688 156.144531 C 555.621094 157.742188 555.859375 159.351562 556.019531 160.972656 C 556.179688 162.589844 556.257812 164.214844 556.257812 165.84375 Z M 556.257812 165.84375 " fill-opacity="1" fill-rule="nonzero"/><g clip-path="url(#c250849dde)"><path stroke-linecap="butt" transform="matrix(1.515296, 0, 0, 1.51539, -417.797154, -388.32182)" fill="none" stroke-linejoin="miter" d="M 642.814902 365.691654 C 642.814902 366.763985 642.763345 367.836316 642.657652 368.906069 C 642.551959 369.975822 642.394708 371.035265 642.1859 372.089552 C 641.977092 373.143839 641.716726 374.182659 641.404802 375.211169 C 641.092879 376.239679 640.729398 377.250145 640.319515 378.242566 C 639.907055 379.234988 639.45077 380.204211 638.942928 381.152811 C 638.437664 382.098834 637.885998 383.019079 637.28793 383.913548 C 636.69244 384.805439 636.053126 385.666397 635.369988 386.499 C 634.689428 387.329025 633.9702 388.122963 633.209726 388.88339 C 632.449251 389.641239 631.655265 390.363 630.825188 391.043518 C 629.995111 391.726614 629.131521 392.365888 628.239575 392.961341 C 627.347629 393.559372 626.427326 394.111004 625.478667 394.616236 C 624.532585 395.121469 623.560725 395.580303 622.568242 395.992738 C 621.575758 396.402596 620.567808 396.766054 619.539234 397.077958 C 618.51066 397.387284 617.469197 397.650212 616.417423 397.859007 C 615.36307 398.067802 614.300984 398.225043 613.233742 398.330729 C 612.163922 398.436416 611.091525 398.48797 610.019127 398.48797 C 608.944152 398.48797 607.871754 398.436416 606.804512 398.330729 C 605.734693 398.225043 604.672606 398.067802 603.618254 397.859007 C 602.566479 397.650212 601.525016 397.387284 600.496443 397.077958 C 599.470447 396.766054 598.459918 396.402596 597.467435 395.992738 C 596.474952 395.580303 595.505669 395.121469 594.55701 394.616236 C 593.610928 394.111004 592.690626 393.559372 591.796102 392.961341 C 590.904155 392.365888 590.040566 391.726614 589.210489 391.043518 C 588.380412 390.363 587.586425 389.641239 586.825951 388.88339 C 586.068055 388.122963 585.346249 387.329025 584.665689 386.499 C 583.982551 385.666397 583.343237 384.805439 582.747747 383.913548 C 582.149679 383.019079 581.598013 382.098834 581.092748 381.152811 C 580.587484 380.204211 580.128622 379.234988 579.716161 378.242566 C 579.306278 377.250145 578.945375 376.239679 578.633452 375.211169 C 578.321529 374.182659 578.058585 373.143839 577.849777 372.089552 C 577.640969 371.035265 577.483718 369.975822 577.378025 368.906069 C 577.272332 367.836316 577.220774 366.763985 577.220774 365.691654 C 577.220774 364.616745 577.272332 363.544414 577.378025 362.477238 C 577.483718 361.407485 577.640969 360.345465 577.849777 359.291178 C 578.058585 358.239468 578.321529 357.19807 578.633452 356.16956 C 578.945375 355.14105 579.306278 354.133162 579.716161 353.140741 C 580.128622 352.148319 580.587484 351.176519 581.092748 350.230496 C 581.598013 349.281895 582.149679 348.36165 582.747747 347.469759 C 583.343237 346.575291 583.982551 345.714333 584.665689 344.884307 C 585.346249 344.054282 586.068055 343.257767 586.825951 342.499917 C 587.586425 341.73949 588.380412 341.020307 589.210489 340.337211 C 590.040566 339.656693 590.904155 339.017419 591.796102 338.419388 C 592.690626 337.823935 593.610928 337.272303 594.55701 336.764493 C 595.505669 336.25926 596.474952 335.800426 597.467435 335.390569 C 598.459918 334.978134 599.470447 334.617253 600.496443 334.305349 C 601.525016 333.993445 602.566479 333.733096 603.618254 333.5243 C 604.672606 333.312927 605.734693 333.155687 606.804512 333.05 C 607.871754 332.946891 608.944152 332.892759 610.019127 332.892759 C 611.091525 332.892759 612.163922 332.946891 613.233742 333.05 C 614.300984 333.155687 615.36307 333.312927 616.417423 333.5243 C 617.469197 333.733096 618.51066 333.993445 619.539234 334.305349 C 620.567808 334.617253 621.575758 334.978134 622.568242 335.390569 C 623.560725 335.800426 624.532585 336.25926 625.478667 336.764493 C 626.427326 337.272303 627.347629 337.823935 628.239575 338.419388 C 629.131521 339.017419 629.995111 339.656693 630.825188 340.337211 C 631.655265 341.020307 632.449251 341.73949 633.209726 342.499917 C 633.9702 343.257767 634.689428 344.054282 635.369988 344.884307 C 636.053126 345.714333 636.69244 346.575291 637.28793 347.469759 C 637.885998 348.36165 638.437664 349.281895 638.942928 350.230496 C 639.45077 351.176519 639.907055 352.148319 640.319515 353.140741 C 640.729398 354.133162 641.092879 355.14105 641.404802 356.16956 C 641.716726 357.19807 641.977092 358.239468 642.1859 359.291178 C 642.394708 360.345465 642.551959 361.407485 642.657652 362.477238 C 642.763345 363.544414 642.814902 364.616745 642.814902 365.691654 Z M 642.814902 365.691654 " stroke="#ffffff" stroke-width="12" stroke-opacity="1" stroke-miterlimit="4"/></g><path stroke-linecap="butt" transform="matrix(1.515296, 0, 0, 1.51539, -417.797154, -388.32182)" fill-opacity="1" fill="#f06595" fill-rule="nonzero" stroke-linejoin="miter" d="M 562.503664 417.831172 C 562.503664 418.836483 562.454684 419.839215 562.354147 420.83937 C 562.256188 421.839525 562.109249 422.834524 561.91333 423.819213 C 561.717411 424.806479 561.472512 425.778279 561.181212 426.742346 C 560.889912 427.703835 560.55221 428.649858 560.165528 429.577837 C 559.781424 430.505816 559.353496 431.413173 558.879166 432.299908 C 558.404837 433.186643 557.889261 434.047601 557.329861 434.88536 C 556.770461 435.720541 556.172393 436.527367 555.535657 437.30326 C 554.898921 438.081731 554.223517 438.824114 553.512023 439.535565 C 552.800528 440.247015 552.058099 440.9198 551.279579 441.559074 C 550.503638 442.195771 549.696762 442.793801 548.861529 443.353166 C 548.026296 443.912531 547.165285 444.428075 546.278494 444.902375 C 545.391704 445.376676 544.484291 445.804577 543.553676 446.188657 C 542.62564 446.575315 541.679559 446.912996 540.71801 447.204278 C 539.756461 447.49556 538.782023 447.740444 537.797273 447.93635 C 536.809945 448.132257 535.817462 448.279187 534.817245 448.37714 C 533.817028 448.477671 532.814233 448.526648 531.80886 448.526648 C 530.803488 448.526648 529.800693 448.477671 528.800476 448.37714 C 527.797681 448.279187 526.805197 448.132257 525.820448 447.93635 C 524.83312 447.740444 523.858682 447.49556 522.897133 447.204278 C 521.935584 446.912996 520.989503 446.575315 520.061466 446.188657 C 519.13343 445.804577 518.226017 445.376676 517.339226 444.902375 C 516.452436 444.428075 515.591424 443.912531 514.753614 443.353166 C 513.918381 442.793801 513.111505 442.195771 512.335563 441.559074 C 511.557044 440.9198 510.814615 440.247015 510.10312 439.535565 C 509.391626 438.824114 508.718799 438.081731 508.079485 437.30326 C 507.442749 436.527367 506.844681 435.720541 506.285282 434.88536 C 505.72846 434.047601 505.210306 433.186643 504.738554 432.299908 C 504.264225 431.413173 503.833719 430.505816 503.449615 429.577837 C 503.065511 428.649858 502.727809 427.703835 502.433931 426.742346 C 502.14263 425.778279 501.897732 424.806479 501.701813 423.819213 C 501.505894 422.834524 501.358955 421.839525 501.260996 420.83937 C 501.163036 419.839215 501.114057 418.836483 501.114057 417.831172 C 501.114057 416.825862 501.163036 415.823129 501.260996 414.822974 C 501.358955 413.822819 501.505894 412.82782 501.701813 411.843131 C 501.897732 410.855865 502.14263 409.881487 502.433931 408.919998 C 502.727809 407.958509 503.065511 407.012486 503.449615 406.084507 C 503.833719 405.156529 504.264225 404.249172 504.738554 403.362436 C 505.210306 402.475701 505.72846 401.614743 506.285282 400.776984 C 506.844681 399.941804 507.442749 399.134978 508.079485 398.359084 C 508.718799 397.580613 509.391626 396.83823 510.10312 396.12678 C 510.814615 395.415329 511.557044 394.739967 512.335563 394.10327 C 513.111505 393.466574 513.918381 392.868543 514.753614 392.309178 C 515.591424 391.749813 516.452436 391.234269 517.339226 390.759969 C 518.226017 390.285669 519.13343 389.857768 520.061466 389.473687 C 520.989503 389.08703 521.935584 388.749348 522.897133 388.458066 C 523.858682 388.166784 524.83312 387.921901 525.820448 387.725994 C 526.805197 387.530087 527.797681 387.383157 528.800476 387.282626 C 529.800693 387.184673 530.803488 387.135696 531.80886 387.135696 C 532.814233 387.135696 533.817028 387.184673 534.817245 387.282626 C 535.817462 387.383157 536.809945 387.530087 537.797273 387.725994 C 538.782023 387.921901 539.756461 388.166784 540.71801 388.458066 C 541.679559 388.749348 542.62564 389.08703 543.553676 389.473687 C 544.484291 389.857768 545.391704 390.285669 546.278494 390.759969 C 547.165285 391.234269 548.026296 391.749813 548.861529 392.309178 C 549.696762 392.868543 550.503638 393.466574 551.279579 394.10327 C 552.058099 394.739967 552.800528 395.415329 553.512023 396.12678 C 554.223517 396.83823 554.898921 397.580613 555.535657 398.359084 C 556.172393 399.134978 556.770461 399.941804 557.329861 400.776984 C 557.889261 401.614743 558.404837 402.475701 558.879166 403.362436 C 559.353496 404.249172 559.781424 405.156529 560.165528 406.084507 C 560.55221 407.012486 560.889912 407.958509 561.181212 408.919998 C 561.472512 409.881487 561.717411 410.855865 561.91333 411.843131 C 562.109249 412.82782 562.256188 413.822819 562.354147 414.822974 C 562.454684 415.823129 562.503664 416.825862 562.503664 417.831172 Z M 562.503664 417.831172 " stroke="#ffffff" stroke-width="12" stroke-opacity="1" stroke-miterlimit="4"/><path fill="#ffffff" d="M 287.007812 66.527344 C 281.699219 66.675781 276.199219 67.542969 271.164062 68.621094 C 260.101562 71.085938 249.28125 74.710938 239.011719 79.515625 C 231.519531 83.0625 225.019531 88.320312 218.578125 93.460938 C 216.128906 95.230469 214.5 97.820312 212.515625 100.054688 C 208.117188 105.34375 203.71875 110.636719 199.320312 115.925781 C 179.078125 116.578125 158.644531 118.363281 139.199219 124.339844 C 127.519531 127.933594 116.296875 133.265625 106.09375 140.230469 C 96.917969 147.011719 88.261719 154.59375 80.867188 163.308594 C 73.589844 172.042969 67.425781 181.695312 61.226562 191.136719 C 50.273438 208.148438 39.390625 225.335938 28.671875 242.542969 C 22.050781 253.359375 15.257812 264.109375 9.726562 275.535156 C 6.910156 281.414062 4.761719 287.730469 4.558594 294.296875 C 4.449219 299.585938 4.207031 304.972656 5.417969 310.167969 C 6.765625 315.175781 9.15625 319.824219 11.484375 324.433594 C 19.738281 339.886719 33.203125 352.851562 49.707031 359.09375 C 61.164062 363.457031 74.285156 364.257812 85.8125 359.703125 C 91.328125 357.625 96.21875 354.210938 100.585938 350.296875 C 102.769531 348.484375 105.367188 346.273438 108.417969 346.976562 C 111.1875 347.703125 113.304688 349.8125 115.695312 351.28125 C 119.847656 354.308594 124.464844 356.597656 128.863281 359.230469 C 131.394531 360.585938 133.734375 362.367188 136.542969 363.117188 C 151.691406 368.082031 167.519531 370.992188 183.4375 371.828125 C 201.074219 372.703125 219.019531 370.75 235.664062 364.660156 C 236.21875 364.441406 237.332031 364.03125 238.101562 363.734375 C 247.195312 360.054688 255.828125 355.328125 264.234375 350.296875 C 272.945312 344.980469 281.4375 338.898438 289.011719 332.238281 C 302.441406 320.441406 313.957031 305.964844 320.230469 289.078125 C 323.152344 281.402344 324.703125 273.28125 325.496094 265.125 C 326.878906 251.769531 326.871094 237.910156 322.460938 225.074219 C 319.886719 217.390625 315.441406 210.554688 311.707031 203.417969 C 308.390625 197.402344 304.914062 191.433594 301.34375 185.675781 C 298.824219 181.570312 296.25 177.550781 293.613281 173.613281 C 292.957031 172.828125 292.441406 172.046875 293.417969 171.28125 C 297.496094 165.34375 301.707031 159.5 305.703125 153.507812 C 309.328125 147.066406 310.96875 139.730469 312.128906 132.496094 C 314.480469 116.3125 313.300781 99.703125 309.351562 83.863281 C 308.921875 82.160156 308.332031 79.996094 307.820312 78.304688 C 307.035156 75.476562 306.109375 72.46875 303.703125 70.574219 C 299.59375 67.214844 294.03125 66.617188 288.90625 66.507812 C 288.273438 66.515625 287.640625 66.523438 287.007812 66.527344 Z M 287.007812 66.527344 " fill-opacity="1" fill-rule="nonzero"/><path fill="#141414" d="M 286.410156 63.4375 C 267.96875 63.921875 243.945312 72.972656 234.175781 78.222656 C 225.8125 82.71875 213.988281 92.835938 213.988281 92.835938 L 197.320312 112.890625 C 150.660156 114.347656 126.417969 123.117188 105.863281 136.289062 C 101.671875 138.976562 92.511719 146.292969 85.761719 152.957031 C 75.351562 163.242188 69.335938 171.632812 46.089844 208.269531 C 3.558594 275.304688 0.835938 280.777344 0.898438 299.207031 C 0.933594 309.085938 1.65625 312.101562 6.378906 322.042969 C 25.648438 362.625 71.65625 378.515625 99.894531 354.34375 C 106.136719 348.996094 106.378906 348.859375 110.191406 351.484375 L 116.722656 355.984375 L 132.332031 364.972656 C 132.332031 364.972656 193.507812 388.636719 246.082031 363.253906 C 278.730469 347.492188 320.574219 317.984375 327.160156 271.957031 C 332.90625 231.769531 322.246094 217.609375 316.273438 206.40625 C 305.996094 187.128906 295.851562 172.257812 295.851562 172.257812 L 306.875 156.414062 C 314.644531 145.238281 321.214844 111.398438 309.296875 74.503906 C 306.535156 65.945312 297.476562 63.148438 286.410156 63.4375 Z M 282.773438 83.859375 C 286.097656 83.847656 288.59375 84.234375 289.90625 84.84375 C 293.195312 86.371094 294.417969 98.957031 295.347656 111.21875 C 295.648438 126.324219 291.324219 143.289062 282.152344 155.4375 L 275.90625 151.289062 C 270.425781 147.648438 251.355469 134.085938 246.421875 130.414062 C 245.277344 129.5625 243.238281 130.382812 240.734375 132.703125 L 236.832031 136.320312 L 253.449219 155.246094 C 306.085938 215.214844 313.765625 232.492188 311.714844 261.574219 C 308.839844 302.300781 279.609375 334.757812 229.328125 351.652344 C 214.484375 356.640625 184.160156 358.066406 168.304688 354.527344 C 155.925781 351.761719 131.78125 341.578125 122.101562 335.039062 L 114.734375 330.0625 L 114.539062 318.039062 C 114.382812 308.539062 113.199219 302.671875 108.890625 290.101562 C 102.027344 270.074219 93.453125 247.777344 90.195312 241.476562 L 87.695312 236.640625 L 82.441406 245.960938 L 77.1875 255.285156 L 80.15625 266.253906 C 81.789062 272.285156 85.234375 284.039062 87.8125 292.375 C 94.007812 312.394531 94.265625 325.445312 88.625 333.96875 C 77.941406 350.113281 55.558594 347.636719 37.089844 328.261719 C 20.082031 310.417969 18.011719 297.675781 28.71875 276.648438 C 36.535156 261.296875 58.265625 225.503906 62.636719 220.773438 C 64.371094 218.898438 67.035156 217.363281 68.558594 217.363281 C 70.078125 217.363281 71.324219 216.375 71.324219 215.164062 C 71.324219 213.953125 74.820312 206.097656 79.097656 197.703125 C 92.21875 171.960938 112.480469 153.089844 139.492188 141.441406 C 161.914062 131.773438 180.804688 129.367188 206.433594 132.910156 C 208.054688 133.132812 212.117188 128.867188 217.800781 120.96875 C 234.679688 97.5 249.476562 92.078125 260.945312 88 C 269.40625 84.992188 277.238281 83.875 282.773438 83.859375 Z M 229.953125 176.71875 C 227.425781 176.765625 224.769531 177.644531 222.300781 179.585938 C 217.207031 183.59375 216.703125 193.027344 221.339844 197.664062 C 226.917969 203.242188 238.238281 200.484375 240.882812 192.90625 C 243.988281 183.996094 237.539062 176.589844 229.953125 176.71875 Z M 249.859375 212.445312 C 237.828125 212.265625 222.855469 222.148438 220.414062 231.886719 C 218.941406 237.753906 221.0625 245.367188 225.269531 249.324219 C 228.230469 252.105469 231.378906 253.15625 238.503906 253.730469 C 247.644531 254.472656 247.863281 254.59375 248.308594 259.152344 C 249.042969 266.679688 244.597656 270.738281 234.714844 271.558594 C 228.882812 272.042969 224.964844 271.515625 221.660156 269.808594 C 215.097656 266.414062 213.761719 266.730469 213.761719 271.652344 C 213.761719 276.609375 218.605469 281.660156 224.75 283.113281 C 227.039062 283.65625 228.914062 284.832031 228.914062 285.734375 C 228.914062 293.496094 239.929688 303.964844 250.890625 306.609375 C 258.636719 308.484375 265.988281 307.386719 273.558594 303.238281 C 286.347656 296.230469 289.828125 283.558594 282.785156 269.648438 L 279.074219 262.320312 L 282.726562 257.980469 C 290.492188 248.746094 290.644531 235.214844 282.988281 234.308594 C 279.175781 233.859375 278.921875 234.207031 278.921875 239.855469 C 278.921875 244.726562 278.023438 246.640625 274.257812 249.8125 C 269.550781 253.769531 260.328125 255.234375 258.523438 252.316406 C 258.042969 251.535156 259.699219 247.664062 262.203125 243.714844 C 268.175781 234.300781 269.257812 228.148438 266.109375 221.519531 C 263.035156 215.039062 258.632812 212.578125 249.859375 212.445312 Z M 152.96875 226.460938 C 136.359375 226.476562 125.808594 242.792969 132.832031 257.601562 C 135.792969 263.835938 137.871094 265.628906 145.179688 268.234375 C 152.722656 270.925781 154.285156 270.851562 161.832031 267.425781 C 169.800781 263.808594 174.351562 256.742188 174.359375 247.976562 C 174.371094 235.226562 165.644531 226.449219 152.96875 226.460938 Z M 261.867188 266.695312 C 262.3125 266.605469 262.789062 266.671875 263.324219 266.863281 C 270.710938 269.476562 276.964844 279.546875 275.304688 286.160156 C 274.792969 288.191406 272.082031 291.273438 269.273438 293.007812 C 260.039062 298.714844 247.859375 296.191406 241.617188 287.277344 C 239.792969 284.671875 239.734375 283.890625 241.320312 283.386719 C 242.414062 283.039062 245.921875 281.953125 249.113281 280.96875 C 253.859375 279.507812 255.4375 277.96875 257.761719 272.542969 C 259.441406 268.625 260.527344 266.964844 261.867188 266.695312 Z M 261.867188 266.695312 " fill-opacity="1" fill-rule="nonzero"/><g fill="#ffffff" fill-opacity="1"><g transform="translate(634.139577, 270.617834)"><g><path d="M 51.765625 0 L 6.15625 -172.546875 L 39.9375 -172.546875 L 70.984375 -35.25 L 107.46875 -172.546875 L 142.234375 -172.546875 L 177.71875 -35.25 L 208.78125 -172.546875 L 242.796875 -172.546875 L 195.96875 0 L 158.5 0 L 124.234375 -127.9375 L 88.984375 0 Z M 51.765625 0 "/></g></g></g><g fill="#ffffff" fill-opacity="1"><g transform="translate(883.09244, 270.617834)"><g><path d="M 74.6875 2.953125 C 62.851562 2.953125 52.210938 0.242188 42.765625 -5.171875 C 33.316406 -10.597656 25.835938 -18.117188 20.328125 -27.734375 C 14.828125 -37.347656 12.078125 -48.476562 12.078125 -61.125 C 12.078125 -73.78125 14.867188 -84.914062 20.453125 -94.53125 C 26.046875 -104.144531 33.566406 -111.660156 43.015625 -117.078125 C 52.460938 -122.503906 63.101562 -125.21875 74.9375 -125.21875 C 86.601562 -125.21875 97.160156 -122.503906 106.609375 -117.078125 C 116.054688 -111.660156 123.53125 -104.144531 129.03125 -94.53125 C 134.539062 -84.914062 137.296875 -73.78125 137.296875 -61.125 C 137.296875 -48.476562 134.539062 -37.347656 129.03125 -27.734375 C 123.53125 -18.117188 116.015625 -10.597656 106.484375 -5.171875 C 96.953125 0.242188 86.351562 2.953125 74.6875 2.953125 Z M 74.6875 -24.40625 C 82.90625 -24.40625 90.050781 -27.484375 96.125 -33.640625 C 102.207031 -39.804688 105.25 -48.96875 105.25 -61.125 C 105.25 -73.289062 102.207031 -82.453125 96.125 -88.609375 C 90.050781 -94.773438 82.988281 -97.859375 74.9375 -97.859375 C 66.550781 -97.859375 59.359375 -94.773438 53.359375 -88.609375 C 47.367188 -82.453125 44.375 -73.289062 44.375 -61.125 C 44.375 -48.96875 47.367188 -39.804688 53.359375 -33.640625 C 59.359375 -27.484375 66.46875 -24.40625 74.6875 -24.40625 Z M 74.6875 -24.40625 "/></g></g></g><g fill="#ffffff" fill-opacity="1"><g transform="translate(1032.464134, 270.617834)"><g><path d="M 16.015625 0 L 16.015625 -122.265625 L 44.125 -122.265625 L 47.078125 -99.34375 C 51.515625 -107.226562 57.550781 -113.507812 65.1875 -118.1875 C 72.832031 -122.875 81.832031 -125.21875 92.1875 -125.21875 L 92.1875 -91.9375 L 83.3125 -91.9375 C 76.414062 -91.9375 70.253906 -90.867188 64.828125 -88.734375 C 59.398438 -86.597656 55.164062 -82.898438 52.125 -77.640625 C 49.09375 -72.390625 47.578125 -65.078125 47.578125 -55.703125 L 47.578125 0 Z M 16.015625 0 "/></g></g></g><g fill="#ffffff" fill-opacity="1"><g transform="translate(1130.073371, 270.617834)"><g><path d="M 16.015625 0 L 16.015625 -177.484375 L 47.578125 -177.484375 L 47.578125 -72.71875 L 90.953125 -122.265625 L 128.421875 -122.265625 L 78.390625 -66.5625 L 136.5625 0 L 97.125 0 L 47.578125 -61.375 L 47.578125 0 Z M 16.015625 0 "/></g></g></g><g fill="#ffffff" fill-opacity="1"><g transform="translate(1270.078564, 270.617834)"><g><path d="M 21.6875 0 L 21.6875 -95.890625 L 4.9375 -95.890625 L 4.9375 -122.265625 L 21.6875 -122.265625 L 21.6875 -136.5625 C 21.6875 -151.351562 25.425781 -161.867188 32.90625 -168.109375 C 40.382812 -174.359375 50.53125 -177.484375 63.34375 -177.484375 L 76.90625 -177.484375 L 76.90625 -150.609375 L 68.28125 -150.609375 C 62.851562 -150.609375 58.988281 -149.539062 56.6875 -147.40625 C 54.394531 -145.269531 53.25 -141.65625 53.25 -136.5625 L 53.25 -122.265625 L 79.625 -122.265625 L 79.625 -95.890625 L 53.25 -95.890625 L 53.25 0 Z M 21.6875 0 "/></g></g></g><g fill="#ffffff" fill-opacity="1"><g transform="translate(1358.567757, 270.617834)"><g><path d="M 16.015625 0 L 16.015625 -177.484375 L 47.578125 -177.484375 L 47.578125 0 Z M 16.015625 0 "/></g></g></g><g fill="#ffffff" fill-opacity="1"><g transform="translate(1422.408177, 270.617834)"><g><path d="M 74.6875 2.953125 C 62.851562 2.953125 52.210938 0.242188 42.765625 -5.171875 C 33.316406 -10.597656 25.835938 -18.117188 20.328125 -27.734375 C 14.828125 -37.347656 12.078125 -48.476562 12.078125 -61.125 C 12.078125 -73.78125 14.867188 -84.914062 20.453125 -94.53125 C 26.046875 -104.144531 33.566406 -111.660156 43.015625 -117.078125 C 52.460938 -122.503906 63.101562 -125.21875 74.9375 -125.21875 C 86.601562 -125.21875 97.160156 -122.503906 106.609375 -117.078125 C 116.054688 -111.660156 123.53125 -104.144531 129.03125 -94.53125 C 134.539062 -84.914062 137.296875 -73.78125 137.296875 -61.125 C 137.296875 -48.476562 134.539062 -37.347656 129.03125 -27.734375 C 123.53125 -18.117188 116.015625 -10.597656 106.484375 -5.171875 C 96.953125 0.242188 86.351562 2.953125 74.6875 2.953125 Z M 74.6875 -24.40625 C 82.90625 -24.40625 90.050781 -27.484375 96.125 -33.640625 C 102.207031 -39.804688 105.25 -48.96875 105.25 -61.125 C 105.25 -73.289062 102.207031 -82.453125 96.125 -88.609375 C 90.050781 -94.773438 82.988281 -97.859375 74.9375 -97.859375 C 66.550781 -97.859375 59.359375 -94.773438 53.359375 -88.609375 C 47.367188 -82.453125 44.375 -73.289062 44.375 -61.125 C 44.375 -48.96875 47.367188 -39.804688 53.359375 -33.640625 C 59.359375 -27.484375 66.46875 -24.40625 74.6875 -24.40625 Z M 74.6875 -24.40625 "/></g></g></g><g fill="#ffffff" fill-opacity="1"><g transform="translate(1571.779871, 270.617834)"><g><path d="M 39.9375 0 L 4.1875 -122.265625 L 35.5 -122.265625 L 56.6875 -34.265625 L 81.34375 -122.265625 L 116.34375 -122.265625 L 141 -34.265625 L 162.4375 -122.265625 L 193.75 -122.265625 L 157.765625 0 L 124.96875 0 L 98.84375 -91.453125 L 72.71875 0 Z M 39.9375 0 "/></g></g></g><g fill="#ffffff" fill-opacity="1"><g transform="translate(1769.463285, 270.617834)"><g><path d="M 16.765625 0 L 16.765625 -172.546875 L 75.671875 -172.546875 C 95.890625 -172.546875 112.53125 -168.972656 125.59375 -161.828125 C 138.65625 -154.679688 148.347656 -144.65625 154.671875 -131.75 C 161.003906 -118.851562 164.171875 -103.695312 164.171875 -86.28125 C 164.171875 -68.851562 161.003906 -53.691406 154.671875 -40.796875 C 148.347656 -27.898438 138.65625 -17.875 125.59375 -10.71875 C 112.53125 -3.570312 95.890625 0 75.671875 0 Z M 48.3125 -27.109375 L 74.203125 -27.109375 C 88.660156 -27.109375 100.078125 -29.453125 108.453125 -34.140625 C 116.835938 -38.828125 122.835938 -45.566406 126.453125 -54.359375 C 130.066406 -63.148438 131.875 -73.789062 131.875 -86.28125 C 131.875 -98.601562 130.066406 -109.203125 126.453125 -118.078125 C 122.835938 -126.953125 116.835938 -133.769531 108.453125 -138.53125 C 100.078125 -143.300781 88.660156 -145.6875 74.203125 -145.6875 L 48.3125 -145.6875 Z M 48.3125 -27.109375 "/></g></g></g><g fill="#ffffff" fill-opacity="1"><g transform="translate(1944.716288, 270.617834)"><g><path d="M 74.6875 2.953125 C 62.851562 2.953125 52.210938 0.242188 42.765625 -5.171875 C 33.316406 -10.597656 25.835938 -18.117188 20.328125 -27.734375 C 14.828125 -37.347656 12.078125 -48.476562 12.078125 -61.125 C 12.078125 -73.78125 14.867188 -84.914062 20.453125 -94.53125 C 26.046875 -104.144531 33.566406 -111.660156 43.015625 -117.078125 C 52.460938 -122.503906 63.101562 -125.21875 74.9375 -125.21875 C 86.601562 -125.21875 97.160156 -122.503906 106.609375 -117.078125 C 116.054688 -111.660156 123.53125 -104.144531 129.03125 -94.53125 C 134.539062 -84.914062 137.296875 -73.78125 137.296875 -61.125 C 137.296875 -48.476562 134.539062 -37.347656 129.03125 -27.734375 C 123.53125 -18.117188 116.015625 -10.597656 106.484375 -5.171875 C 96.953125 0.242188 86.351562 2.953125 74.6875 2.953125 Z M 74.6875 -24.40625 C 82.90625 -24.40625 90.050781 -27.484375 96.125 -33.640625 C 102.207031 -39.804688 105.25 -48.96875 105.25 -61.125 C 105.25 -73.289062 102.207031 -82.453125 96.125 -88.609375 C 90.050781 -94.773438 82.988281 -97.859375 74.9375 -97.859375 C 66.550781 -97.859375 59.359375 -94.773438 53.359375 -88.609375 C 47.367188 -82.453125 44.375 -73.289062 44.375 -61.125 C 44.375 -48.96875 47.367188 -39.804688 53.359375 -33.640625 C 59.359375 -27.484375 66.46875 -24.40625 74.6875 -24.40625 Z M 74.6875 -24.40625 "/></g></g></g><g fill="#ffffff" fill-opacity="1"><g transform="translate(2094.088048, 270.617834)"><g><path d="M 67.78125 -36.484375 C 61.863281 -36.484375 56.359375 -37.140625 51.265625 -38.453125 L 42.15625 -29.328125 C 44.945312 -27.847656 48.722656 -26.613281 53.484375 -25.625 C 58.253906 -24.644531 65.976562 -23.660156 76.65625 -22.671875 C 92.925781 -21.191406 104.757812 -17.328125 112.15625 -11.078125 C 119.550781 -4.835938 123.25 3.785156 123.25 14.796875 C 123.25 22.023438 121.273438 28.882812 117.328125 35.375 C 113.390625 41.863281 107.3125 47.117188 99.09375 51.140625 C 90.875 55.171875 80.359375 57.1875 67.546875 57.1875 C 50.117188 57.1875 36.0625 53.941406 25.375 47.453125 C 14.695312 40.960938 9.359375 31.222656 9.359375 18.234375 C 9.359375 7.222656 14.703125 -2.304688 25.390625 -10.359375 C 22.097656 -11.835938 19.257812 -13.394531 16.875 -15.03125 C 14.5 -16.675781 12.40625 -18.40625 10.59375 -20.21875 L 10.59375 -25.875 L 32.046875 -48.5625 C 22.515625 -56.9375 17.75 -67.703125 17.75 -80.859375 C 17.75 -89.066406 19.757812 -96.539062 23.78125 -103.28125 C 27.8125 -110.019531 33.523438 -115.359375 40.921875 -119.296875 C 48.316406 -123.242188 57.269531 -125.21875 67.78125 -125.21875 C 74.6875 -125.21875 81.097656 -124.234375 87.015625 -122.265625 L 133.359375 -122.265625 L 133.359375 -103.03125 L 112.40625 -101.5625 C 115.6875 -95.3125 117.328125 -88.410156 117.328125 -80.859375 C 117.328125 -72.640625 115.351562 -65.160156 111.40625 -58.421875 C 107.46875 -51.679688 101.757812 -46.335938 94.28125 -42.390625 C 86.8125 -38.453125 77.976562 -36.484375 67.78125 -36.484375 Z M 67.78125 -60.640625 C 74.195312 -60.640625 79.5 -62.363281 83.6875 -65.8125 C 87.875 -69.257812 89.96875 -74.191406 89.96875 -80.609375 C 89.96875 -87.015625 87.875 -91.941406 83.6875 -95.390625 C 79.5 -98.847656 74.195312 -100.578125 67.78125 -100.578125 C 61.050781 -100.578125 55.628906 -98.847656 51.515625 -95.390625 C 47.410156 -91.941406 45.359375 -87.015625 45.359375 -80.609375 C 45.359375 -74.191406 47.410156 -69.257812 51.515625 -65.8125 C 55.628906 -62.363281 61.050781 -60.640625 67.78125 -60.640625 Z M 38.203125 15.03125 C 38.203125 21.113281 41.035156 25.675781 46.703125 28.71875 C 52.378906 31.757812 59.328125 33.28125 67.546875 33.28125 C 75.429688 33.28125 81.835938 31.675781 86.765625 28.46875 C 91.691406 25.257812 94.15625 20.945312 94.15625 15.53125 C 94.15625 11.09375 92.550781 7.394531 89.34375 4.4375 C 86.144531 1.476562 79.78125 -0.328125 70.25 -0.984375 C 63.507812 -1.472656 57.265625 -2.210938 51.515625 -3.203125 C 46.753906 -0.578125 43.34375 2.296875 41.28125 5.421875 C 39.226562 8.546875 38.203125 11.75 38.203125 15.03125 Z M 38.203125 15.03125 "/></g></g></g></svg>