<svg xmlns="http://www.w3.org/2000/svg" xmlns:xlink="http://www.w3.org/1999/xlink" width="2400" zoomAndPan="magnify" viewBox="0 0 1800 374.999991" height="500" preserveAspectRatio="xMidYMid meet" version="1.0"><defs><g/><clipPath id="73efe360d2"><path d="M 226 37.5 L 490.5 37.5 L 490.5 319 L 226 319 Z M 226 37.5 " clip-rule="nonzero"/></clipPath><clipPath id="dd35ce8566"><path d="M 175 37.5 L 445 37.5 L 445 232 L 175 232 Z M 175 37.5 " clip-rule="nonzero"/></clipPath><clipPath id="46949bd81c"><path d="M 320 48 L 490.5 48 L 490.5 293 L 320 293 Z M 320 48 " clip-rule="nonzero"/></clipPath><clipPath id="d6a091ea65"><path d="M 228 113 L 468 113 L 468 337.5 L 228 337.5 Z M 228 113 " clip-rule="nonzero"/></clipPath><clipPath id="847ef05035"><path d="M 38 88 L 301 88 L 301 337.5 L 38 337.5 Z M 38 88 " clip-rule="nonzero"/></clipPath></defs><g fill="#ffffff" fill-opacity="1"><g transform="translate(585.738391, 300.813344)"><g><path d="M 38.90625 0 L 4.625 -129.65625 L 30.015625 -129.65625 L 53.34375 -26.484375 L 80.765625 -129.65625 L 106.875 -129.65625 L 133.546875 -26.484375 L 156.890625 -129.65625 L 182.453125 -129.65625 L 147.265625 0 L 119.109375 0 L 93.359375 -96.140625 L 66.875 0 Z M 38.90625 0 "/></g></g></g><g fill="#ffffff" fill-opacity="1"><g transform="translate(772.817592, 300.813344)"><g><path d="M 56.125 2.21875 C 47.238281 2.21875 39.242188 0.179688 32.140625 -3.890625 C 25.035156 -7.960938 19.414062 -13.609375 15.28125 -20.828125 C 11.144531 -28.054688 9.078125 -36.425781 9.078125 -45.9375 C 9.078125 -55.445312 11.175781 -63.8125 15.375 -71.03125 C 19.570312 -78.257812 25.21875 -83.910156 32.3125 -87.984375 C 39.414062 -92.054688 47.414062 -94.09375 56.3125 -94.09375 C 65.082031 -94.09375 73.015625 -92.054688 80.109375 -87.984375 C 87.210938 -83.910156 92.832031 -78.257812 96.96875 -71.03125 C 101.101562 -63.8125 103.171875 -55.445312 103.171875 -45.9375 C 103.171875 -36.425781 101.101562 -28.054688 96.96875 -20.828125 C 92.832031 -13.609375 87.179688 -7.960938 80.015625 -3.890625 C 72.859375 0.179688 64.894531 2.21875 56.125 2.21875 Z M 56.125 -18.34375 C 62.300781 -18.34375 67.671875 -20.65625 72.234375 -25.28125 C 76.804688 -29.914062 79.09375 -36.800781 79.09375 -45.9375 C 79.09375 -55.070312 76.804688 -61.953125 72.234375 -66.578125 C 67.671875 -71.210938 62.363281 -73.53125 56.3125 -73.53125 C 50.007812 -73.53125 44.601562 -71.210938 40.09375 -66.578125 C 35.59375 -61.953125 33.34375 -55.070312 33.34375 -45.9375 C 33.34375 -36.800781 35.59375 -29.914062 40.09375 -25.28125 C 44.601562 -20.65625 49.945312 -18.34375 56.125 -18.34375 Z M 56.125 -18.34375 "/></g></g></g><g fill="#ffffff" fill-opacity="1"><g transform="translate(885.065095, 300.813344)"><g><path d="M 12.046875 0 L 12.046875 -91.875 L 33.15625 -91.875 L 35.375 -74.65625 C 38.707031 -80.582031 43.242188 -85.300781 48.984375 -88.8125 C 54.734375 -92.332031 61.5 -94.09375 69.28125 -94.09375 L 69.28125 -69.09375 L 62.609375 -69.09375 C 57.421875 -69.09375 52.789062 -68.289062 48.71875 -66.6875 C 44.644531 -65.082031 41.460938 -62.300781 39.171875 -58.34375 C 36.890625 -54.394531 35.75 -48.898438 35.75 -41.859375 L 35.75 0 Z M 12.046875 0 "/></g></g></g><g fill="#ffffff" fill-opacity="1"><g transform="translate(958.414958, 300.813344)"><g><path d="M 12.046875 0 L 12.046875 -133.375 L 35.75 -133.375 L 35.75 -54.640625 L 68.34375 -91.875 L 96.5 -91.875 L 58.90625 -50.015625 L 102.625 0 L 72.984375 0 L 35.75 -46.125 L 35.75 0 Z M 12.046875 0 "/></g></g></g><g fill="#ffffff" fill-opacity="1"><g transform="translate(1063.62387, 300.813344)"><g><path d="M 16.296875 0 L 16.296875 -72.0625 L 3.703125 -72.0625 L 3.703125 -91.875 L 16.296875 -91.875 L 16.296875 -102.625 C 16.296875 -113.738281 19.101562 -121.640625 24.71875 -126.328125 C 30.34375 -131.023438 37.972656 -133.375 47.609375 -133.375 L 57.796875 -133.375 L 57.796875 -113.171875 L 51.3125 -113.171875 C 47.238281 -113.171875 44.335938 -112.367188 42.609375 -110.765625 C 40.878906 -109.160156 40.015625 -106.445312 40.015625 -102.625 L 40.015625 -91.875 L 59.828125 -91.875 L 59.828125 -72.0625 L 40.015625 -72.0625 L 40.015625 0 Z M 16.296875 0 "/></g></g></g><g fill="#ffffff" fill-opacity="1"><g transform="translate(1130.120343, 300.813344)"><g><path d="M 12.046875 0 L 12.046875 -133.375 L 35.75 -133.375 L 35.75 0 Z M 12.046875 0 "/></g></g></g><g fill="#ffffff" fill-opacity="1"><g transform="translate(1178.094143, 300.813344)"><g><path d="M 56.125 2.21875 C 47.238281 2.21875 39.242188 0.179688 32.140625 -3.890625 C 25.035156 -7.960938 19.414062 -13.609375 15.28125 -20.828125 C 11.144531 -28.054688 9.078125 -36.425781 9.078125 -45.9375 C 9.078125 -55.445312 11.175781 -63.8125 15.375 -71.03125 C 19.570312 -78.257812 25.21875 -83.910156 32.3125 -87.984375 C 39.414062 -92.054688 47.414062 -94.09375 56.3125 -94.09375 C 65.082031 -94.09375 73.015625 -92.054688 80.109375 -87.984375 C 87.210938 -83.910156 92.832031 -78.257812 96.96875 -71.03125 C 101.101562 -63.8125 103.171875 -55.445312 103.171875 -45.9375 C 103.171875 -36.425781 101.101562 -28.054688 96.96875 -20.828125 C 92.832031 -13.609375 87.179688 -7.960938 80.015625 -3.890625 C 72.859375 0.179688 64.894531 2.21875 56.125 2.21875 Z M 56.125 -18.34375 C 62.300781 -18.34375 67.671875 -20.65625 72.234375 -25.28125 C 76.804688 -29.914062 79.09375 -36.800781 79.09375 -45.9375 C 79.09375 -55.070312 76.804688 -61.953125 72.234375 -66.578125 C 67.671875 -71.210938 62.363281 -73.53125 56.3125 -73.53125 C 50.007812 -73.53125 44.601562 -71.210938 40.09375 -66.578125 C 35.59375 -61.953125 33.34375 -55.070312 33.34375 -45.9375 C 33.34375 -36.800781 35.59375 -29.914062 40.09375 -25.28125 C 44.601562 -20.65625 49.945312 -18.34375 56.125 -18.34375 Z M 56.125 -18.34375 "/></g></g></g><g fill="#ffffff" fill-opacity="1"><g transform="translate(1290.341646, 300.813344)"><g><path d="M 30.015625 0 L 3.15625 -91.875 L 26.671875 -91.875 L 42.609375 -25.75 L 61.125 -91.875 L 87.4375 -91.875 L 105.953125 -25.75 L 122.0625 -91.875 L 145.59375 -91.875 L 118.546875 0 L 93.90625 0 L 74.28125 -68.71875 L 54.640625 0 Z M 30.015625 0 "/></g></g></g><g fill="#ffffff" fill-opacity="1"><g transform="translate(1438.893685, 300.813344)"><g><path d="M 12.59375 0 L 12.59375 -129.65625 L 56.859375 -129.65625 C 72.054688 -129.65625 84.5625 -126.96875 94.375 -121.59375 C 104.195312 -116.226562 111.484375 -108.695312 116.234375 -99 C 120.984375 -89.3125 123.359375 -77.921875 123.359375 -64.828125 C 123.359375 -51.742188 120.984375 -40.351562 116.234375 -30.65625 C 111.484375 -20.957031 104.195312 -13.421875 94.375 -8.046875 C 84.5625 -2.679688 72.054688 0 56.859375 0 Z M 36.3125 -20.375 L 55.75 -20.375 C 66.625 -20.375 75.207031 -22.132812 81.5 -25.65625 C 87.800781 -29.175781 92.304688 -34.238281 95.015625 -40.84375 C 97.734375 -47.445312 99.09375 -55.441406 99.09375 -64.828125 C 99.09375 -74.085938 97.734375 -82.050781 95.015625 -88.71875 C 92.304688 -95.394531 87.800781 -100.519531 81.5 -104.09375 C 75.207031 -107.675781 66.625 -109.46875 55.75 -109.46875 L 36.3125 -109.46875 Z M 36.3125 -20.375 "/></g></g></g><g fill="#ffffff" fill-opacity="1"><g transform="translate(1570.590069, 300.813344)"><g><path d="M 56.125 2.21875 C 47.238281 2.21875 39.242188 0.179688 32.140625 -3.890625 C 25.035156 -7.960938 19.414062 -13.609375 15.28125 -20.828125 C 11.144531 -28.054688 9.078125 -36.425781 9.078125 -45.9375 C 9.078125 -55.445312 11.175781 -63.8125 15.375 -71.03125 C 19.570312 -78.257812 25.21875 -83.910156 32.3125 -87.984375 C 39.414062 -92.054688 47.414062 -94.09375 56.3125 -94.09375 C 65.082031 -94.09375 73.015625 -92.054688 80.109375 -87.984375 C 87.210938 -83.910156 92.832031 -78.257812 96.96875 -71.03125 C 101.101562 -63.8125 103.171875 -55.445312 103.171875 -45.9375 C 103.171875 -36.425781 101.101562 -28.054688 96.96875 -20.828125 C 92.832031 -13.609375 87.179688 -7.960938 80.015625 -3.890625 C 72.859375 0.179688 64.894531 2.21875 56.125 2.21875 Z M 56.125 -18.34375 C 62.300781 -18.34375 67.671875 -20.65625 72.234375 -25.28125 C 76.804688 -29.914062 79.09375 -36.800781 79.09375 -45.9375 C 79.09375 -55.070312 76.804688 -61.953125 72.234375 -66.578125 C 67.671875 -71.210938 62.363281 -73.53125 56.3125 -73.53125 C 50.007812 -73.53125 44.601562 -71.210938 40.09375 -66.578125 C 35.59375 -61.953125 33.34375 -55.070312 33.34375 -45.9375 C 33.34375 -36.800781 35.59375 -29.914062 40.09375 -25.28125 C 44.601562 -20.65625 49.945312 -18.34375 56.125 -18.34375 Z M 56.125 -18.34375 "/></g></g></g><g fill="#ffffff" fill-opacity="1"><g transform="translate(1682.837621, 300.813344)"><g><path d="M 50.9375 -27.421875 C 46.488281 -27.421875 42.351562 -27.910156 38.53125 -28.890625 L 31.671875 -22.046875 C 33.773438 -20.929688 36.613281 -20.003906 40.1875 -19.265625 C 43.769531 -18.523438 49.578125 -17.785156 57.609375 -17.046875 C 69.835938 -15.929688 78.726562 -13.023438 84.28125 -8.328125 C 89.832031 -3.640625 92.609375 2.835938 92.609375 11.109375 C 92.609375 16.546875 91.125 21.703125 88.15625 26.578125 C 85.195312 31.453125 80.628906 35.398438 74.453125 38.421875 C 68.285156 41.453125 60.382812 42.96875 50.75 42.96875 C 37.664062 42.96875 27.109375 40.53125 19.078125 35.65625 C 11.046875 30.78125 7.03125 23.460938 7.03125 13.703125 C 7.03125 5.429688 11.046875 -1.726562 19.078125 -7.78125 C 16.609375 -8.894531 14.476562 -10.066406 12.6875 -11.296875 C 10.894531 -12.535156 9.320312 -13.832031 7.96875 -15.1875 L 7.96875 -19.453125 L 24.078125 -36.484375 C 16.921875 -42.785156 13.34375 -50.875 13.34375 -60.75 C 13.34375 -66.925781 14.851562 -72.546875 17.875 -77.609375 C 20.894531 -82.671875 25.179688 -86.679688 30.734375 -89.640625 C 36.296875 -92.609375 43.03125 -94.09375 50.9375 -94.09375 C 56.125 -94.09375 60.941406 -93.351562 65.390625 -91.875 L 100.21875 -91.875 L 100.21875 -77.421875 L 84.46875 -76.3125 C 86.9375 -71.625 88.171875 -66.4375 88.171875 -60.75 C 88.171875 -54.582031 86.6875 -48.96875 83.71875 -43.90625 C 80.757812 -38.84375 76.46875 -34.828125 70.84375 -31.859375 C 65.226562 -28.898438 58.59375 -27.421875 50.9375 -27.421875 Z M 50.9375 -45.5625 C 55.75 -45.5625 59.726562 -46.859375 62.875 -49.453125 C 66.03125 -52.046875 67.609375 -55.753906 67.609375 -60.578125 C 67.609375 -65.390625 66.03125 -69.09375 62.875 -71.6875 C 59.726562 -74.28125 55.75 -75.578125 50.9375 -75.578125 C 45.875 -75.578125 41.796875 -74.28125 38.703125 -71.6875 C 35.617188 -69.09375 34.078125 -65.390625 34.078125 -60.578125 C 34.078125 -55.753906 35.617188 -52.046875 38.703125 -49.453125 C 41.796875 -46.859375 45.875 -45.5625 50.9375 -45.5625 Z M 28.71875 11.296875 C 28.71875 15.867188 30.847656 19.296875 35.109375 21.578125 C 39.367188 23.859375 44.582031 25 50.75 25 C 56.675781 25 61.492188 23.796875 65.203125 21.390625 C 68.910156 18.984375 70.765625 15.742188 70.765625 11.671875 C 70.765625 8.335938 69.554688 5.554688 67.140625 3.328125 C 64.734375 1.109375 59.953125 -0.242188 52.796875 -0.734375 C 47.734375 -1.109375 43.039062 -1.664062 38.71875 -2.40625 C 35.132812 -0.425781 32.570312 1.734375 31.03125 4.078125 C 29.488281 6.421875 28.71875 8.828125 28.71875 11.296875 Z M 28.71875 11.296875 "/></g></g></g><g clip-path="url(#73efe360d2)"><path stroke-linecap="butt" transform="matrix(1.212218, 0, 0, 1.212312, -296.729021, -273.157424)" fill="none" stroke-linejoin="miter" d="M 499.850851 304.300688 L 611.281399 368.215229 L 530.966333 419.933937 Z M 499.850851 304.300688 " stroke="#ffffff" stroke-width="12" stroke-opacity="1" stroke-miterlimit="4"/></g><path fill="#7950f2" d="M 362.210938 96.769531 C 362.210938 98.472656 362.128906 100.171875 361.960938 101.863281 C 361.792969 103.558594 361.542969 105.242188 361.210938 106.914062 C 360.878906 108.582031 360.464844 110.234375 359.972656 111.863281 C 359.476562 113.492188 358.90625 115.09375 358.253906 116.667969 C 357.601562 118.238281 356.875 119.777344 356.070312 121.28125 C 355.269531 122.78125 354.394531 124.238281 353.449219 125.65625 C 352.503906 127.070312 351.488281 128.4375 350.410156 129.753906 C 349.328125 131.070312 348.1875 132.332031 346.984375 133.535156 C 345.777344 134.738281 344.519531 135.882812 343.203125 136.960938 C 341.886719 138.042969 340.519531 139.054688 339.105469 140 C 337.6875 140.949219 336.230469 141.824219 334.726562 142.625 C 333.226562 143.429688 331.6875 144.15625 330.117188 144.808594 C 328.542969 145.457031 326.941406 146.03125 325.3125 146.527344 C 323.683594 147.019531 322.03125 147.433594 320.363281 147.765625 C 318.691406 148.097656 317.007812 148.347656 315.316406 148.515625 C 313.621094 148.679688 311.921875 148.765625 310.21875 148.765625 C 308.515625 148.765625 306.816406 148.679688 305.121094 148.515625 C 303.429688 148.347656 301.746094 148.097656 300.074219 147.765625 C 298.40625 147.433594 296.753906 147.019531 295.125 146.527344 C 293.496094 146.03125 291.894531 145.457031 290.324219 144.808594 C 288.75 144.15625 287.210938 143.429688 285.710938 142.625 C 284.207031 141.824219 282.75 140.949219 281.332031 140 C 279.917969 139.054688 278.550781 138.042969 277.234375 136.960938 C 275.917969 135.882812 274.660156 134.738281 273.453125 133.535156 C 272.25 132.332031 271.109375 131.070312 270.027344 129.753906 C 268.949219 128.4375 267.933594 127.070312 266.988281 125.65625 C 266.042969 124.238281 265.167969 122.78125 264.367188 121.28125 C 263.5625 119.777344 262.835938 118.238281 262.183594 116.667969 C 261.53125 115.09375 260.960938 113.492188 260.464844 111.863281 C 259.972656 110.234375 259.558594 108.582031 259.226562 106.914062 C 258.894531 105.242188 258.644531 103.558594 258.476562 101.863281 C 258.308594 100.171875 258.226562 98.472656 258.226562 96.769531 C 258.226562 95.066406 258.308594 93.367188 258.476562 91.671875 C 258.644531 89.976562 258.894531 88.296875 259.226562 86.625 C 259.558594 84.953125 259.972656 83.304688 260.464844 81.675781 C 260.960938 80.046875 261.53125 78.445312 262.183594 76.871094 C 262.835938 75.296875 263.5625 73.757812 264.367188 72.257812 C 265.167969 70.757812 266.042969 69.296875 266.988281 67.882812 C 267.933594 66.464844 268.949219 65.097656 270.027344 63.78125 C 271.109375 62.464844 272.25 61.207031 273.453125 60 C 274.660156 58.796875 275.917969 57.65625 277.234375 56.574219 C 278.550781 55.496094 279.917969 54.480469 281.332031 53.535156 C 282.75 52.589844 284.207031 51.714844 285.710938 50.914062 C 287.210938 50.109375 288.75 49.382812 290.324219 48.730469 C 291.894531 48.078125 293.496094 47.507812 295.125 47.011719 C 296.753906 46.515625 298.40625 46.105469 300.074219 45.773438 C 301.746094 45.441406 303.429688 45.191406 305.121094 45.023438 C 306.816406 44.855469 308.515625 44.773438 310.21875 44.773438 C 311.921875 44.773438 313.621094 44.855469 315.316406 45.023438 C 317.007812 45.191406 318.691406 45.441406 320.363281 45.773438 C 322.03125 46.105469 323.683594 46.515625 325.3125 47.011719 C 326.941406 47.507812 328.542969 48.078125 330.117188 48.730469 C 331.6875 49.382812 333.226562 50.109375 334.726562 50.914062 C 336.230469 51.714844 337.6875 52.589844 339.105469 53.535156 C 340.519531 54.480469 341.886719 55.496094 343.203125 56.574219 C 344.519531 57.65625 345.777344 58.796875 346.984375 60 C 348.1875 61.207031 349.328125 62.464844 350.410156 63.78125 C 351.488281 65.097656 352.503906 66.464844 353.449219 67.882812 C 354.394531 69.296875 355.269531 70.757812 356.070312 72.257812 C 356.875 73.757812 357.601562 75.296875 358.253906 76.871094 C 358.90625 78.445312 359.476562 80.046875 359.972656 81.675781 C 360.464844 83.304688 360.878906 84.953125 361.210938 86.625 C 361.542969 88.296875 361.792969 89.976562 361.960938 91.671875 C 362.128906 93.367188 362.210938 95.066406 362.210938 96.769531 Z M 362.210938 96.769531 " fill-opacity="1" fill-rule="nonzero"/><g clip-path="url(#dd35ce8566)"><path stroke-linecap="butt" transform="matrix(1.212218, 0, 0, 1.212312, -296.729021, -273.157424)" fill="none" stroke-linejoin="miter" d="M 543.582024 305.141669 C 543.582024 306.546526 543.514354 307.94816 543.375791 309.343351 C 543.237228 310.741763 543.030994 312.130509 542.75709 313.509589 C 542.483186 314.885446 542.141612 316.248415 541.73559 317.592051 C 541.326345 318.935687 540.855875 320.256768 540.317734 321.555294 C 539.779594 322.850598 539.180228 324.120124 538.516413 325.360652 C 537.855822 326.597957 537.134004 327.799818 536.354184 328.969458 C 535.574363 330.135876 534.73654 331.263628 533.847158 332.349492 C 532.954553 333.435356 532.013613 334.47611 531.021114 335.468532 C 530.025393 336.460954 528.98778 337.405043 527.901832 338.294356 C 526.815884 339.186892 525.688044 340.021428 524.521536 340.801188 C 523.351805 341.58417 522.14985 342.305931 520.909227 342.966472 C 519.671826 343.630235 518.402201 344.229554 517.106796 344.767653 C 515.80817 345.30253 514.486986 345.776186 513.143246 346.185398 C 511.799506 346.591389 510.436431 346.932937 509.060467 347.20682 C 507.68128 347.480702 506.292426 347.68692 504.897128 347.825472 C 503.498607 347.960802 502.096863 348.03169 500.691897 348.03169 C 499.286931 348.03169 497.885188 347.960802 496.486667 347.825472 C 495.091368 347.68692 493.702514 347.480702 492.323328 347.20682 C 490.947363 346.932937 489.584289 346.591389 488.240549 346.185398 C 486.896808 345.776186 485.575625 345.30253 484.28022 344.767653 C 482.981594 344.229554 481.711969 343.630235 480.474568 342.966472 C 479.233944 342.305931 478.031989 341.58417 476.862259 340.801188 C 475.69575 340.021428 474.567911 339.186892 473.481962 338.294356 C 472.396014 337.405043 471.358402 336.460954 470.36268 335.468532 C 469.370182 334.47611 468.429241 333.435356 467.536637 332.349492 C 466.647255 331.263628 465.809431 330.135876 465.02961 328.969458 C 464.24979 327.799818 463.527973 326.597957 462.867381 325.360652 C 462.203567 324.120124 461.604201 322.850598 461.06606 321.555294 C 460.527919 320.256768 460.057449 318.935687 459.648205 317.592051 C 459.242182 316.248415 458.900608 314.885446 458.626704 313.509589 C 458.3528 312.130509 458.146567 310.741763 458.008004 309.343351 C 457.869441 307.94816 457.80177 306.546526 457.80177 305.141669 C 457.80177 303.736812 457.869441 302.335177 458.008004 300.936765 C 458.146567 299.538352 458.3528 298.152828 458.626704 296.773749 C 458.900608 295.394669 459.242182 294.034922 459.648205 292.691286 C 460.057449 291.34765 460.527919 290.026569 461.06606 288.728044 C 461.604201 287.429518 462.203567 286.159991 462.867381 284.922686 C 463.527973 283.685381 464.24979 282.480297 465.02961 281.313879 C 465.809431 280.14424 466.647255 279.016487 467.536637 277.930623 C 468.429241 276.844759 469.370182 275.807227 470.36268 274.811583 C 471.358402 273.819162 472.396014 272.878294 473.481962 271.985759 C 474.567911 271.096446 475.69575 270.258687 476.862259 269.478927 C 478.031989 268.699167 479.233944 267.977406 480.474568 267.316866 C 481.711969 266.653103 482.981594 266.053783 484.28022 265.515685 C 485.575625 264.977586 486.896808 264.507152 488.240549 264.097939 C 489.584289 263.688726 490.947363 263.350401 492.323328 263.076518 C 493.702514 262.802635 495.091368 262.596418 496.486667 262.457866 C 497.885188 262.319313 499.286931 262.251648 500.691897 262.251648 C 502.096863 262.251648 503.498607 262.319313 504.897128 262.457866 C 506.292426 262.596418 507.68128 262.802635 509.060467 263.076518 C 510.436431 263.350401 511.799506 263.688726 513.143246 264.097939 C 514.486986 264.507152 515.80817 264.977586 517.106796 265.515685 C 518.402201 266.053783 519.671826 266.653103 520.909227 267.316866 C 522.14985 267.977406 523.351805 268.699167 524.521536 269.478927 C 525.688044 270.258687 526.815884 271.096446 527.901832 271.985759 C 528.98778 272.878294 530.025393 273.819162 531.021114 274.811583 C 532.013613 275.807227 532.954553 276.844759 533.847158 277.930623 C 534.73654 279.016487 535.574363 280.14424 536.354184 281.313879 C 537.134004 282.480297 537.855822 283.685381 538.516413 284.922686 C 539.180228 286.159991 539.779594 287.429518 540.317734 288.728044 C 540.855875 290.026569 541.326345 291.34765 541.73559 292.691286 C 542.141612 294.034922 542.483186 295.394669 542.75709 296.773749 C 543.030994 298.152828 543.237228 299.538352 543.375791 300.936765 C 543.514354 302.335177 543.582024 303.736812 543.582024 305.141669 Z M 543.582024 305.141669 " stroke="#ffffff" stroke-width="12" stroke-opacity="1" stroke-miterlimit="4"/></g><path fill="#fcc419" d="M 482.503906 170.175781 C 482.503906 171.476562 482.441406 172.777344 482.3125 174.070312 C 482.183594 175.367188 481.996094 176.652344 481.738281 177.929688 C 481.484375 179.207031 481.171875 180.46875 480.792969 181.714844 C 480.414062 182.960938 479.976562 184.1875 479.476562 185.390625 C 478.980469 186.59375 478.421875 187.769531 477.808594 188.917969 C 477.195312 190.066406 476.527344 191.183594 475.804688 192.265625 C 475.082031 193.347656 474.304688 194.390625 473.480469 195.398438 C 472.652344 196.40625 471.78125 197.367188 470.859375 198.289062 C 469.9375 199.210938 468.976562 200.085938 467.96875 200.910156 C 466.960938 201.738281 465.917969 202.511719 464.835938 203.234375 C 463.75 203.957031 462.636719 204.625 461.488281 205.242188 C 460.339844 205.855469 459.164062 206.410156 457.960938 206.910156 C 456.757812 207.40625 455.53125 207.84375 454.285156 208.222656 C 453.042969 208.601562 451.78125 208.917969 450.503906 209.171875 C 449.226562 209.425781 447.9375 209.617188 446.644531 209.746094 C 445.347656 209.871094 444.046875 209.9375 442.746094 209.9375 C 441.445312 209.9375 440.144531 209.871094 438.847656 209.746094 C 437.554688 209.617188 436.265625 209.425781 434.988281 209.171875 C 433.710938 208.917969 432.449219 208.601562 431.203125 208.222656 C 429.957031 207.84375 428.734375 207.40625 427.53125 206.910156 C 426.328125 206.410156 425.152344 205.855469 424.003906 205.242188 C 422.855469 204.625 421.738281 203.957031 420.65625 203.234375 C 419.574219 202.511719 418.53125 201.738281 417.523438 200.910156 C 416.515625 200.085938 415.554688 199.210938 414.632812 198.289062 C 413.710938 197.367188 412.839844 196.40625 412.011719 195.398438 C 411.1875 194.390625 410.410156 193.347656 409.6875 192.265625 C 408.964844 191.183594 408.296875 190.066406 407.683594 188.917969 C 407.066406 187.769531 406.511719 186.59375 406.015625 185.390625 C 405.515625 184.1875 405.078125 182.960938 404.699219 181.714844 C 404.320312 180.46875 404.003906 179.207031 403.75 177.929688 C 403.496094 176.652344 403.304688 175.367188 403.179688 174.070312 C 403.050781 172.777344 402.988281 171.476562 402.988281 170.175781 C 402.988281 168.871094 403.050781 167.574219 403.179688 166.277344 C 403.304688 164.980469 403.496094 163.695312 403.75 162.417969 C 404.003906 161.140625 404.320312 159.878906 404.699219 158.632812 C 405.078125 157.386719 405.515625 156.160156 406.015625 154.957031 C 406.511719 153.753906 407.066406 152.578125 407.683594 151.429688 C 408.296875 150.28125 408.964844 149.167969 409.6875 148.082031 C 410.410156 147 411.1875 145.957031 412.011719 144.949219 C 412.839844 143.941406 413.710938 142.980469 414.632812 142.058594 C 415.554688 141.136719 416.515625 140.265625 417.523438 139.4375 C 418.53125 138.613281 419.574219 137.835938 420.65625 137.113281 C 421.738281 136.390625 422.855469 135.722656 424.003906 135.109375 C 425.152344 134.492188 426.328125 133.9375 427.53125 133.4375 C 428.734375 132.941406 429.957031 132.503906 431.203125 132.125 C 432.449219 131.746094 433.710938 131.429688 434.988281 131.175781 C 436.265625 130.921875 437.554688 130.730469 438.847656 130.605469 C 440.144531 130.476562 441.445312 130.414062 442.746094 130.414062 C 444.046875 130.414062 445.347656 130.476562 446.644531 130.605469 C 447.9375 130.730469 449.226562 130.921875 450.503906 131.175781 C 451.78125 131.429688 453.042969 131.746094 454.285156 132.125 C 455.53125 132.503906 456.757812 132.941406 457.960938 133.441406 C 459.164062 133.9375 460.339844 134.492188 461.488281 135.109375 C 462.636719 135.722656 463.75 136.390625 464.835938 137.113281 C 465.917969 137.835938 466.960938 138.613281 467.96875 139.4375 C 468.976562 140.265625 469.9375 141.136719 470.859375 142.058594 C 471.78125 142.980469 472.652344 143.941406 473.480469 144.949219 C 474.304688 145.957031 475.082031 147 475.804688 148.082031 C 476.527344 149.167969 477.195312 150.28125 477.808594 151.429688 C 478.421875 152.578125 478.980469 153.753906 479.476562 154.957031 C 479.976562 156.160156 480.414062 157.386719 480.792969 158.632812 C 481.171875 159.878906 481.484375 161.140625 481.738281 162.417969 C 481.996094 163.695312 482.183594 164.980469 482.3125 166.277344 C 482.441406 167.574219 482.503906 168.871094 482.503906 170.175781 Z M 482.503906 170.175781 " fill-opacity="1" fill-rule="nonzero"/><g clip-path="url(#46949bd81c)"><path stroke-linecap="butt" transform="matrix(1.212218, 0, 0, 1.212312, -296.729021, -273.157424)" fill="none" stroke-linejoin="miter" d="M 642.815793 365.692286 C 642.815793 366.765262 642.764235 367.838237 642.657896 368.904769 C 642.551556 369.974522 642.396881 371.034609 642.184203 372.088251 C 641.974747 373.141894 641.716955 374.182648 641.404382 375.210513 C 641.09181 376.238379 640.730901 377.250134 640.318434 378.242555 C 639.909189 379.234977 639.448386 380.204844 638.94247 381.152156 C 638.436553 382.099467 637.885523 383.021002 637.289379 383.913537 C 636.693236 384.806072 636.051978 385.666386 635.372052 386.4977 C 634.688904 387.329015 633.970309 388.121663 633.209822 388.88209 C 632.449336 389.642517 631.656626 390.364279 630.825247 391.044152 C 629.993869 391.727248 629.133488 392.365233 628.240884 392.96133 C 627.345057 393.557428 626.426673 394.108415 625.479288 394.617515 C 624.531903 395.123392 623.561961 395.580937 622.569462 395.993372 C 621.576963 396.402585 620.56513 396.763466 619.537185 397.076014 C 618.512462 397.388563 617.471627 397.649557 616.417903 397.858996 C 615.364178 398.068436 614.300787 398.226321 613.234173 398.332652 C 612.164336 398.435761 611.091278 398.490538 610.018219 398.490538 C 608.94516 398.490538 607.872101 398.435761 606.802265 398.332652 C 605.735651 398.226321 604.672259 398.068436 603.618535 397.858996 C 602.564811 397.649557 601.523976 397.388563 600.496031 397.076014 C 599.468085 396.763466 598.459475 396.402585 597.466976 395.993372 C 596.474477 395.580937 595.504535 395.123392 594.55715 394.617515 C 593.609765 394.108415 592.688158 393.557428 591.795554 392.96133 C 590.90295 392.365233 590.042569 391.727248 589.21119 391.044152 C 588.379811 390.364279 587.587101 389.642517 586.826615 388.88209 C 586.066129 388.121663 585.347534 387.329015 584.664386 386.4977 C 583.98446 385.666386 583.343202 384.806072 582.747058 383.913537 C 582.150915 383.021002 581.599884 382.099467 581.093968 381.152156 C 580.584829 380.204844 580.127248 379.234977 579.718004 378.242555 C 579.305537 377.250134 578.944628 376.238379 578.632055 375.210513 C 578.319483 374.182648 578.058468 373.141894 577.849012 372.088251 C 577.639556 371.034609 577.481659 369.974522 577.378542 368.904769 C 577.272203 367.838237 577.220645 366.765262 577.220645 365.692286 C 577.220645 364.616089 577.272203 363.546335 577.378542 362.476582 C 577.481659 361.406829 577.639556 360.346742 577.849012 359.293099 C 578.058468 358.239457 578.319483 357.198702 578.632055 356.170837 C 578.944628 355.142972 579.305537 354.131217 579.718004 353.138795 C 580.127248 352.146373 580.584829 351.176507 581.093968 350.229195 C 581.599884 349.281883 582.150915 348.363571 582.747058 347.467814 C 583.343202 346.575278 583.98446 345.714965 584.664386 344.88365 C 585.347534 344.052336 586.066129 343.259687 586.826615 342.49926 C 587.587101 341.738833 588.379811 341.020294 589.21119 340.337199 C 590.042569 339.657325 590.90295 339.016118 591.795554 338.42002 C 592.688158 337.823923 593.609765 337.272935 594.55715 336.767058 C 595.504535 336.257958 596.474477 335.800413 597.466976 335.387978 C 598.459475 334.978765 599.468085 334.617885 600.496031 334.305336 C 601.523976 333.992788 602.564811 333.731794 603.618535 333.522354 C 604.672259 333.312914 605.735651 333.155029 606.802265 333.05192 C 607.872101 332.94559 608.94516 332.894035 610.018219 332.894035 C 611.091278 332.894035 612.164336 332.94559 613.234173 333.05192 C 614.300787 333.155029 615.364178 333.312914 616.417903 333.522354 C 617.471627 333.731794 618.512462 333.992788 619.537185 334.305336 C 620.56513 334.617885 621.576963 334.978765 622.569462 335.3912 C 623.561961 335.800413 624.531903 336.257958 625.479288 336.767058 C 626.426673 337.272935 627.345057 337.823923 628.240884 338.42002 C 629.133488 339.016118 629.993869 339.657325 630.825247 340.337199 C 631.656626 341.020294 632.449336 341.738833 633.209822 342.49926 C 633.970309 343.259687 634.688904 344.052336 635.372052 344.88365 C 636.051978 345.714965 636.693236 346.575278 637.289379 347.467814 C 637.885523 348.363571 638.436553 349.281883 638.94247 350.229195 C 639.448386 351.176507 639.909189 352.146373 640.318434 353.138795 C 640.730901 354.131217 641.09181 355.142972 641.404382 356.170837 C 641.716955 357.198702 641.974747 358.239457 642.184203 359.293099 C 642.396881 360.346742 642.551556 361.406829 642.657896 362.476582 C 642.764235 363.546335 642.815793 364.616089 642.815793 365.692286 Z M 642.815793 365.692286 " stroke="#ffffff" stroke-width="12" stroke-opacity="1" stroke-miterlimit="4"/></g><path fill="#f06595" d="M 385.148438 233.382812 C 385.148438 234.601562 385.085938 235.820312 384.96875 237.03125 C 384.847656 238.246094 384.671875 239.449219 384.433594 240.644531 C 384.195312 241.839844 383.898438 243.019531 383.546875 244.1875 C 383.191406 245.351562 382.78125 246.5 382.316406 247.625 C 381.847656 248.75 381.328125 249.851562 380.753906 250.925781 C 380.179688 252 379.554688 253.042969 378.875 254.058594 C 378.199219 255.070312 377.472656 256.050781 376.703125 256.992188 C 375.929688 257.933594 375.109375 258.835938 374.25 259.695312 C 373.386719 260.558594 372.484375 261.375 371.542969 262.148438 C 370.601562 262.921875 369.625 263.648438 368.609375 264.324219 C 367.597656 265 366.554688 265.628906 365.476562 266.203125 C 364.402344 266.777344 363.304688 267.296875 362.175781 267.761719 C 361.050781 268.230469 359.90625 268.640625 358.738281 268.992188 C 357.574219 269.347656 356.390625 269.644531 355.195312 269.882812 C 354.003906 270.117188 352.796875 270.296875 351.585938 270.417969 C 350.371094 270.535156 349.15625 270.597656 347.9375 270.597656 C 346.71875 270.597656 345.503906 270.535156 344.292969 270.417969 C 343.078125 270.296875 341.875 270.117188 340.679688 269.882812 C 339.484375 269.644531 338.304688 269.347656 337.136719 268.992188 C 335.972656 268.640625 334.824219 268.230469 333.699219 267.761719 C 332.574219 267.296875 331.472656 266.777344 330.398438 266.203125 C 329.324219 265.628906 328.277344 265 327.265625 264.324219 C 326.253906 263.648438 325.273438 262.921875 324.332031 262.148438 C 323.390625 261.375 322.488281 260.558594 321.628906 259.695312 C 320.765625 258.835938 319.949219 257.933594 319.175781 256.992188 C 318.402344 256.050781 317.675781 255.070312 317 254.058594 C 316.324219 253.042969 315.699219 252 315.121094 250.925781 C 314.546875 249.851562 314.027344 248.75 313.5625 247.625 C 313.09375 246.5 312.683594 245.351562 312.332031 244.1875 C 311.976562 243.019531 311.683594 241.839844 311.445312 240.644531 C 311.207031 239.449219 311.027344 238.246094 310.910156 237.03125 C 310.789062 235.820312 310.730469 234.601562 310.730469 233.382812 C 310.730469 232.164062 310.789062 230.949219 310.910156 229.738281 C 311.027344 228.523438 311.207031 227.320312 311.445312 226.125 C 311.683594 224.929688 311.976562 223.75 312.332031 222.582031 C 312.683594 221.414062 313.09375 220.269531 313.5625 219.144531 C 314.027344 218.019531 314.546875 216.917969 315.121094 215.84375 C 315.695312 214.769531 316.324219 213.722656 317 212.710938 C 317.675781 211.695312 318.402344 210.71875 319.175781 209.777344 C 319.949219 208.835938 320.765625 207.933594 321.628906 207.070312 C 322.488281 206.210938 323.390625 205.390625 324.332031 204.617188 C 325.273438 203.847656 326.253906 203.121094 327.265625 202.445312 C 328.277344 201.765625 329.324219 201.140625 330.398438 200.566406 C 331.472656 199.992188 332.574219 199.472656 333.699219 199.003906 C 334.824219 198.539062 335.972656 198.128906 337.136719 197.773438 C 338.304688 197.421875 339.484375 197.125 340.679688 196.886719 C 341.875 196.648438 343.078125 196.472656 344.292969 196.351562 C 345.503906 196.230469 346.71875 196.171875 347.9375 196.171875 C 349.15625 196.171875 350.371094 196.230469 351.585938 196.351562 C 352.796875 196.472656 354.003906 196.648438 355.195312 196.886719 C 356.390625 197.125 357.574219 197.421875 358.738281 197.773438 C 359.90625 198.128906 361.050781 198.539062 362.175781 199.003906 C 363.304688 199.472656 364.402344 199.992188 365.476562 200.566406 C 366.554688 201.140625 367.597656 201.765625 368.609375 202.445312 C 369.625 203.121094 370.601562 203.847656 371.542969 204.617188 C 372.484375 205.390625 373.386719 206.210938 374.25 207.070312 C 375.109375 207.933594 375.929688 208.835938 376.703125 209.777344 C 377.472656 210.71875 378.199219 211.695312 378.875 212.710938 C 379.554688 213.722656 380.179688 214.769531 380.753906 215.84375 C 381.328125 216.917969 381.847656 218.019531 382.316406 219.144531 C 382.78125 220.269531 383.191406 221.414062 383.546875 222.582031 C 383.898438 223.75 384.195312 224.929688 384.433594 226.125 C 384.671875 227.320312 384.847656 228.523438 384.96875 229.738281 C 385.085938 230.949219 385.148438 232.164062 385.148438 233.382812 Z M 385.148438 233.382812 " fill-opacity="1" fill-rule="nonzero"/><g clip-path="url(#d6a091ea65)"><path stroke-linecap="butt" transform="matrix(1.212218, 0, 0, 1.212312, -296.729021, -273.157424)" fill="none" stroke-linejoin="miter" d="M 562.50395 417.829874 C 562.50395 418.835184 562.452391 419.840495 562.355719 420.839361 C 562.255825 421.841449 562.110817 422.833871 561.914251 423.819848 C 561.717684 424.805826 561.472782 425.778915 561.182766 426.742337 C 560.889528 427.702537 560.551176 428.649849 560.167711 429.577828 C 559.781023 430.505807 559.352444 431.414453 558.878751 432.300543 C 558.405058 433.186634 557.889475 434.046948 557.328777 434.884707 C 556.771302 435.719243 556.171936 436.528002 555.537124 437.30454 C 554.899089 438.081078 554.222385 438.825394 553.513457 439.534267 C 552.801307 440.246362 552.056933 440.919791 551.280335 441.557776 C 550.503737 442.195762 549.698137 442.795082 548.860313 443.352513 C 548.025712 443.909945 547.165332 444.428711 546.27595 444.902367 C 545.38979 445.376023 544.484296 445.804568 543.553023 446.188004 C 542.624972 446.574662 541.680809 446.912988 540.717312 447.202981 C 539.757037 447.496196 538.78065 447.74108 537.794596 447.937631 C 536.811765 448.13096 535.816043 448.279179 534.8171 448.379065 C 533.814934 448.47573 532.812768 448.527284 531.807379 448.527284 C 530.801991 448.527284 529.799825 448.47573 528.800881 448.379065 C 527.798715 448.279179 526.806217 448.13096 525.820162 447.937631 C 524.834108 447.74108 523.860944 447.496196 522.897447 447.202981 C 521.937172 446.912988 520.989787 446.574662 520.061736 446.188004 C 519.133685 445.804568 518.224969 445.376023 517.338809 444.902367 C 516.452649 444.428711 515.589047 443.909945 514.754445 443.352513 C 513.919844 442.795082 513.111022 442.195762 512.334424 441.557776 C 511.557826 440.919791 510.813452 440.246362 510.104524 439.534267 C 509.392374 438.825394 508.718892 438.081078 508.080857 437.30454 C 507.442823 436.528002 506.843456 435.719243 506.285981 434.884707 C 505.728506 434.046948 505.212923 433.186634 504.736008 432.300543 C 504.262315 431.414453 503.833736 430.505807 503.450271 429.577828 C 503.063583 428.649849 502.725231 427.702537 502.435215 426.742337 C 502.141977 425.778915 501.900297 424.805826 501.70373 423.819848 C 501.507164 422.833871 501.358934 421.841449 501.262262 420.839361 C 501.162367 419.840495 501.114031 418.835184 501.114031 417.829874 C 501.114031 416.824563 501.162367 415.822475 501.262262 414.823609 C 501.358934 413.821521 501.507164 412.829099 501.70373 411.843122 C 501.900297 410.857144 502.141977 409.884055 502.435215 408.920633 C 502.725231 407.95721 503.063583 407.013121 503.450271 406.085142 C 503.833736 405.157163 504.262315 404.248517 504.736008 403.362426 C 505.2097 402.476335 505.728506 401.6128 506.285981 400.778263 C 506.843456 399.940504 507.442823 399.134967 508.080857 398.358429 C 508.718892 397.581892 509.392374 396.837575 510.104524 396.12548 C 510.813452 395.416608 511.557826 394.739957 512.334424 394.101971 C 513.111022 393.467208 513.919844 392.867888 514.754445 392.310456 C 515.589047 391.749803 516.452649 391.234259 517.338809 390.760603 C 518.224969 390.286947 519.133685 389.858401 520.061736 389.471743 C 520.989787 389.088308 521.937172 388.749982 522.897447 388.456767 C 523.860944 388.166773 524.834108 387.92189 525.820162 387.725339 C 526.806217 387.528788 527.798715 387.383791 528.800881 387.283905 C 529.799825 387.184018 530.801991 387.135686 531.807379 387.135686 C 532.812768 387.135686 533.814934 387.184018 534.8171 387.283905 C 535.816043 387.383791 536.811765 387.528788 537.794596 387.725339 C 538.78065 387.92189 539.757037 388.166773 540.717312 388.456767 C 541.680809 388.749982 542.624972 389.088308 543.553023 389.471743 C 544.484296 389.858401 545.38979 390.286947 546.27595 390.760603 C 547.165332 391.234259 548.025712 391.749803 548.860313 392.310456 C 549.698137 392.867888 550.503737 393.467208 551.280335 394.101971 C 552.056933 394.739957 552.801307 395.416608 553.513457 396.12548 C 554.222385 396.837575 554.899089 397.581892 555.537124 398.358429 C 556.171936 399.134967 556.771302 399.940504 557.328777 400.778263 C 557.889475 401.6128 558.405058 402.476335 558.878751 403.362426 C 559.352444 404.248517 559.781023 405.157163 560.167711 406.085142 C 560.551176 407.013121 560.889528 407.95721 561.182766 408.920633 C 561.472782 409.884055 561.717684 410.857144 561.914251 411.843122 C 562.110817 412.829099 562.255825 413.821521 562.355719 414.823609 C 562.452391 415.822475 562.50395 416.824563 562.50395 417.829874 Z M 562.50395 417.829874 " stroke="#ffffff" stroke-width="12" stroke-opacity="1" stroke-miterlimit="4"/></g><path fill="#ffffff" d="M 267.105469 90.722656 C 262.859375 90.839844 258.460938 91.535156 254.433594 92.394531 C 245.582031 94.371094 236.925781 97.269531 228.707031 101.109375 C 222.714844 103.949219 217.515625 108.15625 212.363281 112.265625 C 210.40625 113.683594 209.101562 115.753906 207.511719 117.542969 C 203.996094 121.773438 200.476562 126.007812 196.957031 130.242188 C 180.761719 130.761719 164.417969 132.191406 148.859375 136.972656 C 139.515625 139.847656 130.539062 144.113281 122.378906 149.683594 C 115.035156 155.109375 108.113281 161.175781 102.199219 168.144531 C 96.375 175.136719 91.441406 182.855469 86.484375 190.410156 C 77.722656 204.019531 69.015625 217.765625 60.441406 231.535156 C 55.144531 240.1875 49.707031 248.785156 45.285156 257.929688 C 43.03125 262.628906 41.3125 267.683594 41.152344 272.9375 C 41.0625 277.171875 40.871094 281.480469 41.835938 285.632812 C 42.917969 289.640625 44.828125 293.359375 46.691406 297.046875 C 53.296875 309.410156 64.066406 319.78125 77.269531 324.777344 C 86.433594 328.265625 96.929688 328.90625 106.152344 325.261719 C 110.566406 323.601562 114.476562 320.867188 117.96875 317.738281 C 119.714844 316.289062 121.796875 314.519531 124.238281 315.082031 C 126.453125 315.660156 128.144531 317.351562 130.058594 318.527344 C 133.378906 320.945312 137.074219 322.777344 140.59375 324.882812 C 142.617188 325.96875 144.488281 327.394531 146.738281 327.996094 C 158.855469 331.964844 171.515625 334.292969 184.25 334.960938 C 198.359375 335.664062 212.714844 334.097656 226.03125 329.226562 C 226.476562 329.050781 227.367188 328.722656 227.980469 328.488281 C 235.257812 325.542969 242.164062 321.761719 248.886719 317.738281 C 255.855469 313.484375 262.652344 308.617188 268.707031 303.292969 C 279.453125 293.851562 288.664062 282.269531 293.683594 268.761719 C 296.023438 262.621094 297.261719 256.125 297.898438 249.601562 C 299.003906 238.914062 298.996094 227.828125 295.46875 217.558594 C 293.410156 211.414062 289.851562 205.945312 286.863281 200.234375 C 284.210938 195.421875 281.429688 190.648438 278.574219 186.039062 C 276.558594 182.753906 274.5 179.539062 272.390625 176.390625 C 271.867188 175.761719 271.453125 175.136719 272.234375 174.523438 C 275.496094 169.777344 278.867188 165.097656 282.0625 160.308594 C 284.964844 155.15625 286.277344 149.285156 287.203125 143.496094 C 289.085938 130.550781 288.140625 117.261719 284.980469 104.589844 C 284.636719 103.226562 284.164062 101.496094 283.753906 100.144531 C 283.128906 97.878906 282.386719 95.476562 280.460938 93.960938 C 277.171875 91.269531 272.722656 90.796875 268.625 90.707031 C 268.121094 90.710938 267.613281 90.71875 267.105469 90.722656 Z M 267.105469 90.722656 " fill-opacity="1" fill-rule="nonzero"/><g clip-path="url(#847ef05035)"><path fill="#141414" d="M 266.628906 88.25 C 251.875 88.636719 232.65625 95.878906 224.84375 100.078125 C 218.152344 103.675781 208.691406 111.769531 208.691406 111.769531 L 195.355469 127.8125 C 158.03125 128.976562 138.636719 135.992188 122.191406 146.53125 C 118.839844 148.679688 111.511719 154.53125 106.113281 159.867188 C 97.78125 168.09375 92.96875 174.804688 74.375 204.117188 C 40.351562 257.742188 38.171875 262.121094 38.222656 276.867188 C 38.25 284.769531 38.828125 287.179688 42.605469 295.132812 C 58.019531 327.597656 94.828125 340.3125 117.417969 320.972656 C 122.414062 316.699219 122.605469 316.585938 125.65625 318.6875 L 130.882812 322.285156 L 143.367188 329.476562 C 143.367188 329.476562 192.304688 348.410156 234.363281 328.105469 C 260.484375 315.492188 293.960938 291.886719 299.226562 255.066406 C 303.824219 222.917969 295.296875 211.585938 290.519531 202.625 C 282.296875 187.203125 274.179688 175.304688 274.179688 175.304688 L 283 162.628906 C 289.214844 153.6875 294.472656 126.617188 284.9375 97.101562 C 282.726562 90.257812 275.480469 88.019531 266.628906 88.25 Z M 263.71875 104.585938 C 266.375 104.578125 268.375 104.886719 269.425781 105.375 C 272.054688 106.597656 273.035156 116.667969 273.777344 126.472656 C 274.015625 138.5625 270.558594 152.132812 263.222656 161.851562 L 258.222656 158.53125 C 253.839844 155.621094 238.585938 144.765625 234.636719 141.832031 C 233.722656 141.152344 232.089844 141.808594 230.089844 143.660156 L 226.964844 146.554688 L 240.257812 161.699219 C 282.371094 209.671875 288.511719 223.492188 286.871094 246.757812 C 284.574219 279.339844 261.1875 305.308594 220.960938 318.820312 C 209.085938 322.8125 184.828125 323.953125 172.144531 321.121094 C 162.242188 318.910156 142.929688 310.761719 135.183594 305.53125 L 129.289062 301.550781 L 129.132812 291.929688 C 129.011719 284.332031 128.058594 279.636719 124.613281 269.582031 C 119.125 253.558594 112.265625 235.722656 109.660156 230.679688 L 107.65625 226.8125 L 103.457031 234.269531 L 99.253906 241.726562 L 101.628906 250.5 C 102.933594 255.328125 105.6875 264.730469 107.753906 271.398438 C 112.710938 287.414062 112.914062 297.855469 108.402344 304.675781 C 99.855469 317.589844 81.949219 315.609375 67.175781 300.109375 C 53.566406 285.832031 51.914062 275.640625 60.476562 258.820312 C 66.730469 246.535156 84.113281 217.902344 87.613281 214.117188 C 89 212.617188 91.132812 211.390625 92.347656 211.390625 C 93.566406 211.390625 94.5625 210.597656 94.5625 209.632812 C 94.5625 208.664062 97.359375 202.378906 100.78125 195.664062 C 111.277344 175.070312 127.484375 159.972656 149.09375 150.652344 C 167.035156 142.917969 182.144531 140.992188 202.648438 143.828125 C 203.945312 144.007812 207.195312 140.59375 211.742188 134.273438 C 225.246094 115.5 237.082031 111.164062 246.253906 107.902344 C 253.023438 105.496094 259.289062 104.601562 263.71875 104.585938 Z M 221.464844 178.875 C 219.441406 178.910156 217.316406 179.617188 215.339844 181.171875 C 211.265625 184.375 210.863281 191.921875 214.570312 195.628906 C 219.035156 200.09375 228.089844 197.886719 230.207031 191.824219 C 232.691406 184.695312 227.53125 178.769531 221.464844 178.875 Z M 237.386719 207.457031 C 227.765625 207.3125 215.785156 215.21875 213.832031 223.007812 C 212.652344 227.703125 214.347656 233.792969 217.714844 236.957031 C 220.085938 239.183594 222.605469 240.023438 228.304688 240.484375 C 235.617188 241.078125 235.792969 241.175781 236.148438 244.820312 C 236.734375 250.84375 233.179688 254.089844 225.273438 254.746094 C 220.605469 255.132812 217.472656 254.714844 214.828125 253.347656 C 209.578125 250.632812 208.511719 250.882812 208.511719 254.824219 C 208.511719 258.785156 212.386719 262.828125 217.300781 263.992188 C 219.132812 264.425781 220.632812 265.367188 220.632812 266.085938 C 220.632812 272.296875 229.445312 280.671875 238.210938 282.789062 C 244.410156 284.285156 250.289062 283.410156 256.347656 280.09375 C 266.578125 274.484375 269.363281 264.347656 263.726562 253.21875 L 260.757812 247.355469 L 263.679688 243.882812 C 269.894531 236.5 270.015625 225.671875 263.890625 224.949219 C 260.839844 224.589844 260.636719 224.867188 260.636719 229.386719 C 260.636719 233.28125 259.917969 234.8125 256.90625 237.347656 C 253.140625 240.515625 245.761719 241.6875 244.320312 239.351562 C 243.933594 238.726562 245.257812 235.632812 247.265625 232.472656 C 252.039062 224.941406 252.90625 220.015625 250.390625 214.714844 C 247.929688 209.53125 244.40625 207.5625 237.386719 207.457031 Z M 159.878906 218.667969 C 146.589844 218.679688 138.148438 231.734375 143.769531 243.582031 C 146.136719 248.570312 147.800781 250 153.644531 252.089844 C 159.679688 254.242188 160.929688 254.183594 166.964844 251.441406 C 173.339844 248.546875 176.980469 242.894531 176.988281 235.878906 C 176.996094 225.679688 170.015625 218.660156 159.878906 218.667969 Z M 246.992188 250.855469 C 247.351562 250.785156 247.730469 250.839844 248.160156 250.988281 C 254.070312 253.078125 259.070312 261.136719 257.742188 266.425781 C 257.335938 268.050781 255.164062 270.519531 252.917969 271.90625 C 245.53125 276.472656 235.789062 274.453125 230.792969 267.324219 C 229.335938 265.238281 229.285156 264.613281 230.558594 264.207031 C 231.433594 263.929688 234.238281 263.0625 236.792969 262.273438 C 240.585938 261.105469 241.847656 259.875 243.710938 255.535156 C 245.054688 252.402344 245.921875 251.070312 246.992188 250.855469 Z M 246.992188 250.855469 " fill-opacity="1" fill-rule="nonzero"/></g><g fill="#a78bfa" fill-opacity="1"><g transform="translate(585.738391, 104.689655)"><g><path d="M 5.84375 0 L 5.84375 -60.171875 L 16.84375 -60.171875 L 16.84375 -8.59375 L 43.5 -8.59375 L 43.5 0 Z M 5.84375 0 "/></g></g></g><g fill="#a78bfa" fill-opacity="1"><g transform="translate(649.435084, 104.689655)"><g><path d="M 5.84375 0 L 5.84375 -60.171875 L 45.140625 -60.171875 L 45.140625 -51.328125 L 16.84375 -51.328125 L 16.84375 -34.8125 L 42.546875 -34.8125 L 42.546875 -26.21875 L 16.84375 -26.21875 L 16.84375 -8.859375 L 45.140625 -8.859375 L 45.140625 0 Z M 5.84375 0 "/></g></g></g><g fill="#a78bfa" fill-opacity="1"><g transform="translate(715.452657, 104.689655)"><g><path d="M 1.984375 0 L 23.984375 -60.171875 L 36.359375 -60.171875 L 58.375 0 L 46.6875 0 L 41.859375 -13.921875 L 18.390625 -13.921875 L 13.5 0 Z M 21.40625 -22.53125 L 38.859375 -22.53125 L 30.09375 -47.546875 Z M 21.40625 -22.53125 "/></g></g></g><g fill="#a78bfa" fill-opacity="1"><g transform="translate(792.043103, 104.689655)"><g><path d="M 5.84375 0 L 5.84375 -60.171875 L 27.9375 -60.171875 C 32.75 -60.171875 36.71875 -59.351562 39.84375 -57.71875 C 42.96875 -56.09375 45.300781 -53.890625 46.84375 -51.109375 C 48.394531 -48.328125 49.171875 -45.242188 49.171875 -41.859375 C 49.171875 -38.191406 48.210938 -34.835938 46.296875 -31.796875 C 44.378906 -28.765625 41.382812 -26.5625 37.3125 -25.1875 L 49.78125 0 L 37.140625 0 L 25.96875 -23.734375 L 16.84375 -23.734375 L 16.84375 0 Z M 16.84375 -31.8125 L 27.25 -31.8125 C 30.914062 -31.8125 33.609375 -32.695312 35.328125 -34.46875 C 37.046875 -36.25 37.90625 -38.597656 37.90625 -41.515625 C 37.90625 -44.390625 37.0625 -46.6875 35.375 -48.40625 C 33.6875 -50.125 30.953125 -50.984375 27.171875 -50.984375 L 16.84375 -50.984375 Z M 16.84375 -31.8125 "/></g></g></g><g fill="#a78bfa" fill-opacity="1"><g transform="translate(861.9288, 104.689655)"><g><path d="M 5.84375 0 L 5.84375 -60.171875 L 16.84375 -60.171875 L 45.140625 -17.796875 L 45.140625 -60.171875 L 56.140625 -60.171875 L 56.140625 0 L 45.140625 0 L 16.84375 -42.296875 L 16.84375 0 Z M 5.84375 0 "/></g></g></g></svg>