<svg xmlns="http://www.w3.org/2000/svg" xmlns:xlink="http://www.w3.org/1999/xlink" width="3000" zoomAndPan="magnify" viewBox="0 0 2250 374.999991" height="500" preserveAspectRatio="xMidYMid meet" version="1.0"><defs><g/><clipPath id="8a01ddadf8"><path d="M 236 0 L 566.25 0 L 566.25 351 L 236 351 Z M 236 0 " clip-rule="nonzero"/></clipPath><clipPath id="06bdb03b4f"><path d="M 353 13 L 566.25 13 L 566.25 319 L 353 319 Z M 353 13 " clip-rule="nonzero"/></clipPath></defs><g clip-path="url(#8a01ddadf8)"><path stroke-linecap="butt" transform="matrix(1.514419, 0, 0, 1.51539, -417.391242, -388.32182)" fill="none" stroke-linejoin="miter" d="M 499.851902 304.300702 L 611.280806 368.21524 L 530.966876 419.934591 Z M 499.851902 304.300702 " stroke="#141414" stroke-width="12" stroke-opacity="1" stroke-miterlimit="4"/></g><path stroke-linecap="butt" transform="matrix(1.514419, 0, 0, 1.51539, -417.391242, -388.32182)" fill-opacity="1" fill="#7950f2" fill-rule="nonzero" stroke-linejoin="miter" d="M 543.582588 305.141038 C 543.582588 305.842178 543.564532 306.543317 543.531001 307.244457 C 543.494889 307.945596 543.443302 308.646736 543.376238 309.345298 C 543.306595 310.04386 543.221476 310.739844 543.118301 311.43325 C 543.015126 312.129234 542.893896 312.820063 542.757189 313.508314 C 542.620482 314.196565 542.468299 314.882238 542.295481 315.562756 C 542.125242 316.243273 541.939528 316.918636 541.735757 317.59142 C 541.531987 318.264205 541.310161 318.929256 541.075438 319.589152 C 540.838135 320.251626 540.585357 320.906367 540.317102 321.553374 C 540.048847 322.202959 539.765116 322.844811 539.46333 323.47893 C 539.164123 324.113049 538.849439 324.739435 538.5167 325.358087 C 538.18654 325.979317 537.840904 326.587659 537.479792 327.190845 C 537.11868 327.794031 536.744671 328.386907 536.352606 328.969471 C 535.963121 329.552036 535.560739 330.126867 535.14288 330.691387 C 534.722443 331.25333 534.291687 331.80754 533.845456 332.348861 C 533.401804 332.892759 532.942675 333.423769 532.47065 333.944468 C 532.001204 334.465168 531.516282 334.972978 531.021043 335.4679 C 530.523224 335.9654 530.015087 336.450011 529.494054 336.919156 C 528.9756 337.390879 528.444249 337.849713 527.900002 338.295658 C 527.358333 338.741603 526.806347 339.172082 526.241465 339.589673 C 525.676582 340.009841 525.103961 340.411965 524.521023 340.803778 C 523.935506 341.193014 523.344829 341.566783 522.741256 341.927664 C 522.140262 342.288544 521.528951 342.636536 520.909901 342.966484 C 520.290852 343.296432 519.664064 343.613492 519.029538 343.912507 C 518.395013 344.2141 517.752749 344.497649 517.105326 344.765732 C 516.457904 345.033815 515.802743 345.286431 515.142424 345.523581 C 514.479525 345.760732 513.814047 345.979838 513.14341 346.183477 C 512.470193 346.387117 511.794398 346.575291 511.113443 346.74542 C 510.432489 346.91555 509.748955 347.070213 509.060263 347.206832 C 508.37157 347.343451 507.680298 347.464604 506.986447 347.567712 C 506.290016 347.670821 505.593586 347.755886 504.897155 347.825484 C 504.198145 347.892505 503.496556 347.944059 502.797546 347.980147 C 502.095956 348.013658 501.394367 348.031702 500.692777 348.031702 C 499.991188 348.031702 499.289599 348.013658 498.588009 347.980147 C 497.88642 347.944059 497.18741 347.892505 496.4884 347.825484 C 495.78939 347.755886 495.092959 347.670821 494.399108 347.567712 C 493.705256 347.464604 493.013985 347.343451 492.325292 347.206832 C 491.636599 347.070213 490.950486 346.91555 490.269532 346.74542 C 489.588577 346.575291 488.912782 346.387117 488.242145 346.183477 C 487.568929 345.979838 486.90345 345.760732 486.243131 345.523581 C 485.582811 345.286431 484.927651 345.033815 484.277649 344.765732 C 483.630226 344.497649 482.987962 344.2141 482.353437 343.912507 C 481.718911 343.613492 481.092123 343.296432 480.473074 342.966484 C 479.854025 342.636536 479.245293 342.288544 478.641719 341.927664 C 478.040725 341.566783 477.44747 341.193014 476.864531 340.803778 C 476.279014 340.411965 475.706393 340.009841 475.14151 339.589673 C 474.579207 339.172082 474.024642 338.741603 473.482974 338.295658 C 472.941305 337.849713 472.409955 337.390879 471.888921 336.919156 C 471.367888 336.450011 470.859752 335.9654 470.364512 335.4679 C 469.866693 334.972978 469.38435 334.465168 468.912325 333.944468 C 468.4403 333.423769 467.983751 332.892759 467.537519 332.348861 C 467.091288 331.80754 466.660533 331.25333 466.242674 330.691387 C 465.824816 330.126867 465.419854 329.552036 465.030369 328.969471 C 464.640884 328.386907 464.264295 327.794031 463.903183 327.190845 C 463.542071 326.587659 463.196435 325.979317 462.866275 325.358087 C 462.536116 324.739435 462.218853 324.113049 461.919646 323.47893 C 461.620438 322.844811 461.334128 322.202959 461.065873 321.553374 C 460.797618 320.906367 460.54484 320.251626 460.310117 319.589152 C 460.072815 318.929256 459.853568 318.264205 459.649797 317.59142 C 459.446027 316.918636 459.257733 316.243273 459.087494 315.562756 C 458.917256 314.882238 458.762493 314.196565 458.625786 313.508314 C 458.48908 312.820063 458.370429 312.129234 458.267254 311.43325 C 458.164079 310.739844 458.07638 310.04386 458.009316 309.345298 C 457.939673 308.646736 457.888086 307.945596 457.854554 307.244457 C 457.818443 306.543317 457.802967 305.842178 457.802967 305.141038 C 457.802967 304.439899 457.818443 303.738759 457.854554 303.03762 C 457.888086 302.33648 457.939673 301.635341 458.009316 300.936779 C 458.07638 300.238217 458.164079 299.542233 458.267254 298.848827 C 458.370429 298.152843 458.48908 297.462014 458.625786 296.773763 C 458.762493 296.085512 458.917256 295.399839 459.087494 294.719321 C 459.257733 294.038803 459.446027 293.363441 459.649797 292.690656 C 459.853568 292.017872 460.072815 291.35282 460.310117 290.692924 C 460.54484 290.030451 460.797618 289.37571 461.065873 288.728703 C 461.334128 288.079117 461.620438 287.437265 461.919646 286.803147 C 462.218853 286.169028 462.536116 285.542642 462.866275 284.92399 C 463.196435 284.302759 463.542071 283.694418 463.903183 283.091232 C 464.264295 282.488045 464.640884 281.89517 465.030369 281.312606 C 465.419854 280.730041 465.824816 280.15521 466.242674 279.590689 C 466.660533 279.028747 467.091288 278.474537 467.537519 277.930638 C 467.983751 277.389317 468.4403 276.858307 468.912325 276.337608 C 469.38435 275.816909 469.866693 275.309098 470.364512 274.814176 C 470.859752 274.316677 471.367888 273.832066 471.888921 273.360343 C 472.409955 272.891198 472.941305 272.432364 473.482974 271.986419 C 474.024642 271.540473 474.579207 271.109994 475.14151 270.692404 C 475.706393 270.272236 476.279014 269.870112 476.864531 269.478298 C 477.44747 269.089063 478.040725 268.712716 478.641719 268.351835 C 479.245293 267.990955 479.854025 267.64554 480.473074 267.315592 C 481.092123 266.985644 481.718911 266.668585 482.353437 266.36957 C 482.987962 266.067976 483.630226 265.784427 484.277649 265.516345 C 484.927651 265.248262 485.582811 264.995645 486.243131 264.758495 C 486.90345 264.521345 487.568929 264.302239 488.242145 264.098599 C 488.912782 263.894959 489.588577 263.706786 490.269532 263.536657 C 490.950486 263.366527 491.636599 263.211864 492.325292 263.075245 C 493.013985 262.938626 493.705256 262.817473 494.399108 262.714364 C 495.092959 262.611255 495.78939 262.526191 496.4884 262.456592 C 497.18741 262.389572 497.88642 262.338017 498.588009 262.301929 C 499.289599 262.268419 499.991188 262.250375 500.692777 262.250375 C 501.394367 262.250375 502.095956 262.268419 502.797546 262.301929 C 503.496556 262.338017 504.198145 262.389572 504.897155 262.456592 C 505.593586 262.526191 506.290016 262.611255 506.986447 262.714364 C 507.680298 262.817473 508.37157 262.938626 509.060263 263.075245 C 509.748955 263.211864 510.432489 263.366527 511.113443 263.536657 C 511.794398 263.706786 512.470193 263.894959 513.14341 264.098599 C 513.814047 264.302239 514.479525 264.521345 515.142424 264.758495 C 515.802743 264.995645 516.457904 265.248262 517.105326 265.516345 C 517.752749 265.784427 518.395013 266.067976 519.029538 266.36957 C 519.664064 266.668585 520.290852 266.985644 520.909901 267.315592 C 521.528951 267.64554 522.140262 267.990955 522.741256 268.351835 C 523.344829 268.712716 523.935506 269.089063 524.521023 269.478298 C 525.103961 269.870112 525.676582 270.272236 526.241465 270.692404 C 526.806347 271.109994 527.358333 271.540473 527.900002 271.986419 C 528.444249 272.432364 528.9756 272.891198 529.494054 273.360343 C 530.015087 273.832066 530.523224 274.316677 531.021043 274.814176 C 531.516282 275.309098 532.001204 275.816909 532.47065 276.337608 C 532.942675 276.858307 533.401804 277.389317 533.845456 277.930638 C 534.291687 278.474537 534.722443 279.028747 535.14288 279.590689 C 535.560739 280.15521 535.963121 280.730041 536.352606 281.312606 C 536.744671 281.89517 537.11868 282.488045 537.479792 283.091232 C 537.840904 283.694418 538.18654 284.302759 538.5167 284.92399 C 538.849439 285.542642 539.164123 286.169028 539.46333 286.803147 C 539.765116 287.437265 540.048847 288.079117 540.317102 288.728703 C 540.585357 289.37571 540.838135 290.030451 541.075438 290.692924 C 541.310161 291.35282 541.531987 292.017872 541.735757 292.690656 C 541.939528 293.363441 542.125242 294.038803 542.295481 294.719321 C 542.468299 295.399839 542.620482 296.085512 542.757189 296.773763 C 542.893896 297.462014 543.015126 298.152843 543.118301 298.848827 C 543.221476 299.542233 543.306595 300.238217 543.376238 300.936779 C 543.443302 301.635341 543.494889 302.33648 543.531001 303.03762 C 543.564532 303.738759 543.582588 304.439899 543.582588 305.141038 Z M 543.582588 305.141038 " stroke="#141414" stroke-width="12" stroke-opacity="1" stroke-miterlimit="4"/><path fill="#fcc419" d="M 556.101562 165.84375 C 556.101562 167.46875 556.023438 169.09375 555.863281 170.714844 C 555.703125 172.335938 555.464844 173.941406 555.148438 175.539062 C 554.828125 177.136719 554.433594 178.710938 553.960938 180.269531 C 553.492188 181.828125 552.941406 183.359375 552.320312 184.863281 C 551.699219 186.367188 551.003906 187.835938 550.238281 189.273438 C 549.46875 190.707031 548.632812 192.101562 547.730469 193.457031 C 546.828125 194.808594 545.859375 196.113281 544.828125 197.375 C 543.792969 198.632812 542.703125 199.835938 541.554688 200.988281 C 540.402344 202.136719 539.199219 203.230469 537.941406 204.261719 C 536.683594 205.296875 535.378906 206.265625 534.027344 207.167969 C 532.675781 208.074219 531.28125 208.910156 529.84375 209.675781 C 528.410156 210.441406 526.941406 211.136719 525.4375 211.761719 C 523.9375 212.382812 522.40625 212.933594 520.851562 213.40625 C 519.292969 213.875 517.71875 214.273438 516.121094 214.589844 C 514.527344 214.90625 512.917969 215.144531 511.300781 215.304688 C 509.679688 215.464844 508.058594 215.542969 506.429688 215.542969 C 504.804688 215.542969 503.183594 215.464844 501.5625 215.304688 C 499.945312 215.144531 498.335938 214.90625 496.742188 214.589844 C 495.144531 214.273438 493.570312 213.875 492.011719 213.40625 C 490.457031 212.933594 488.925781 212.382812 487.421875 211.761719 C 485.921875 211.136719 484.453125 210.441406 483.015625 209.675781 C 481.582031 208.910156 480.1875 208.074219 478.835938 207.167969 C 477.484375 206.265625 476.179688 205.296875 474.921875 204.261719 C 473.664062 203.230469 472.460938 202.136719 471.308594 200.988281 C 470.160156 199.835938 469.066406 198.632812 468.035156 197.375 C 467.003906 196.113281 466.035156 194.808594 465.132812 193.457031 C 464.230469 192.101562 463.394531 190.707031 462.625 189.273438 C 461.859375 187.835938 461.164062 186.367188 460.542969 184.863281 C 459.917969 183.359375 459.371094 181.828125 458.898438 180.269531 C 458.429688 178.710938 458.03125 177.136719 457.714844 175.539062 C 457.398438 173.941406 457.160156 172.335938 457 170.714844 C 456.839844 169.09375 456.761719 167.46875 456.761719 165.84375 C 456.761719 164.214844 456.839844 162.589844 457 160.972656 C 457.160156 159.351562 457.398438 157.742188 457.714844 156.144531 C 458.03125 154.550781 458.429688 152.972656 458.898438 151.414062 C 459.371094 149.855469 459.917969 148.328125 460.542969 146.824219 C 461.164062 145.320312 461.859375 143.847656 462.625 142.414062 C 463.394531 140.976562 464.230469 139.582031 465.132812 138.230469 C 466.035156 136.875 467.003906 135.570312 468.035156 134.3125 C 469.066406 133.054688 470.160156 131.847656 471.308594 130.699219 C 472.460938 129.546875 473.664062 128.457031 474.921875 127.421875 C 476.179688 126.390625 477.484375 125.421875 478.835938 124.515625 C 480.1875 123.613281 481.582031 122.777344 483.015625 122.007812 C 484.453125 121.242188 485.921875 120.546875 487.421875 119.925781 C 488.925781 119.300781 490.457031 118.753906 492.011719 118.28125 C 493.570312 117.808594 495.144531 117.414062 496.742188 117.097656 C 498.335938 116.777344 499.945312 116.539062 501.5625 116.378906 C 503.183594 116.222656 504.804688 116.140625 506.429688 116.140625 C 508.058594 116.140625 509.679688 116.222656 511.300781 116.378906 C 512.917969 116.539062 514.527344 116.777344 516.121094 117.097656 C 517.71875 117.414062 519.292969 117.808594 520.851562 118.28125 C 522.40625 118.753906 523.9375 119.300781 525.4375 119.925781 C 526.941406 120.546875 528.410156 121.242188 529.84375 122.007812 C 531.28125 122.777344 532.675781 123.613281 534.027344 124.515625 C 535.378906 125.421875 536.683594 126.390625 537.941406 127.421875 C 539.199219 128.457031 540.402344 129.546875 541.554688 130.699219 C 542.703125 131.847656 543.792969 133.054688 544.828125 134.3125 C 545.859375 135.570312 546.828125 136.875 547.730469 138.230469 C 548.632812 139.582031 549.46875 140.976562 550.234375 142.414062 C 551.003906 143.847656 551.699219 145.320312 552.320312 146.824219 C 552.941406 148.328125 553.492188 149.855469 553.960938 151.414062 C 554.433594 152.972656 554.828125 154.550781 555.148438 156.144531 C 555.464844 157.742188 555.703125 159.351562 555.863281 160.972656 C 556.023438 162.589844 556.101562 164.214844 556.101562 165.84375 Z M 556.101562 165.84375 " fill-opacity="1" fill-rule="nonzero"/><g clip-path="url(#06bdb03b4f)"><path stroke-linecap="butt" transform="matrix(1.514419, 0, 0, 1.51539, -417.391242, -388.32182)" fill="none" stroke-linejoin="miter" d="M 642.816218 365.691654 C 642.816218 366.763985 642.764631 367.836316 642.658876 368.906069 C 642.553122 369.975822 642.39578 371.035265 642.186851 372.089552 C 641.975343 373.143839 641.714826 374.182659 641.402722 375.211169 C 641.093197 376.239679 640.729506 377.250145 640.319385 378.242566 C 639.909265 379.234988 639.450137 380.204211 638.94458 381.152811 C 638.436443 382.098834 637.884457 383.019079 637.288622 383.913548 C 636.692787 384.805439 636.053103 385.666397 635.372148 386.499 C 634.688614 387.329025 633.968969 388.122963 633.210634 388.88339 C 632.449719 389.641239 631.655272 390.363 630.824714 391.043518 C 629.994156 391.726614 629.132645 392.365888 628.240183 392.961341 C 627.34772 393.559372 626.426883 394.111004 625.477674 394.616236 C 624.531044 395.121469 623.5612 395.580303 622.568142 395.992738 C 621.577663 396.402596 620.566548 396.766054 619.539958 397.077958 C 618.510788 397.387284 617.471301 397.650212 616.416338 397.859007 C 615.363954 398.067802 614.301252 398.225043 613.233392 398.330729 C 612.162952 398.436416 611.092512 398.48797 610.016914 398.48797 C 608.943895 398.48797 607.873455 398.436416 606.803015 398.330729 C 605.735155 398.225043 604.672453 398.067802 603.620069 397.859007 C 602.565106 397.650212 601.525619 397.387284 600.496449 397.077958 C 599.469858 396.766054 598.458744 396.402596 597.465686 395.992738 C 596.475207 395.580303 595.505362 395.121469 594.556153 394.616236 C 593.609523 394.111004 592.688687 393.559372 591.796224 392.961341 C 590.903761 392.365888 590.042251 391.726614 589.211693 391.043518 C 588.381135 390.363 587.586688 389.641239 586.825773 388.88339 C 586.067437 388.122963 585.345213 387.329025 584.664259 386.499 C 583.983304 385.666397 583.34362 384.805439 582.747785 383.913548 C 582.151949 383.019079 581.599964 382.098834 581.091827 381.152811 C 580.58627 380.204211 580.127142 379.234988 579.717022 378.242566 C 579.304322 377.250145 578.94321 376.239679 578.631106 375.211169 C 578.321581 374.182659 578.058485 373.143839 577.849556 372.089552 C 577.640626 371.035265 577.483285 369.975822 577.37753 368.906069 C 577.271776 367.836316 577.220189 366.763985 577.220189 365.691654 C 577.220189 364.616745 577.271776 363.544414 577.37753 362.477238 C 577.483285 361.407485 577.640626 360.345465 577.849556 359.291178 C 578.058485 358.239468 578.321581 357.19807 578.631106 356.16956 C 578.94321 355.14105 579.304322 354.133162 579.717022 353.140741 C 580.127142 352.148319 580.58627 351.176519 581.091827 350.230496 C 581.599964 349.281895 582.151949 348.36165 582.747785 347.469759 C 583.34362 346.575291 583.983304 345.714333 584.664259 344.884307 C 585.345213 344.054282 586.067437 343.257767 586.825773 342.499917 C 587.586688 341.73949 588.381135 341.020307 589.211693 340.337211 C 590.042251 339.656693 590.903761 339.017419 591.796224 338.419388 C 592.688687 337.823935 593.609523 337.272303 594.556153 336.764493 C 595.505362 336.25926 596.475207 335.800426 597.465686 335.390569 C 598.458744 334.978134 599.469858 334.617253 600.496449 334.305349 C 601.525619 333.993445 602.565106 333.733096 603.620069 333.5243 C 604.672453 333.312927 605.735155 333.155687 606.803015 333.05 C 607.873455 332.946891 608.943895 332.892759 610.016914 332.892759 C 611.092512 332.892759 612.162952 332.946891 613.233392 333.05 C 614.301252 333.155687 615.363954 333.312927 616.416338 333.5243 C 617.471301 333.733096 618.510788 333.993445 619.539958 334.305349 C 620.566548 334.617253 621.577663 334.978134 622.568142 335.390569 C 623.5612 335.800426 624.531044 336.25926 625.477674 336.764493 C 626.426883 337.272303 627.34772 337.823935 628.240183 338.419388 C 629.132645 339.017419 629.994156 339.656693 630.824714 340.337211 C 631.655272 341.020307 632.449719 341.73949 633.210634 342.499917 C 633.968969 343.257767 634.688614 344.054282 635.372148 344.884307 C 636.053103 345.714333 636.692787 346.575291 637.288622 347.469759 C 637.884457 348.36165 638.436443 349.281895 638.942 350.230496 C 639.450137 351.176519 639.909265 352.148319 640.319385 353.140741 C 640.729506 354.133162 641.093197 355.14105 641.402722 356.16956 C 641.714826 357.19807 641.975343 358.239468 642.186851 359.291178 C 642.39578 360.345465 642.553122 361.407485 642.658876 362.477238 C 642.764631 363.544414 642.816218 364.616745 642.816218 365.691654 Z M 642.816218 365.691654 " stroke="#141414" stroke-width="12" stroke-opacity="1" stroke-miterlimit="4"/></g><path stroke-linecap="butt" transform="matrix(1.514419, 0, 0, 1.51539, -417.391242, -388.32182)" fill-opacity="1" fill="#f06595" fill-rule="nonzero" stroke-linejoin="miter" d="M 562.502288 417.831172 C 562.502288 418.836483 562.453279 419.839215 562.355263 420.83937 C 562.257247 421.839525 562.110223 422.834524 561.914191 423.819213 C 561.718158 424.806479 561.473118 425.778279 561.181649 426.742346 C 560.89018 427.703835 560.552282 428.649858 560.165376 429.577837 C 559.781049 430.505816 559.352873 431.413173 558.878269 432.299908 C 558.403664 433.186643 557.88779 434.047601 557.330645 434.88536 C 556.770921 435.720541 556.172507 436.527367 555.535402 437.30326 C 554.898297 438.081731 554.222501 438.824114 553.513173 439.535565 C 552.801266 440.247015 552.058407 440.9198 551.279437 441.559074 C 550.503045 442.195771 549.695702 442.793801 548.859985 443.353166 C 548.024268 443.912531 547.162758 444.428075 546.278033 444.902375 C 545.390728 445.376676 544.482789 445.804577 543.554215 446.188657 C 542.625641 446.575315 541.679011 446.912996 540.719484 447.204278 C 539.757378 447.49556 538.782375 447.740444 537.797055 447.93635 C 536.809155 448.132257 535.816097 448.279187 534.817879 448.37714 C 533.817083 448.477671 532.813707 448.526648 531.807751 448.526648 C 530.801796 448.526648 529.800999 448.477671 528.800203 448.37714 C 527.799406 448.279187 526.806347 448.132257 525.818448 447.93635 C 524.833127 447.740444 523.860704 447.49556 522.898598 447.204278 C 521.936492 446.912996 520.989862 446.575315 520.061288 446.188657 C 519.132713 445.804577 518.224774 445.376676 517.33747 444.902375 C 516.452745 444.428075 515.591235 443.912531 514.755518 443.353166 C 513.919801 442.793801 513.112457 442.195771 512.336066 441.559074 C 511.557096 440.9198 510.814236 440.247015 510.102329 439.535565 C 509.393002 438.824114 508.717206 438.081731 508.080101 437.30326 C 507.442996 436.527367 506.844581 435.720541 506.284858 434.88536 C 505.727713 434.047601 505.211838 433.186643 504.737234 432.299908 C 504.262629 431.413173 503.834453 430.505816 503.450127 429.577837 C 503.0658 428.649858 502.725323 427.703835 502.433854 426.742346 C 502.142385 425.778279 501.899924 424.806479 501.703891 423.819213 C 501.507859 422.834524 501.358255 421.839525 501.260239 420.83937 C 501.162223 419.839215 501.113215 418.836483 501.113215 417.831172 C 501.113215 416.825862 501.162223 415.823129 501.260239 414.822974 C 501.358255 413.822819 501.507859 412.82782 501.703891 411.843131 C 501.899924 410.855865 502.142385 409.881487 502.433854 408.919998 C 502.725323 407.958509 503.0658 407.012486 503.450127 406.084507 C 503.834453 405.156529 504.262629 404.249172 504.737234 403.362436 C 505.211838 402.475701 505.727713 401.614743 506.284858 400.776984 C 506.844581 399.941804 507.442996 399.134978 508.080101 398.359084 C 508.717206 397.580613 509.393002 396.83823 510.102329 396.12678 C 510.814236 395.415329 511.557096 394.739967 512.336066 394.10327 C 513.112457 393.466574 513.919801 392.868543 514.755518 392.309178 C 515.591235 391.749813 516.452745 391.234269 517.33747 390.759969 C 518.224774 390.285669 519.132713 389.857768 520.061288 389.473687 C 520.989862 389.08703 521.936492 388.749348 522.898598 388.458066 C 523.860704 388.166784 524.833127 387.921901 525.818448 387.725994 C 526.806347 387.530087 527.799406 387.383157 528.800203 387.282626 C 529.800999 387.184673 530.801796 387.135696 531.807751 387.135696 C 532.813707 387.135696 533.817083 387.184673 534.817879 387.282626 C 535.816097 387.383157 536.809155 387.530087 537.797055 387.725994 C 538.782375 387.921901 539.757378 388.166784 540.716905 388.458066 C 541.679011 388.749348 542.625641 389.08703 543.554215 389.473687 C 544.482789 389.857768 545.390728 390.285669 546.278033 390.759969 C 547.162758 391.234269 548.024268 391.749813 548.859985 392.309178 C 549.695702 392.868543 550.503045 393.466574 551.279437 394.10327 C 552.058407 394.739967 552.801266 395.415329 553.513173 396.12678 C 554.222501 396.83823 554.898297 397.580613 555.535402 398.359084 C 556.172507 399.134978 556.770921 399.941804 557.330645 400.776984 C 557.88779 401.614743 558.403664 402.475701 558.878269 403.362436 C 559.352873 404.249172 559.781049 405.156529 560.165376 406.084507 C 560.552282 407.012486 560.89018 407.958509 561.181649 408.919998 C 561.473118 409.881487 561.718158 410.855865 561.914191 411.843131 C 562.110223 412.82782 562.257247 413.822819 562.355263 414.822974 C 562.453279 415.823129 562.502288 416.825862 562.502288 417.831172 Z M 562.502288 417.831172 " stroke="#141414" stroke-width="12" stroke-opacity="1" stroke-miterlimit="4"/><path fill="#ffffff" d="M 287.003906 66.527344 C 281.699219 66.675781 276.203125 67.542969 271.171875 68.621094 C 260.117188 71.085938 249.300781 74.710938 239.035156 79.515625 C 231.546875 83.0625 225.054688 88.320312 218.613281 93.460938 C 216.167969 95.230469 214.539062 97.820312 212.554688 100.054688 C 208.160156 105.34375 203.765625 110.636719 199.371094 115.925781 C 179.136719 116.578125 158.714844 118.363281 139.28125 124.339844 C 127.609375 127.933594 116.394531 133.265625 106.195312 140.230469 C 97.023438 147.011719 88.375 154.59375 80.984375 163.308594 C 73.710938 172.042969 67.550781 181.695312 61.355469 191.136719 C 50.40625 208.148438 39.53125 225.335938 28.816406 242.542969 C 22.203125 253.359375 15.410156 264.109375 9.882812 275.535156 C 7.070312 281.414062 4.921875 287.730469 4.722656 294.296875 C 4.609375 299.585938 4.371094 304.972656 5.578125 310.167969 C 6.925781 315.175781 9.316406 319.824219 11.640625 324.433594 C 19.894531 339.886719 33.347656 352.851562 49.84375 359.09375 C 61.292969 363.457031 74.40625 364.257812 85.925781 359.703125 C 91.4375 357.625 96.328125 354.210938 100.691406 350.296875 C 102.871094 348.484375 105.46875 346.273438 108.519531 346.976562 C 111.289062 347.703125 113.402344 349.8125 115.789062 351.28125 C 119.941406 354.308594 124.554688 356.597656 128.953125 359.230469 C 131.484375 360.585938 133.820312 362.367188 136.628906 363.117188 C 151.769531 368.082031 167.585938 370.992188 183.492188 371.828125 C 201.121094 372.703125 219.054688 370.75 235.691406 364.660156 C 236.246094 364.441406 237.359375 364.03125 238.125 363.734375 C 247.214844 360.054688 255.84375 355.328125 264.246094 350.296875 C 272.953125 344.980469 281.4375 338.898438 289.007812 332.238281 C 302.433594 320.441406 313.9375 305.964844 320.207031 289.078125 C 323.128906 281.402344 324.679688 273.28125 325.472656 265.125 C 326.855469 251.769531 326.847656 237.910156 322.4375 225.074219 C 319.863281 217.390625 315.421875 210.554688 311.6875 203.417969 C 308.375 197.402344 304.898438 191.433594 301.332031 185.675781 C 298.8125 181.570312 296.242188 177.550781 293.605469 173.613281 C 292.953125 172.828125 292.4375 172.046875 293.410156 171.28125 C 297.488281 165.34375 301.699219 159.5 305.691406 153.507812 C 309.3125 147.066406 310.953125 139.730469 312.113281 132.496094 C 314.464844 116.3125 313.285156 99.703125 309.335938 83.863281 C 308.90625 82.160156 308.316406 79.996094 307.804688 78.304688 C 307.023438 75.476562 306.09375 72.46875 303.691406 70.574219 C 299.582031 67.214844 294.023438 66.617188 288.902344 66.507812 C 288.269531 66.515625 287.636719 66.523438 287.003906 66.527344 Z M 287.003906 66.527344 " fill-opacity="1" fill-rule="nonzero"/><path fill="#141414" d="M 286.410156 63.4375 C 267.976562 63.921875 243.96875 72.972656 234.207031 78.222656 C 225.847656 82.71875 214.027344 92.835938 214.027344 92.835938 L 197.367188 112.890625 C 150.738281 114.347656 126.507812 123.117188 105.964844 136.289062 C 101.777344 138.976562 92.621094 146.292969 85.875 152.957031 C 75.46875 163.242188 69.457031 171.632812 46.226562 208.269531 C 3.722656 275.304688 1 280.777344 1.0625 299.207031 C 1.09375 309.085938 1.820312 312.101562 6.539062 322.042969 C 25.796875 362.625 71.777344 378.515625 100 354.34375 C 106.242188 348.996094 106.480469 348.859375 110.292969 351.484375 L 116.820312 355.984375 L 132.417969 364.972656 C 132.417969 364.972656 193.558594 388.636719 246.101562 363.253906 C 278.734375 347.492188 320.554688 317.984375 327.132812 271.957031 C 332.878906 231.769531 322.222656 217.609375 316.253906 206.40625 C 305.980469 187.128906 295.84375 172.257812 295.84375 172.257812 L 306.859375 156.414062 C 314.628906 145.238281 321.191406 111.398438 309.28125 74.503906 C 306.519531 65.945312 297.46875 63.148438 286.410156 63.4375 Z M 282.773438 83.859375 C 286.09375 83.847656 288.589844 84.234375 289.902344 84.84375 C 293.1875 86.371094 294.410156 98.957031 295.339844 111.21875 C 295.640625 126.324219 291.316406 143.289062 282.152344 155.4375 L 275.910156 151.289062 C 270.433594 147.648438 251.375 134.085938 246.441406 130.414062 C 245.296875 129.5625 243.261719 130.382812 240.761719 132.703125 L 236.859375 136.320312 L 253.464844 155.246094 C 306.074219 215.214844 313.75 232.492188 311.699219 261.574219 C 308.828125 302.300781 279.609375 334.757812 229.359375 351.652344 C 214.523438 356.640625 184.214844 358.066406 168.371094 354.527344 C 156 351.761719 131.871094 341.578125 122.195312 335.039062 L 114.832031 330.0625 L 114.636719 318.039062 C 114.480469 308.539062 113.296875 302.671875 108.992188 290.101562 C 102.132812 270.074219 93.5625 247.777344 90.304688 241.476562 L 87.808594 236.640625 L 82.558594 245.960938 L 77.308594 255.285156 L 80.273438 266.253906 C 81.902344 272.285156 85.347656 284.039062 87.925781 292.375 C 94.117188 312.394531 94.375 325.445312 88.734375 333.96875 C 78.058594 350.113281 55.691406 347.636719 37.234375 328.261719 C 20.234375 310.417969 18.167969 297.675781 28.867188 276.648438 C 36.679688 261.296875 58.394531 225.503906 62.765625 220.773438 C 64.5 218.898438 67.160156 217.363281 68.683594 217.363281 C 70.203125 217.363281 71.449219 216.375 71.449219 215.164062 C 71.449219 213.953125 74.941406 206.097656 79.21875 197.703125 C 92.332031 171.960938 112.578125 153.089844 139.574219 141.441406 C 161.984375 131.773438 180.863281 129.367188 206.480469 132.910156 C 208.097656 133.132812 212.15625 128.867188 217.835938 120.96875 C 234.710938 97.5 249.496094 92.078125 260.957031 88 C 269.414062 84.992188 277.238281 83.875 282.773438 83.859375 Z M 229.984375 176.71875 C 227.457031 176.765625 224.804688 177.644531 222.335938 179.585938 C 217.246094 183.59375 216.742188 193.027344 221.375 197.664062 C 226.949219 203.242188 238.265625 200.484375 240.90625 192.90625 C 244.011719 183.996094 237.566406 176.589844 229.984375 176.71875 Z M 249.878906 212.445312 C 237.855469 212.265625 222.890625 222.148438 220.449219 231.886719 C 218.976562 237.753906 221.097656 245.367188 225.304688 249.324219 C 228.261719 252.105469 231.410156 253.15625 238.53125 253.730469 C 247.667969 254.472656 247.886719 254.59375 248.328125 259.152344 C 249.0625 266.679688 244.621094 270.738281 234.746094 271.558594 C 228.914062 272.042969 224.996094 271.515625 221.695312 269.808594 C 215.136719 266.414062 213.800781 266.730469 213.800781 271.652344 C 213.800781 276.609375 218.644531 281.660156 224.78125 283.113281 C 227.074219 283.65625 228.945312 284.832031 228.945312 285.734375 C 228.945312 293.496094 239.957031 303.964844 250.910156 306.609375 C 258.652344 308.484375 265.996094 307.386719 273.5625 303.238281 C 286.347656 296.230469 289.824219 283.558594 282.785156 269.648438 L 279.078125 262.320312 L 282.726562 257.980469 C 290.488281 248.746094 290.640625 235.214844 282.988281 234.308594 C 279.179688 233.859375 278.921875 234.207031 278.921875 239.855469 C 278.921875 244.726562 278.027344 246.640625 274.261719 249.8125 C 269.558594 253.769531 260.339844 255.234375 258.539062 252.316406 C 258.054688 251.535156 259.710938 247.664062 262.214844 243.714844 C 268.183594 234.300781 269.265625 228.148438 266.121094 221.519531 C 263.046875 215.039062 258.648438 212.578125 249.878906 212.445312 Z M 153.046875 226.460938 C 136.441406 226.476562 125.898438 242.792969 132.921875 257.601562 C 135.878906 263.835938 137.957031 265.628906 145.261719 268.234375 C 152.796875 270.925781 154.359375 270.851562 161.902344 267.425781 C 169.867188 263.808594 174.414062 256.742188 174.421875 247.976562 C 174.433594 235.226562 165.710938 226.449219 153.046875 226.460938 Z M 261.878906 266.695312 C 262.324219 266.605469 262.800781 266.671875 263.335938 266.863281 C 270.71875 269.476562 276.96875 279.546875 275.308594 286.160156 C 274.796875 288.191406 272.085938 291.273438 269.28125 293.007812 C 260.050781 298.714844 247.878906 296.191406 241.640625 287.277344 C 239.816406 284.671875 239.757812 283.890625 241.347656 283.386719 C 242.4375 283.039062 245.945312 281.953125 249.132812 280.96875 C 253.875 279.507812 255.453125 277.96875 257.777344 272.542969 C 259.453125 268.625 260.539062 266.964844 261.878906 266.695312 Z M 261.878906 266.695312 " fill-opacity="1" fill-rule="nonzero"/><g fill="#000000" fill-opacity="1"><g transform="translate(634.139577, 270.617834)"><g><path d="M 51.765625 0 L 6.15625 -172.546875 L 39.9375 -172.546875 L 70.984375 -35.25 L 107.46875 -172.546875 L 142.234375 -172.546875 L 177.71875 -35.25 L 208.78125 -172.546875 L 242.796875 -172.546875 L 195.96875 0 L 158.5 0 L 124.234375 -127.9375 L 88.984375 0 Z M 51.765625 0 "/></g></g></g><g fill="#000000" fill-opacity="1"><g transform="translate(883.09244, 270.617834)"><g><path d="M 74.6875 2.953125 C 62.851562 2.953125 52.210938 0.242188 42.765625 -5.171875 C 33.316406 -10.597656 25.835938 -18.117188 20.328125 -27.734375 C 14.828125 -37.347656 12.078125 -48.476562 12.078125 -61.125 C 12.078125 -73.78125 14.867188 -84.914062 20.453125 -94.53125 C 26.046875 -104.144531 33.566406 -111.660156 43.015625 -117.078125 C 52.460938 -122.503906 63.101562 -125.21875 74.9375 -125.21875 C 86.601562 -125.21875 97.160156 -122.503906 106.609375 -117.078125 C 116.054688 -111.660156 123.53125 -104.144531 129.03125 -94.53125 C 134.539062 -84.914062 137.296875 -73.78125 137.296875 -61.125 C 137.296875 -48.476562 134.539062 -37.347656 129.03125 -27.734375 C 123.53125 -18.117188 116.015625 -10.597656 106.484375 -5.171875 C 96.953125 0.242188 86.351562 2.953125 74.6875 2.953125 Z M 74.6875 -24.40625 C 82.90625 -24.40625 90.050781 -27.484375 96.125 -33.640625 C 102.207031 -39.804688 105.25 -48.96875 105.25 -61.125 C 105.25 -73.289062 102.207031 -82.453125 96.125 -88.609375 C 90.050781 -94.773438 82.988281 -97.859375 74.9375 -97.859375 C 66.550781 -97.859375 59.359375 -94.773438 53.359375 -88.609375 C 47.367188 -82.453125 44.375 -73.289062 44.375 -61.125 C 44.375 -48.96875 47.367188 -39.804688 53.359375 -33.640625 C 59.359375 -27.484375 66.46875 -24.40625 74.6875 -24.40625 Z M 74.6875 -24.40625 "/></g></g></g><g fill="#000000" fill-opacity="1"><g transform="translate(1032.464134, 270.617834)"><g><path d="M 16.015625 0 L 16.015625 -122.265625 L 44.125 -122.265625 L 47.078125 -99.34375 C 51.515625 -107.226562 57.550781 -113.507812 65.1875 -118.1875 C 72.832031 -122.875 81.832031 -125.21875 92.1875 -125.21875 L 92.1875 -91.9375 L 83.3125 -91.9375 C 76.414062 -91.9375 70.253906 -90.867188 64.828125 -88.734375 C 59.398438 -86.597656 55.164062 -82.898438 52.125 -77.640625 C 49.09375 -72.390625 47.578125 -65.078125 47.578125 -55.703125 L 47.578125 0 Z M 16.015625 0 "/></g></g></g><g fill="#000000" fill-opacity="1"><g transform="translate(1130.073371, 270.617834)"><g><path d="M 16.015625 0 L 16.015625 -177.484375 L 47.578125 -177.484375 L 47.578125 -72.71875 L 90.953125 -122.265625 L 128.421875 -122.265625 L 78.390625 -66.5625 L 136.5625 0 L 97.125 0 L 47.578125 -61.375 L 47.578125 0 Z M 16.015625 0 "/></g></g></g><g fill="#000000" fill-opacity="1"><g transform="translate(1270.078564, 270.617834)"><g><path d="M 21.6875 0 L 21.6875 -95.890625 L 4.9375 -95.890625 L 4.9375 -122.265625 L 21.6875 -122.265625 L 21.6875 -136.5625 C 21.6875 -151.351562 25.425781 -161.867188 32.90625 -168.109375 C 40.382812 -174.359375 50.53125 -177.484375 63.34375 -177.484375 L 76.90625 -177.484375 L 76.90625 -150.609375 L 68.28125 -150.609375 C 62.851562 -150.609375 58.988281 -149.539062 56.6875 -147.40625 C 54.394531 -145.269531 53.25 -141.65625 53.25 -136.5625 L 53.25 -122.265625 L 79.625 -122.265625 L 79.625 -95.890625 L 53.25 -95.890625 L 53.25 0 Z M 21.6875 0 "/></g></g></g><g fill="#000000" fill-opacity="1"><g transform="translate(1358.567757, 270.617834)"><g><path d="M 16.015625 0 L 16.015625 -177.484375 L 47.578125 -177.484375 L 47.578125 0 Z M 16.015625 0 "/></g></g></g><g fill="#000000" fill-opacity="1"><g transform="translate(1422.408177, 270.617834)"><g><path d="M 74.6875 2.953125 C 62.851562 2.953125 52.210938 0.242188 42.765625 -5.171875 C 33.316406 -10.597656 25.835938 -18.117188 20.328125 -27.734375 C 14.828125 -37.347656 12.078125 -48.476562 12.078125 -61.125 C 12.078125 -73.78125 14.867188 -84.914062 20.453125 -94.53125 C 26.046875 -104.144531 33.566406 -111.660156 43.015625 -117.078125 C 52.460938 -122.503906 63.101562 -125.21875 74.9375 -125.21875 C 86.601562 -125.21875 97.160156 -122.503906 106.609375 -117.078125 C 116.054688 -111.660156 123.53125 -104.144531 129.03125 -94.53125 C 134.539062 -84.914062 137.296875 -73.78125 137.296875 -61.125 C 137.296875 -48.476562 134.539062 -37.347656 129.03125 -27.734375 C 123.53125 -18.117188 116.015625 -10.597656 106.484375 -5.171875 C 96.953125 0.242188 86.351562 2.953125 74.6875 2.953125 Z M 74.6875 -24.40625 C 82.90625 -24.40625 90.050781 -27.484375 96.125 -33.640625 C 102.207031 -39.804688 105.25 -48.96875 105.25 -61.125 C 105.25 -73.289062 102.207031 -82.453125 96.125 -88.609375 C 90.050781 -94.773438 82.988281 -97.859375 74.9375 -97.859375 C 66.550781 -97.859375 59.359375 -94.773438 53.359375 -88.609375 C 47.367188 -82.453125 44.375 -73.289062 44.375 -61.125 C 44.375 -48.96875 47.367188 -39.804688 53.359375 -33.640625 C 59.359375 -27.484375 66.46875 -24.40625 74.6875 -24.40625 Z M 74.6875 -24.40625 "/></g></g></g><g fill="#000000" fill-opacity="1"><g transform="translate(1571.779871, 270.617834)"><g><path d="M 39.9375 0 L 4.1875 -122.265625 L 35.5 -122.265625 L 56.6875 -34.265625 L 81.34375 -122.265625 L 116.34375 -122.265625 L 141 -34.265625 L 162.4375 -122.265625 L 193.75 -122.265625 L 157.765625 0 L 124.96875 0 L 98.84375 -91.453125 L 72.71875 0 Z M 39.9375 0 "/></g></g></g><g fill="#000000" fill-opacity="1"><g transform="translate(1769.463285, 270.617834)"><g><path d="M 16.765625 0 L 16.765625 -172.546875 L 75.671875 -172.546875 C 95.890625 -172.546875 112.53125 -168.972656 125.59375 -161.828125 C 138.65625 -154.679688 148.347656 -144.65625 154.671875 -131.75 C 161.003906 -118.851562 164.171875 -103.695312 164.171875 -86.28125 C 164.171875 -68.851562 161.003906 -53.691406 154.671875 -40.796875 C 148.347656 -27.898438 138.65625 -17.875 125.59375 -10.71875 C 112.53125 -3.570312 95.890625 0 75.671875 0 Z M 48.3125 -27.109375 L 74.203125 -27.109375 C 88.660156 -27.109375 100.078125 -29.453125 108.453125 -34.140625 C 116.835938 -38.828125 122.835938 -45.566406 126.453125 -54.359375 C 130.066406 -63.148438 131.875 -73.789062 131.875 -86.28125 C 131.875 -98.601562 130.066406 -109.203125 126.453125 -118.078125 C 122.835938 -126.953125 116.835938 -133.769531 108.453125 -138.53125 C 100.078125 -143.300781 88.660156 -145.6875 74.203125 -145.6875 L 48.3125 -145.6875 Z M 48.3125 -27.109375 "/></g></g></g><g fill="#000000" fill-opacity="1"><g transform="translate(1944.716288, 270.617834)"><g><path d="M 74.6875 2.953125 C 62.851562 2.953125 52.210938 0.242188 42.765625 -5.171875 C 33.316406 -10.597656 25.835938 -18.117188 20.328125 -27.734375 C 14.828125 -37.347656 12.078125 -48.476562 12.078125 -61.125 C 12.078125 -73.78125 14.867188 -84.914062 20.453125 -94.53125 C 26.046875 -104.144531 33.566406 -111.660156 43.015625 -117.078125 C 52.460938 -122.503906 63.101562 -125.21875 74.9375 -125.21875 C 86.601562 -125.21875 97.160156 -122.503906 106.609375 -117.078125 C 116.054688 -111.660156 123.53125 -104.144531 129.03125 -94.53125 C 134.539062 -84.914062 137.296875 -73.78125 137.296875 -61.125 C 137.296875 -48.476562 134.539062 -37.347656 129.03125 -27.734375 C 123.53125 -18.117188 116.015625 -10.597656 106.484375 -5.171875 C 96.953125 0.242188 86.351562 2.953125 74.6875 2.953125 Z M 74.6875 -24.40625 C 82.90625 -24.40625 90.050781 -27.484375 96.125 -33.640625 C 102.207031 -39.804688 105.25 -48.96875 105.25 -61.125 C 105.25 -73.289062 102.207031 -82.453125 96.125 -88.609375 C 90.050781 -94.773438 82.988281 -97.859375 74.9375 -97.859375 C 66.550781 -97.859375 59.359375 -94.773438 53.359375 -88.609375 C 47.367188 -82.453125 44.375 -73.289062 44.375 -61.125 C 44.375 -48.96875 47.367188 -39.804688 53.359375 -33.640625 C 59.359375 -27.484375 66.46875 -24.40625 74.6875 -24.40625 Z M 74.6875 -24.40625 "/></g></g></g><g fill="#000000" fill-opacity="1"><g transform="translate(2094.088048, 270.617834)"><g><path d="M 67.78125 -36.484375 C 61.863281 -36.484375 56.359375 -37.140625 51.265625 -38.453125 L 42.15625 -29.328125 C 44.945312 -27.847656 48.722656 -26.613281 53.484375 -25.625 C 58.253906 -24.644531 65.976562 -23.660156 76.65625 -22.671875 C 92.925781 -21.191406 104.757812 -17.328125 112.15625 -11.078125 C 119.550781 -4.835938 123.25 3.785156 123.25 14.796875 C 123.25 22.023438 121.273438 28.882812 117.328125 35.375 C 113.390625 41.863281 107.3125 47.117188 99.09375 51.140625 C 90.875 55.171875 80.359375 57.1875 67.546875 57.1875 C 50.117188 57.1875 36.0625 53.941406 25.375 47.453125 C 14.695312 40.960938 9.359375 31.222656 9.359375 18.234375 C 9.359375 7.222656 14.703125 -2.304688 25.390625 -10.359375 C 22.097656 -11.835938 19.257812 -13.394531 16.875 -15.03125 C 14.5 -16.675781 12.40625 -18.40625 10.59375 -20.21875 L 10.59375 -25.875 L 32.046875 -48.5625 C 22.515625 -56.9375 17.75 -67.703125 17.75 -80.859375 C 17.75 -89.066406 19.757812 -96.539062 23.78125 -103.28125 C 27.8125 -110.019531 33.523438 -115.359375 40.921875 -119.296875 C 48.316406 -123.242188 57.269531 -125.21875 67.78125 -125.21875 C 74.6875 -125.21875 81.097656 -124.234375 87.015625 -122.265625 L 133.359375 -122.265625 L 133.359375 -103.03125 L 112.40625 -101.5625 C 115.6875 -95.3125 117.328125 -88.410156 117.328125 -80.859375 C 117.328125 -72.640625 115.351562 -65.160156 111.40625 -58.421875 C 107.46875 -51.679688 101.757812 -46.335938 94.28125 -42.390625 C 86.8125 -38.453125 77.976562 -36.484375 67.78125 -36.484375 Z M 67.78125 -60.640625 C 74.195312 -60.640625 79.5 -62.363281 83.6875 -65.8125 C 87.875 -69.257812 89.96875 -74.191406 89.96875 -80.609375 C 89.96875 -87.015625 87.875 -91.941406 83.6875 -95.390625 C 79.5 -98.847656 74.195312 -100.578125 67.78125 -100.578125 C 61.050781 -100.578125 55.628906 -98.847656 51.515625 -95.390625 C 47.410156 -91.941406 45.359375 -87.015625 45.359375 -80.609375 C 45.359375 -74.191406 47.410156 -69.257812 51.515625 -65.8125 C 55.628906 -62.363281 61.050781 -60.640625 67.78125 -60.640625 Z M 38.203125 15.03125 C 38.203125 21.113281 41.035156 25.675781 46.703125 28.71875 C 52.378906 31.757812 59.328125 33.28125 67.546875 33.28125 C 75.429688 33.28125 81.835938 31.675781 86.765625 28.46875 C 91.691406 25.257812 94.15625 20.945312 94.15625 15.53125 C 94.15625 11.09375 92.550781 7.394531 89.34375 4.4375 C 86.144531 1.476562 79.78125 -0.328125 70.25 -0.984375 C 63.507812 -1.472656 57.265625 -2.210938 51.515625 -3.203125 C 46.753906 -0.578125 43.34375 2.296875 41.28125 5.421875 C 39.226562 8.546875 38.203125 11.75 38.203125 15.03125 Z M 38.203125 15.03125 "/></g></g></g></svg>