<?xml version="1.0" encoding="UTF-8" standalone="no"?>
<svg
   viewBox="0 0 63.900002 63.900002"
   version="1.1"
   id="svg8"
   sodipodi:docname="close.svg"
   width="100"
   height="100"
   inkscape:version="1.3 (0e150ed6c4, 2023-07-21)"
   xmlns:inkscape="http://www.inkscape.org/namespaces/inkscape"
   xmlns:sodipodi="http://sodipodi.sourceforge.net/DTD/sodipodi-0.dtd"
   xmlns="http://www.w3.org/2000/svg"
   xmlns:svg="http://www.w3.org/2000/svg">
  <defs
     id="defs8" />
  <sodipodi:namedview
     id="namedview8"
     pagecolor="#ffffff"
     bordercolor="#666666"
     borderopacity="1.0"
     inkscape:showpageshadow="2"
     inkscape:pageopacity="0.0"
     inkscape:pagecheckerboard="0"
     inkscape:deskcolor="#d1d1d1"
     inkscape:zoom="3.1357351"
     inkscape:cx="107.63026"
     inkscape:cy="36.195659"
     inkscape:window-width="1536"
     inkscape:window-height="841"
     inkscape:window-x="-8"
     inkscape:window-y="-8"
     inkscape:window-maximized="1"
     inkscape:current-layer="svg8" />
  <g
     fill="#2f577e"
     id="g3">
    <path
       d="m 63.9,33.3 v -2.7 c 0,-2.3 -0.9,-4.4 -2.6,-6.4 a 17.68,17.68 0 0 0 -3.5,-3 c -0.7,-0.5 -1.5,-1 -2.4,-1.5 -0.7,-0.3 -1.3,-0.7 -2,-1 a 48.4,48.4 0 0 0 -6.1,-2.1 c 0.3,0.9 0.5,1.9 0.7,2.8 l 0.6,3 3.3,1.3 c 0.5,0.2 1,0.4 1.5,0.7 0.2,0.1 0.5,0.2 0.7,0.3 0.9,0.5 1.6,1 2.3,1.5 2.6,1.7 4.2,3.7 4.7,5.7 C 60.6,34 59,36 56.4,37.7 l 0.8,2.2 c 0.3,0.9 0.5,1.9 0.6,2.8 a 17.68,17.68 0 0 0 3.5,-3 c 1.7,-2 2.6,-4.1 2.6,-6.4 m -39,15.6 -3.2,-2.8 0.7,2.5 2.5,0.3 m 5.8,-2.3 1.2,0.9 2.5,1.5 c 0.1,0.1 0.2,0.2 0.3,0.2 A 31.08,31.08 0 0 0 39,48.9 l 2.5,-0.3 3,-0.6 2.8,-0.7 a 48.4,48.4 0 0 0 6.1,-2.1 L 52.7,42.5 C 52.6,42.3 52.6,42 52.5,41.7 l -0.6,-1.5 c -1,0.5 -2.2,0.9 -3.3,1.3 -0.8,0.3 -1.7,0.5 -2.5,0.7 -0.1,0.1 -0.2,0.1 -0.3,0.1 -1,0.3 -1.9,0.5 -2.9,0.6 l -1.5,0.3 c -1.5,0.3 -3,0.4 -4.6,0.6 L 31.9,44 c -1.6,0 -3.2,-0.1 -4.8,-0.2 1.1,1 2.4,1.9 3.6,2.8 M 11.2,21.4 c 0,0.2 0.1,0.5 0.2,0.8 l 0.6,1.5 c 1,-0.5 2.2,-0.9 3.3,-1.3 0.8,-0.3 1.7,-0.5 2.5,-0.7 0.1,-0.1 0.2,-0.1 0.3,-0.1 1,-0.2 1.9,-0.5 2.9,-0.6 l 1.5,-0.3 4.6,-0.6 4.8,-0.1 4.9,0.1 c -1.1,-1 -2.4,-1.9 -3.6,-2.8 l -1.3,-0.9 -2.4,-1.5 c -0.1,-0.1 -0.2,-0.2 -0.3,-0.2 -1.5,0 -2.9,0.2 -4.3,0.3 l -2.5,0.3 -3,0.6 -2.8,0.7 a 48.4,48.4 0 0 0 -6.1,2.1 l 0.7,2.7"
       id="path2" />
    <path
       d="M 39,15 42.2,17.8 41.5,15.3 39,15 M 2.8,31.9 c 0.5,-2 2.1,-4 4.7,-5.7 L 6.7,24 C 6.4,23.1 6.2,22.1 6,21.2 c -1.3,0.9 -2.5,2 -3.4,3 -1.7,2 -2.6,4.1 -2.6,6.4 v 2.7 c 0,2.3 0.9,4.4 2.6,6.4 0.9,1 2.1,2 3.4,3 l 2.5,1.5 c 0.7,0.3 1.3,0.7 2,1 a 48.4,48.4 0 0 0 6.1,2.1 C 16.3,46.4 16.1,45.4 15.9,44.5 L 15.3,41.5 12,40.2 C 11.5,40 11,39.8 10.5,39.5 10.3,39.4 10,39.3 9.8,39.2 8.9,38.7 8.2,38.2 7.5,37.7 4.9,36 3.3,34 2.8,31.9"
       id="path3" />
  </g>
  <g
     fill="#f4b563"
     id="g5">
    <path
       d="m 39,48.9 -4.3,0.3 c 0.7,0.5 1.5,0.9 2.2,1.2 L 39,48.9 M 55.5,10.3 53.6,8.4 C 52,6.8 49.8,5.9 47.2,5.7 45.8,5.6 44.3,5.8 42.7,6.1 41.8,6.2 40.8,6.5 39.9,6.7 39.2,6.9 38.5,7.2 37.7,7.5 35.9,8.2 33.9,9.1 31.9,10.2 l 2.6,1.6 c 0.8,0.5 1.6,1.1 2.4,1.7 1.1,-0.6 2.2,-1.1 3.3,-1.5 l 1.5,-0.6 c 0.3,-0.1 0.6,-0.1 0.8,-0.2 0.9,-0.3 1.8,-0.5 2.7,-0.7 3,-0.5 5.6,-0.2 7.4,0.8"
       id="path4" />
    <path
       d="m 52.6,11.3 c 1,1.8 1.3,4.4 0.8,7.4 0.7,0.3 1.3,0.7 2,1 0.9,0.5 1.7,1 2.4,1.5 0.3,-1.6 0.5,-3.1 0.4,-4.5 C 58,14.1 57.1,11.9 55.5,10.3 55.2,9.9 54.9,9.7 54.5,9.4 m -13.1,33.8 1.5,-0.3 c 1,-0.1 1.9,-0.3 2.9,-0.6 0.1,0 0.2,0 0.3,-0.1 1,-1 1.9,-2.1 2.8,-3.2 l 1.5,-2.1 1.8,-2.4 1.5,-2.5 c 1.1,-2 2,-4 2.7,-5.8 l -2.3,-1.5 c -0.2,-0.1 -0.5,-0.2 -0.7,-0.3 -0.5,-0.3 -1,-0.5 -1.5,-0.7 -0.4,1.1 -0.9,2.2 -1.5,3.3 -0.3,0.7 -0.7,1.5 -1.2,2.2 0,0.1 -0.1,0.2 -0.2,0.3 -0.4,0.8 -1,1.6 -1.5,2.5 l -0.9,1.2 -2.8,3.6 c -1.1,1.3 -2.2,2.5 -3.4,3.6 -1.1,1.2 -2.3,2.3 -3.6,3.4 l 4.6,-0.6 M 24.9,15 c 1.4,-0.2 2.8,-0.3 4.3,-0.3 -0.7,-0.5 -1.5,-0.9 -2.2,-1.2 -0.7,0.4 -1.4,1 -2.1,1.5 M 11.3,52.6 c -1,-1.8 -1.3,-4.4 -0.8,-7.4 -0.7,-0.3 -1.3,-0.7 -2,-1 L 6,42.7 c -0.2,1.6 -0.4,3.1 -0.3,4.5 0.2,2.6 1.1,4.8 2.7,6.4 l 1.9,1.9 c 1.6,1.6 3.8,2.5 6.4,2.7 1.4,0.1 2.9,-0.1 4.5,-0.3 L 24,57.2 c 0.7,-0.2 1.4,-0.5 2.2,-0.8 1.8,-0.7 3.8,-1.6 5.7,-2.7 l -2.5,-1.5 -2.4,-1.7 -3.3,1.4 -1.5,0.6 c -0.3,0.1 -0.6,0.2 -0.8,0.2 -0.9,0.3 -1.8,0.5 -2.7,0.7 -3,0.5 -5.6,0.2 -7.4,-0.8 M 9.8,39.2 c 0.2,0.1 0.5,0.2 0.7,0.3 0.5,0.3 1,0.5 1.5,0.7 0.4,-1.1 0.9,-2.2 1.5,-3.3 0.3,-0.7 0.7,-1.5 1.2,-2.2 0,-0.1 0.1,-0.2 0.2,-0.3 0.4,-0.8 1,-1.6 1.5,-2.5 l 0.9,-1.2 2.8,-3.6 c 1.1,-1.3 2.2,-2.5 3.4,-3.6 1.1,-1.2 2.3,-2.3 3.6,-3.4 L 22.5,20.7 21,21 c -1,0.1 -1.9,0.4 -2.9,0.6 -0.1,0 -0.2,0 -0.3,0.1 -1,1 -1.9,2.1 -2.8,3.2 L 13.4,27 c -0.5,0.8 -1.1,1.6 -1.7,2.4 l -1.5,2.5 c -1.1,2 -2,4 -2.7,5.8 l 2.3,1.5"
       id="path5" />
  </g>
  <g
     fill="#5cafcd"
     id="g7">
    <path
       d="m 15,39 a 31.08,31.08 0 0 1 -0.3,-4.3 c -0.5,0.7 -0.9,1.5 -1.2,2.2 0.4,0.7 1,1.4 1.5,2.1 M 11.3,11.3 c 1.8,-1 4.4,-1.3 7.4,-0.8 0.3,-0.7 0.7,-1.3 1,-2 0.5,-0.9 1,-1.7 1.5,-2.4 C 19.6,5.8 18.1,5.6 16.7,5.7 14.1,5.9 11.9,6.8 10.3,8.4 9.9,8.7 9.7,9 9.4,9.4 9.7,9 9.9,8.7 10.3,8.4 L 8.4,10.3 C 6.8,11.9 5.9,14.1 5.7,16.7 5.6,18.1 5.8,19.6 6,21.2 L 6.7,24 c 0.2,0.7 0.5,1.4 0.8,2.2 C 8.2,28 9.1,30 10.2,32 L 11.7,29.4 13.4,27 12,23.7 11.4,22.2 c -0.1,-0.3 -0.2,-0.6 -0.2,-0.8 -0.3,-0.9 -0.5,-1.8 -0.7,-2.7 -0.5,-3 -0.2,-5.6 0.8,-7.4 m 37.6,13.6 0.3,4.3 c 0.5,-0.7 0.9,-1.5 1.2,-2.2 -0.4,-0.7 -1,-1.4 -1.5,-2.1"
       id="path6" />
    <path
       d="M 43.2,22.5 42.9,21 c -0.1,-1 -0.4,-1.9 -0.6,-2.9 0,-0.1 0,-0.2 -0.1,-0.3 -1,-1 -2.1,-1.9 -3.2,-2.8 L 36.9,13.5 34.5,11.7 31.9,10.2 C 30,9.1 28,8.2 26.2,7.5 l -1.5,2.3 c -0.1,0.2 -0.2,0.5 -0.3,0.7 -0.3,0.5 -0.5,1 -0.7,1.5 1.1,0.4 2.2,0.9 3.3,1.5 0.7,0.3 1.5,0.7 2.2,1.2 0.1,0 0.2,0.1 0.3,0.2 0.8,0.4 1.6,1 2.4,1.5 0.5,0.3 0.9,0.6 1.3,0.9 l 3.6,2.8 c 1.3,1.1 2.5,2.2 3.6,3.4 1.2,1.1 2.3,2.3 3.4,3.6 L 43.2,22.5 M 20.7,41.4 21,42.9 c 0.1,1 0.4,1.9 0.6,2.9 0,0.1 0,0.2 0.1,0.3 1,1 2.1,1.9 3.2,2.8 l 2.1,1.5 2.4,1.8 2.5,1.5 c 2,1.1 4,2 5.8,2.7 l 1.5,-2.3 c 0.1,-0.2 0.2,-0.5 0.3,-0.7 0.3,-0.5 0.5,-1 0.7,-1.5 C 39.1,51.5 38,51 36.9,50.4 36.2,50.1 35.4,49.7 34.7,49.2 34.6,49.2 34.5,49.1 34.4,49 33.6,48.6 32.8,48 31.9,47.5 l -1.2,-0.9 -3.6,-2.8 c -1.3,-1.1 -2.5,-2.2 -3.6,-3.4 -1.2,-1.1 -2.3,-2.3 -3.4,-3.6 l 0.6,4.6 m 32.9,14.1 1.9,-1.9 C 57.1,52 58,49.8 58.2,47.2 58.3,45.8 58.1,44.3 57.8,42.7 57.7,41.8 57.5,40.8 57.2,39.9 57,39.2 56.7,38.5 56.4,37.7 55.7,35.9 54.8,33.9 53.7,32 l -1.5,2.5 -1.8,2.4 c 0.6,1.1 1.1,2.2 1.5,3.3 l 0.6,1.5 c 0.1,0.3 0.1,0.6 0.2,0.8 0.3,0.9 0.5,1.8 0.7,2.7 0.5,3 0.2,5.6 -0.8,7.4 -1.8,1 -4.4,1.3 -7.4,0.8 -0.3,0.7 -0.7,1.3 -1,2 -0.5,0.9 -1,1.7 -1.5,2.4 1.6,0.3 3.1,0.5 4.5,0.4 2.6,-0.2 4.8,-1.1 6.4,-2.7"
       id="path7" />
  </g>
  <path
     d="m 17.3,30.7 -0.9,1.3 -1.5,2.4 c -0.1,0.1 -0.2,0.2 -0.2,0.3 A 31.08,31.08 0 0 0 15,39 l 0.3,2.5 0.6,3 0.7,2.8 a 48.4,48.4 0 0 0 2.1,6.1 l 2.7,-0.7 c 0.2,-0.1 0.5,-0.1 0.8,-0.2 l 1.5,-0.6 c -0.5,-1 -0.9,-2.2 -1.3,-3.3 -0.3,-0.8 -0.5,-1.7 -0.7,-2.5 -0.1,-0.1 -0.1,-0.2 -0.1,-0.3 -0.2,-1 -0.5,-1.9 -0.6,-2.9 l -0.3,-1.5 c -0.3,-1.5 -0.4,-3 -0.6,-4.6 L 19.9,32 20.1,27.1 c -1,1.1 -1.9,2.4 -2.8,3.6 M 48.9,39 46.1,42.2 48.6,41.5 48.9,39 M 15,24.9 17.8,21.7 15.3,22.4 15,24.9 M 46.6,33.2 47.5,32 49,29.5 c 0.1,-0.1 0.2,-0.2 0.2,-0.3 0,-1.4 -0.2,-2.9 -0.3,-4.3 l -0.3,-2.5 -0.6,-3 -0.7,-2.8 a 48.4,48.4 0 0 0 -2.1,-6.1 l -2.7,0.7 c -0.2,0.1 -0.5,0.1 -0.8,0.2 L 40.2,12 c 0.5,1 0.9,2.2 1.3,3.3 0.3,0.8 0.5,1.7 0.7,2.5 0.1,0.1 0.1,0.2 0.1,0.3 0.2,1 0.5,1.9 0.6,2.9 l 0.3,1.5 0.6,4.6 0.1,4.9 -0.1,4.8 c 1,-1.1 1.9,-2.4 2.8,-3.6 M 42.7,6 c -1,-1.3 -2,-2.5 -3,-3.4 C 37.7,0.9 35.6,0 33.3,0 h -2.7 c -2.3,0 -4.4,0.9 -6.4,2.6 -1,0.9 -2.1,2.1 -3,3.4 l -1.5,2.5 c -0.3,0.7 -0.7,1.3 -1,2 a 48.4,48.4 0 0 0 -2.1,6.1 c 0.9,-0.3 1.9,-0.5 2.8,-0.7 l 3,-0.6 1.3,-3.3 c 0.2,-0.5 0.4,-1 0.7,-1.5 0.1,-0.2 0.2,-0.5 0.3,-0.7 0.5,-0.9 1,-1.6 1.5,-2.3 1.7,-2.6 3.7,-4.2 5.7,-4.7 2.1,0.5 4.1,2.1 5.8,4.7 l 2.2,-0.8 m -9.3,57.2 h 2.7 c 2.3,0 4.4,-0.9 6.4,-2.6 1,-0.9 2,-2.1 3,-3.5 0.5,-0.7 1,-1.5 1.5,-2.4 0.3,-0.7 0.7,-1.3 1,-2 a 48.4,48.4 0 0 0 2.1,-6.1 l -2.8,0.7 -3,0.6 -1.3,3.3 c -0.2,0.5 -0.4,1 -0.7,1.5 -0.1,0.2 -0.2,0.5 -0.3,0.7 -0.5,0.9 -1,1.6 -1.5,2.3 -1.7,2.6 -3.7,4.2 -5.8,4.7 -2,-0.5 -4,-2.1 -5.7,-4.7 l -2.2,0.8 -2.8,0.6 a 17.68,17.68 0 0 0 3,3.5 c 2,1.7 4.1,2.6 6.4,2.6"
     fill="#47b178"
     id="path8" />
</svg>
