<?xml version="1.0" encoding="UTF-8" standalone="no"?>
<!-- Created with Inkscape (http://www.inkscape.org/) -->

<svg
   version="1.1"
   id="svg1"
   width="372.5033"
   height="247.46101"
   viewBox="0 0 372.5033 247.46101"
   xmlns="http://www.w3.org/2000/svg"
   xmlns:svg="http://www.w3.org/2000/svg">
  <defs
     id="defs1">
    <linearGradient
       id="swatch26">
      <stop
         style="stop-color:#ffffff;stop-opacity:1;"
         offset="0"
         id="stop26" />
    </linearGradient>
    <linearGradient
       id="swatch25">
      <stop
         style="stop-color:#141414;stop-opacity:1;"
         offset="0"
         id="stop25" />
    </linearGradient>
  </defs>
  <g
     id="g1"
     transform="translate(-295.34209,-261.00878)">
    <g
       id="g6"
       transform="translate(19.029037,4.757262)">
      <path
         style="fill:none;stroke:#141414;stroke-width:12;stroke-linecap:butt;stroke-linejoin:miter;stroke-dasharray:none;stroke-opacity:1"
         d="m 499.85101,304.30014 111.42886,63.91392 -80.31288,51.71981 z"
         id="path25" />
      <circle
         style="fill:#7950f2;fill-opacity:1;stroke:#141414;stroke-width:12;stroke-dasharray:none;stroke-opacity:1"
         id="path22"
         cx="500.69199"
         cy="305.14111"
         r="42.889599" />
      <circle
         style="fill:#fcc419;fill-opacity:1;stroke:#141414;stroke-width:12;stroke-dasharray:none;stroke-opacity:1"
         id="path23"
         cx="610.01843"
         cy="365.69113"
         r="32.797928" />
      <circle
         style="fill:#f06595;fill-opacity:1;stroke:#141414;stroke-width:12;stroke-dasharray:none;stroke-opacity:1"
         id="path24"
         cx="531.80798"
         cy="417.83145"
         r="30.695498" />
      <path
         id="path5"
         style="fill:#ffffff;fill-opacity:1"
         d="m 465.12678,300.15324 c -3.50287,0.0979 -7.13181,0.66939 -10.45508,1.38086 -7.3008,1.62818 -14.44262,4.02046 -21.22022,7.18889 -4.94457,2.34106 -9.23312,5.81006 -13.48433,9.20249 -1.61491,1.1693 -2.69118,2.87704 -4.00105,4.35103 -2.90226,3.49139 -5.80375,6.98341 -8.70651,10.47439 -13.36012,0.43087 -26.84452,1.60885 -39.67811,5.55322 -7.70758,2.37137 -15.113,5.88954 -21.84661,10.48475 -6.05561,4.47442 -11.76783,9.47804 -16.64672,15.22884 -4.80389,5.76602 -8.87273,12.13366 -12.96249,18.36511 -7.22898,11.22621 -14.41115,22.56642 -21.48505,33.92313 -4.36869,7.136 -8.85278,14.23 -12.50211,21.77112 -1.85946,3.87784 -3.27649,8.04643 -3.40921,12.3806 -0.0745,3.49101 -0.232,7.04548 0.56564,10.47193 0.8905,3.30491 2.46752,6.37342 4.00373,9.41505 5.4484,10.1965 14.33379,18.752 25.2246,22.87304 7.56103,2.87813 16.21938,3.40663 23.82705,0.40041 3.63998,-1.37092 6.86834,-3.62399 9.74913,-6.20705 1.44085,-1.19546 3.15583,-2.6545 5.16992,-2.18945 1.82789,0.47789 3.22394,1.87128 4.80111,2.84047 2.73999,1.99664 5.78738,3.50615 8.69095,5.24358 1.6712,0.89477 3.21367,2.07208 5.06848,2.56634 9.99772,3.27591 20.44114,5.19633 30.9459,5.74719 11.64071,0.57882 23.48254,-0.71131 34.46817,-4.72961 0.36492,-0.14479 1.10083,-0.41547 1.60742,-0.61133 6.00112,-2.42726 11.69962,-5.54613 17.24708,-8.86718 5.74817,-3.50852 11.35286,-7.52113 16.35058,-11.91602 8.86425,-7.78632 16.46252,-17.33898 20.60145,-28.48096 1.92986,-5.06607 2.95376,-10.42487 3.4773,-15.8074 0.91161,-8.81398 0.90689,-17.95886 -2.00333,-26.42852 -1.69999,-5.07078 -4.63363,-9.58094 -7.09833,-14.29187 -2.18833,-3.96802 -4.48313,-7.90806 -6.8385,-11.70827 -1.66337,-2.70974 -3.36133,-5.36094 -5.10158,-7.96053 -0.43187,-0.51662 -0.7726,-1.03234 -0.1297,-1.53826 2.69126,-3.91663 5.47237,-7.77426 8.10843,-11.72708 2.39291,-4.25049 3.47574,-9.09135 4.2405,-13.86724 1.55233,-10.67897 0.77388,-21.63993 -1.83242,-32.09222 -0.28457,-1.12369 -0.67351,-2.55246 -1.01161,-3.66823 -0.51717,-1.8667 -1.12968,-3.85023 -2.71737,-5.10042 -2.71231,-2.21764 -6.38302,-2.61041 -9.7632,-2.68252 -0.41797,0.004 -0.83594,0.008 -1.25391,0.0117 z" />
      <path
         d="m 464.73297,298.1148 c -12.17124,0.31811 -28.02521,6.29169 -34.4707,9.75586 -5.51977,2.96663 -13.32422,9.64258 -13.32422,9.64258 l -11,13.23437 c -30.79094,0.9616 -46.79159,6.74828 -60.35547,15.44141 -2.76641,1.77301 -8.81101,6.6 -13.26562,11 -6.87106,6.78683 -10.84078,12.32192 -26.18164,36.5 -28.06681,44.23489 -29.86267,47.84599 -29.82227,60.00976 0.0217,6.51892 0.49931,8.5071 3.61524,15.06836 12.71744,26.77933 43.0797,37.26544 61.71484,21.31446 4.12104,-3.52746 4.28063,-3.61916 6.79688,-1.88672 l 4.31054,2.96875 10.29883,5.93164 c 0,0 40.3723,15.61754 75.06836,-1.13281 21.54733,-10.40248 49.16119,-29.87285 53.50586,-60.2461 3.79345,-26.51963 -3.24171,-35.86537 -7.18359,-43.25781 -6.78296,-12.72047 -13.47657,-22.53516 -13.47657,-22.53516 l 7.27344,-10.45508 c 5.12976,-7.37517 9.46405,-29.70606 1.59961,-54.05273 -1.82374,-5.64591 -7.80077,-7.49165 -15.10352,-7.30078 z m -2.40039,13.47461 c 2.19254,-0.007 3.84061,0.2474 4.70704,0.65039 2.17024,1.00942 2.97761,9.31433 3.58984,17.4043 0.19876,9.96972 -2.65483,21.16498 -8.70703,29.18164 l -4.12305,-2.73828 c -3.61618,-2.40224 -16.20058,-11.35391 -19.45703,-13.7754 -0.75557,-0.56183 -2.10122,-0.0201 -3.75195,1.50977 l -2.57618,2.38672 10.96485,12.49023 c 34.739,39.57266 39.80739,50.97387 38.45312,70.16407 -1.89662,26.87545 -21.18893,48.29531 -54.37109,59.44336 -9.79579,3.29104 -29.80817,4.23322 -40.27148,1.89648 -8.16799,-1.82412 -24.10153,-8.54424 -30.49024,-12.85938 l -4.86133,-3.2832 -0.1289,-7.93555 c -0.10264,-6.26899 -0.8858,-10.14099 -3.72852,-18.43554 -4.52979,-13.21717 -10.18724,-27.92902 -12.33789,-32.08789 l -1.65039,-3.19141 -3.4668,6.15039 -3.46679,6.15235 1.95898,7.23828 c 1.0766,3.98106 3.35012,11.73828 5.05273,17.23828 4.08956,13.21063 4.25781,21.82197 0.53516,27.44726 -7.0507,10.65433 -21.82107,9.01883 -34.00781,-3.76562 -11.22577,-11.77635 -12.59017,-20.18419 -5.52539,-34.0586 5.15913,-10.13193 19.49787,-33.75065 22.38476,-36.87304 1.14417,-1.2375 2.90213,-2.25 3.90625,-2.25 1.00413,0 1.82618,-0.65255 1.82618,-1.45117 0,-0.79863 2.30792,-5.98329 5.13085,-11.52149 8.659,-16.9877 22.02901,-29.44154 39.85547,-37.12695 14.79793,-6.37973 27.2633,-7.96921 44.17774,-5.63086 1.06988,0.14791 3.75002,-2.66852 7.5,-7.88086 11.14117,-15.48584 20.90395,-19.06397 28.47265,-21.75391 5.58408,-1.98459 10.75202,-2.72227 14.40625,-2.73437 z m -34.85742,61.2793 c -1.66883,0.029 -3.42096,0.61055 -5.05078,1.89257 -3.36165,2.64428 -3.69289,8.86961 -0.63476,11.92774 3.68164,3.68164 11.15295,1.8628 12.89648,-3.13867 2.05015,-5.88109 -2.20443,-10.76855 -7.21094,-10.68164 z m 13.13672,23.57617 c -7.93986,-0.12003 -17.82087,6.40254 -19.43359,12.82812 -0.97171,3.87159 0.4279,8.89566 3.20508,11.50586 1.95395,1.83647 4.03214,2.52914 8.73437,2.91016 6.03302,0.48885 6.17695,0.56785 6.4707,3.57617 0.48511,4.96807 -2.44959,7.64671 -8.9707,8.1875 -3.85073,0.31933 -6.43611,-0.0274 -8.61523,-1.1543 -4.33097,-2.23963 -5.21289,-2.03257 -5.21289,1.2168 0,3.26964 3.1963,6.60393 7.25,7.5625 1.51249,0.35766 2.75,1.13462 2.75,1.72852 0,5.12328 7.26918,12.02976 14.50195,13.77734 5.11199,1.23515 9.96345,0.51286 14.95898,-2.22461 8.44146,-4.62577 10.73807,-12.98655 6.08985,-22.16797 l -2.44922,-4.83594 2.41015,-2.86328 c 5.12625,-6.0922 5.22496,-15.02341 0.17188,-15.61914 -2.5151,-0.29652 -2.68359,-0.0672 -2.68359,3.66016 0,3.21388 -0.5921,4.4765 -3.07813,6.56836 -3.10404,2.61186 -9.19137,3.58013 -10.38281,1.65234 -0.31792,-0.51441 0.77593,-3.06808 2.42969,-5.67578 3.93973,-6.21231 4.65373,-10.27247 2.57812,-14.64648 -2.02932,-4.27647 -4.93473,-5.89883 -10.72461,-5.98633 z m -63.94141,9.24804 c -10.96301,0.009 -17.92615,10.77688 -13.28906,20.54883 1.95242,4.11441 3.32521,5.29646 8.14844,7.01758 4.97731,1.7761 6.00884,1.7272 10.98828,-0.5332 5.25908,-2.38734 8.26258,-7.04984 8.26758,-12.83594 0.007,-8.41284 -5.75095,-14.20427 -14.11524,-14.19727 z m 71.86524,26.55079 c 0.29474,-0.0588 0.60861,-0.0152 0.96094,0.10937 4.87586,1.72437 9.00154,8.37038 7.90625,12.73438 -0.33638,1.34024 -2.12712,3.3741 -3.98047,4.51953 -6.09303,3.7657 -14.13045,2.10024 -18.25,-3.78125 -1.20481,-1.7201 -1.24427,-2.2354 -0.19531,-2.56836 0.7216,-0.22905 3.03602,-0.94673 5.14257,-1.59571 3.13104,-0.96457 4.17197,-1.97936 5.70703,-5.56054 1.10756,-2.58381 1.82476,-3.68111 2.70899,-3.85742 z"
         style="fill:#141414"
         id="path3" />
    </g>
  </g>
</svg>
