<svg xmlns="http://www.w3.org/2000/svg" xmlns:xlink="http://www.w3.org/1999/xlink" width="1920" zoomAndPan="magnify" viewBox="0 0 1440 809.999993" height="1080" preserveAspectRatio="xMidYMid meet" version="1.0"><defs><clipPath id="dc0c39599f"><path d="M 712 0 L 1440 0 L 1440 810 L 712 810 Z M 712 0 " clip-rule="nonzero"/></clipPath><clipPath id="2c1a98aa07"><path d="M 467.742188 1005.878906 L 951.664062 -386.15625 L 2233.894531 59.597656 L 1749.972656 1451.628906 Z M 467.742188 1005.878906 " clip-rule="nonzero"/></clipPath><clipPath id="c2ebd79ea4"><path d="M 467.742188 1005.878906 L 951.664062 -386.15625 L 2233.894531 59.597656 L 1749.972656 1451.628906 Z M 467.742188 1005.878906 " clip-rule="nonzero"/></clipPath></defs><rect x="-144" width="1728" fill="#ffffff" y="-80.999999" height="971.999992" fill-opacity="1"/><rect x="-144" width="1728" fill="#7c3aed" y="-80.999999" height="971.999992" fill-opacity="1"/><g clip-path="url(#dc0c39599f)"><g clip-path="url(#2c1a98aa07)"><g clip-path="url(#c2ebd79ea4)"><path fill="#ec4899" d="M 1216.609375 1175.238281 C 717.464844 1092.089844 535.972656 815.277344 917.136719 482.507812 C 1003.347656 407.265625 1022.261719 296.683594 1030.25 186.882812 C 1047.839844 -281.144531 1967.066406 -32.109375 1702.695312 555.308594 C 1664.019531 664.515625 1678.445312 766.871094 1705.859375 872.050781 C 1740.59375 1005.53125 1847.804688 1167.183594 1712.460938 1270.441406 C 1563.921875 1387.523438 1343.375 1213.265625 1216.609375 1175.238281 Z M 1216.609375 1175.238281 " fill-opacity="1" fill-rule="nonzero"/></g></g></g><path fill="#fbbf24" d="M 1626.367188 674.3125 C 1626.214844 644.773438 1621.738281 615.066406 1612 587.136719 C 1602.539062 560.011719 1588.785156 532.863281 1566.476562 514.054688 C 1544.675781 495.675781 1517.1875 486.234375 1488.6875 486.804688 C 1482.375 486.933594 1476.050781 487.558594 1469.746094 488.328125 C 1468.171875 488.042969 1466.527344 488.027344 1464.878906 488.316406 C 1460.292969 489.113281 1455.667969 489.640625 1451.03125 490.027344 C 1446.246094 490.359375 1441.429688 490.582031 1436.617188 490.851562 C 1411.503906 482.371094 1384.25 477.566406 1358.734375 485.640625 C 1330.960938 494.433594 1310.75 517.449219 1299.976562 543.902344 C 1291.5 564.707031 1290.066406 587.605469 1281.777344 608.476562 C 1281.027344 610.355469 1280.207031 612.203125 1279.332031 614.027344 C 1279.304688 614.023438 1278.179688 616.160156 1277.84375 616.738281 C 1277.085938 618.027344 1276.269531 619.28125 1275.425781 620.515625 C 1274.011719 622.589844 1272.433594 624.542969 1270.773438 626.421875 C 1270.378906 626.816406 1269.976562 627.203125 1269.574219 627.585938 C 1268.390625 628.71875 1267.140625 629.78125 1265.871094 630.816406 C 1264.746094 631.730469 1263.574219 632.585938 1262.390625 633.421875 C 1262.101562 633.628906 1261.808594 633.824219 1261.515625 634.023438 C 1261.289062 634.167969 1261.066406 634.304688 1260.90625 634.402344 C 1258.210938 636 1255.363281 637.394531 1252.558594 638.796875 C 1247.101562 641.523438 1241.511719 643.992188 1235.867188 646.308594 C 1230.152344 648.660156 1224.355469 650.8125 1218.527344 652.871094 C 1218.027344 653.046875 1217.527344 653.222656 1217.03125 653.394531 C 1216.988281 653.410156 1216.949219 653.421875 1216.902344 653.4375 C 1215.484375 653.921875 1214.0625 654.394531 1212.644531 654.867188 C 1209.554688 655.890625 1206.457031 656.886719 1203.359375 657.878906 C 1191.402344 661.6875 1179.382812 665.300781 1167.457031 669.199219 C 1143.359375 677.074219 1119.167969 686.117188 1097.992188 700.300781 C 1074.390625 716.113281 1053.804688 738.289062 1045.527344 765.960938 C 1037.484375 792.851562 1044.605469 821.027344 1057.460938 845.097656 C 1070 868.570312 1089.070312 888.878906 1109.742188 905.414062 C 1133.8125 924.660156 1161.480469 938.632812 1191.550781 945.546875 C 1221.191406 952.363281 1252.757812 950.578125 1281.878906 942.167969 C 1297.355469 937.695312 1312.296875 931.648438 1326.550781 924.152344 C 1340.988281 916.554688 1354.488281 907.359375 1367.671875 897.78125 C 1378.773438 889.714844 1389.601562 881.277344 1400.726562 873.242188 C 1400.8125 873.183594 1400.894531 873.121094 1400.980469 873.0625 C 1401.308594 872.828125 1401.953125 872.371094 1402.285156 872.140625 C 1403.589844 871.226562 1404.902344 870.328125 1406.214844 869.433594 C 1409.042969 867.511719 1411.902344 865.640625 1414.792969 863.816406 C 1420.300781 860.335938 1425.964844 857.097656 1431.773438 854.152344 C 1433.171875 853.445312 1434.582031 852.765625 1435.996094 852.097656 C 1436.597656 851.8125 1438.503906 850.972656 1439.210938 850.65625 C 1441.839844 849.578125 1444.503906 848.582031 1447.191406 847.652344 C 1453.03125 845.628906 1459.015625 844.042969 1465.074219 842.820312 C 1465.101562 842.839844 1468.335938 842.28125 1469.179688 842.164062 C 1470.925781 841.917969 1472.679688 841.71875 1474.433594 841.535156 C 1478.210938 841.144531 1481.996094 840.972656 1485.785156 840.792969 C 1491.863281 840.511719 1497.929688 839.960938 1503.957031 839.136719 C 1527.65625 835.898438 1550.792969 828.257812 1570.292969 814.140625 C 1589.792969 800.019531 1603.933594 779.625 1612.628906 757.359375 C 1622.832031 731.246094 1626.511719 702.214844 1626.367188 674.3125 Z M 1626.367188 674.3125 " fill-opacity="1" fill-rule="nonzero"/></svg>